<mxfile host="Electron" modified="2024-04-06T11:36:57.995Z" agent="Mozilla/5.0 (Windows NT 10.0; Win64; x64) AppleWebKit/537.36 (KHTML, like Gecko) draw.io/22.1.2 Chrome/114.0.5735.289 Electron/25.9.4 Safari/537.36" etag="UrliX3LJ-TNug1mYCr0s" version="22.1.2" type="device">
  <diagram name="第 1 页" id="dRbr6WWQe7zSIJih1XZH">
    <mxGraphModel dx="1024" dy="597" grid="1" gridSize="10" guides="1" tooltips="1" connect="1" arrows="1" fold="1" page="1" pageScale="1" pageWidth="827" pageHeight="1169" math="0" shadow="0">
      <root>
        <mxCell id="0" />
        <mxCell id="1" parent="0" />
        <mxCell id="LWHDOnpmcx1V06YyC4n9-1" value="" style="shape=image;verticalLabelPosition=bottom;labelBackgroundColor=default;verticalAlign=top;aspect=fixed;imageAspect=0;image=data:image/svg+xml,PHN2ZyB4bWxucz0iaHR0cDovL3d3dy53My5vcmcvMjAwMC9zdmciIHhtbG5zOnhsaW5rPSJodHRwOi8vd3d3LnczLm9yZy8xOTk5L3hsaW5rIiB2ZXJzaW9uPSIxLjEiIHZpZXdCb3g9IjAgMCA0NjAuOCAzNDUuNiIgaGVpZ2h0PSIzNDUuNnB0IiB3aWR0aD0iNDYwLjhwdCI+JiN4YTsgPG1ldGFkYXRhPiYjeGE7ICAmI3hhOyAgICYjeGE7ICAgICYjeGE7ICAgIDIwMjQtMDQtMDRUMTc6MTA6MTIuNTIxMzE4JiN4YTsgICAgaW1hZ2Uvc3ZnK3htbCYjeGE7ICAgICYjeGE7ICAgICAmI3hhOyAgICAgIE1hdHBsb3RsaWIgdjMuNy41LCBodHRwczovL21hdHBsb3RsaWIub3JnLyYjeGE7ICAgICAmI3hhOyAgICAmI3hhOyAgICYjeGE7ICAmI3hhOyA8L21ldGFkYXRhPiYjeGE7IDxkZWZzPiYjeGE7ICA8c3R5bGUgdHlwZT0idGV4dC9jc3MiPip7c3Ryb2tlLWxpbmVqb2luOiByb3VuZDsgc3Ryb2tlLWxpbmVjYXA6IGJ1dHR9PC9zdHlsZT4mI3hhOyA8L2RlZnM+JiN4YTsgPGcgaWQ9ImZpZ3VyZV8xIj4mI3hhOyAgPGcgaWQ9InBhdGNoXzEiPiYjeGE7ICAgPHBhdGggc3R5bGU9ImZpbGw6ICNmZmZmZmYiIGQ9Ik0gMCAzNDUuNiAmIzEwO0wgNDYwLjggMzQ1LjYgJiMxMDtMIDQ2MC44IDAgJiMxMDtMIDAgMCAmIzEwO3oiLz4mI3hhOyAgPC9nPiYjeGE7ICA8ZyBpZD0iYXhlc18xIj4mI3hhOyAgIDxnIGlkPSJwYXRjaF8yIj4mI3hhOyAgICA8cGF0aCBzdHlsZT0iZmlsbDogI2ZmZmZmZiIgZD0iTSA1Ny42IDMwNy41ODQgJiMxMDtMIDQxNC43MiAzMDcuNTg0ICYjMTA7TCA0MTQuNzIgNDEuNDcyICYjMTA7TCA1Ny42IDQxLjQ3MiAmIzEwO3oiLz4mI3hhOyAgIDwvZz4mI3hhOyAgIDxnIGlkPSJwYXRjaF8zIj4mI3hhOyAgICA8cGF0aCBzdHlsZT0iZmlsbDogI2ZmZGY5MiIgY2xpcC1wYXRoPSJ1cmwoI3BmOGE3ZTY1NjU3KSIgZD0iTSA3My44MzI3MjcgMzA3LjU4NCAmIzEwO0wgODcuMzYgMzA3LjU4NCAmIzEwO0wgODcuMzYgMTY2LjU3MTM0NiAmIzEwO0wgNzMuODMyNzI3IDE2Ni41NzEzNDYgJiMxMDt6Ii8+JiN4YTsgICA8L2c+JiN4YTsgICA8ZyBpZD0icGF0Y2hfNCI+JiN4YTsgICAgPHBhdGggc3R5bGU9ImZpbGw6ICNmZmRmOTIiIGNsaXAtcGF0aD0idXJsKCNwZjhhN2U2NTY1NykiIGQ9Ik0gMTQxLjQ2OTA5MSAzMDcuNTg0ICYjMTA7TCAxNTQuOTk2MzY0IDMwNy41ODQgJiMxMDtMIDE1NC45OTYzNjQgMTY1LjI1MDg5NCAmIzEwO0wgMTQxLjQ2OTA5MSAxNjUuMjUwODk0ICYjMTA7eiIvPiYjeGE7ICAgPC9nPiYjeGE7ICAgPGcgaWQ9InBhdGNoXzUiPiYjeGE7ICAgIDxwYXRoIHN0eWxlPSJmaWxsOiAjZmZkZjkyIiBjbGlwLXBhdGg9InVybCgjcGY4YTdlNjU2NTcpIiBkPSJNIDIwOS4xMDU0NTUgMzA3LjU4NCAmIzEwO0wgMjIyLjYzMjcyNyAzMDcuNTg0ICYjMTA7TCAyMjIuNjMyNzI3IDE2NS4wMTQ0MzUgJiMxMDtMIDIwOS4xMDU0NTUgMTY1LjAxNDQzNSAmIzEwO3oiLz4mI3hhOyAgIDwvZz4mI3hhOyAgIDxnIGlkPSJwYXRjaF82Ij4mI3hhOyAgICA8cGF0aCBzdHlsZT0iZmlsbDogI2ZmZGY5MiIgY2xpcC1wYXRoPSJ1cmwoI3BmOGE3ZTY1NjU3KSIgZD0iTSAyNzYuNzQxODE4IDMwNy41ODQgJiMxMDtMIDI5MC4yNjkwOTEgMzA3LjU4NCAmIzEwO0wgMjkwLjI2OTA5MSAxNjcuODM4NjQyICYjMTA7TCAyNzYuNzQxODE4IDE2Ny44Mzg2NDIgJiMxMDt6Ii8+JiN4YTsgICA8L2c+JiN4YTsgICA8ZyBpZD0icGF0Y2hfNyI+JiN4YTsgICAgPHBhdGggc3R5bGU9ImZpbGw6ICNmZmRmOTIiIGNsaXAtcGF0aD0idXJsKCNwZjhhN2U2NTY1NykiIGQ9Ik0gMzQ0LjM3ODE4MiAzMDcuNTg0ICYjMTA7TCAzNTcuOTA1NDU1IDMwNy41ODQgJiMxMDtMIDM1Ny45MDU0NTUgMTY1LjM1OTQgJiMxMDtMIDM0NC4zNzgxODIgMTY1LjM1OTQgJiMxMDt6Ii8+JiN4YTsgICA8L2c+JiN4YTsgICA8ZyBpZD0icGF0Y2hfOCI+JiN4YTsgICAgPHBhdGggc3R5bGU9ImZpbGw6ICNkYjMxMjQiIGNsaXAtcGF0aD0idXJsKCNwZjhhN2U2NTY1NykiIGQ9Ik0gODcuMzYgMzA3LjU4NCAmIzEwO0wgMTAwLjg4NzI3MyAzMDcuNTg0ICYjMTA7TCAxMDAuODg3MjczIDE1Ni41Mjc5NTMgJiMxMDtMIDg3LjM2IDE1Ni41Mjc5NTMgJiMxMDt6Ii8+JiN4YTsgICA8L2c+JiN4YTsgICA8ZyBpZD0icGF0Y2hfOSI+JiN4YTsgICAgPHBhdGggc3R5bGU9ImZpbGw6ICNkYjMxMjQiIGNsaXAtcGF0aD0idXJsKCNwZjhhN2U2NTY1NykiIGQ9Ik0gMTU0Ljk5NjM2NCAzMDcuNTg0ICYjMTA7TCAxNjguNTIzNjM2IDMwNy41ODQgJiMxMDtMIDE2OC41MjM2MzYgMTU2LjM5NTQ1MiAmIzEwO0wgMTU0Ljk5NjM2NCAxNTYuMzk1NDUyICYjMTA7eiIvPiYjeGE7ICAgPC9nPiYjeGE7ICAgPGcgaWQ9InBhdGNoXzEwIj4mI3hhOyAgICA8cGF0aCBzdHlsZT0iZmlsbDogI2RiMzEyNCIgY2xpcC1wYXRoPSJ1cmwoI3BmOGE3ZTY1NjU3KSIgZD0iTSAyMjIuNjMyNzI3IDMwNy41ODQgJiMxMDtMIDIzNi4xNiAzMDcuNTg0ICYjMTA7TCAyMzYuMTYgMTU2LjYzMzEyMyAmIzEwO0wgMjIyLjYzMjcyNyAxNTYuNjMzMTIzICYjMTA7eiIvPiYjeGE7ICAgPC9nPiYjeGE7ICAgPGcgaWQ9InBhdGNoXzExIj4mI3hhOyAgICA8cGF0aCBzdHlsZT0iZmlsbDogI2RiMzEyNCIgY2xpcC1wYXRoPSJ1cmwoI3BmOGE3ZTY1NjU3KSIgZD0iTSAyOTAuMjY5MDkxIDMwNy41ODQgJiMxMDtMIDMwMy43OTYzNjQgMzA3LjU4NCAmIzEwO0wgMzAzLjc5NjM2NCAxNjEuMDgzMjk4ICYjMTA7TCAyOTAuMjY5MDkxIDE2MS4wODMyOTggJiMxMDt6Ii8+JiN4YTsgICA8L2c+JiN4YTsgICA8ZyBpZD0icGF0Y2hfMTIiPiYjeGE7ICAgIDxwYXRoIHN0eWxlPSJmaWxsOiAjZGIzMTI0IiBjbGlwLXBhdGg9InVybCgjcGY4YTdlNjU2NTcpIiBkPSJNIDM1Ny45MDU0NTUgMzA3LjU4NCAmIzEwO0wgMzcxLjQzMjcyNyAzMDcuNTg0ICYjMTA7TCAzNzEuNDMyNzI3IDE1NC43OTE5MTggJiMxMDtMIDM1Ny45MDU0NTUgMTU0Ljc5MTkxOCAmIzEwO3oiLz4mI3hhOyAgIDwvZz4mI3hhOyAgIDxnIGlkPSJwYXRjaF8xMyI+JiN4YTsgICAgPHBhdGggc3R5bGU9ImZpbGw6ICM5MGJlZTAiIGNsaXAtcGF0aD0idXJsKCNwZjhhN2U2NTY1NykiIGQ9Ik0gMTAwLjg4NzI3MyAzMDcuNTg0ICYjMTA7TCAxMTQuNDE0NTQ1IDMwNy41ODQgJiMxMDtMIDExNC40MTQ1NDUgMjIwLjA5NTAzOCAmIzEwO0wgMTAwLjg4NzI3MyAyMjAuMDk1MDM4ICYjMTA7eiIvPiYjeGE7ICAgPC9nPiYjeGE7ICAgPGcgaWQ9InBhdGNoXzE0Ij4mI3hhOyAgICA8cGF0aCBzdHlsZT0iZmlsbDogIzkwYmVlMCIgY2xpcC1wYXRoPSJ1cmwoI3BmOGE3ZTY1NjU3KSIgZD0iTSAxNjguNTIzNjM2IDMwNy41ODQgJiMxMDtMIDE4Mi4wNTA5MDkgMzA3LjU4NCAmIzEwO0wgMTgyLjA1MDkwOSAyMDMuMDc0MTkgJiMxMDtMIDE2OC41MjM2MzYgMjAzLjA3NDE5ICYjMTA7eiIvPiYjeGE7ICAgPC9nPiYjeGE7ICAgPGcgaWQ9InBhdGNoXzE1Ij4mI3hhOyAgICA8cGF0aCBzdHlsZT0iZmlsbDogIzkwYmVlMCIgY2xpcC1wYXRoPSJ1cmwoI3BmOGE3ZTY1NjU3KSIgZD0iTSAyMzYuMTYgMzA3LjU4NCAmIzEwO0wgMjQ5LjY4NzI3MyAzMDcuNTg0ICYjMTA7TCAyNDkuNjg3MjczIDE2NS4zODExOTcgJiMxMDtMIDIzNi4xNiAxNjUuMzgxMTk3ICYjMTA7eiIvPiYjeGE7ICAgPC9nPiYjeGE7ICAgPGcgaWQ9InBhdGNoXzE2Ij4mI3hhOyAgICA8cGF0aCBzdHlsZT0iZmlsbDogIzkwYmVlMCIgY2xpcC1wYXRoPSJ1cmwoI3BmOGE3ZTY1NjU3KSIgZD0iTSAzMDMuNzk2MzY0IDMwNy41ODQgJiMxMDtMIDMxNy4zMjM2MzYgMzA3LjU4NCAmIzEwO0wgMzE3LjMyMzYzNiAxMzYuMzAyMjM3ICYjMTA7TCAzMDMuNzk2MzY0IDEzNi4zMDIyMzcgJiMxMDt6Ii8+JiN4YTsgICA8L2c+JiN4YTsgICA8ZyBpZD0icGF0Y2hfMTciPiYjeGE7ICAgIDxwYXRoIHN0eWxlPSJmaWxsOiAjOTBiZWUwIiBjbGlwLXBhdGg9InVybCgjcGY4YTdlNjU2NTcpIiBkPSJNIDM3MS40MzI3MjcgMzA3LjU4NCAmIzEwO0wgMzg0Ljk2IDMwNy41ODQgJiMxMDtMIDM4NC45NiA2MC42ODczMyAmIzEwO0wgMzcxLjQzMjcyNyA2MC42ODczMyAmIzEwO3oiLz4mI3hhOyAgIDwvZz4mI3hhOyAgIDxnIGlkPSJwYXRjaF8xOCI+JiN4YTsgICAgPHBhdGggc3R5bGU9ImZpbGw6ICM0Yjc0YWEiIGNsaXAtcGF0aD0idXJsKCNwZjhhN2U2NTY1NykiIGQ9Ik0gMTE0LjQxNDU0NSAzMDcuNTg0ICYjMTA7TCAxMjcuOTQxODE4IDMwNy41ODQgJiMxMDtMIDEyNy45NDE4MTggMjc1Ljc5OTMxNiAmIzEwO0wgMTE0LjQxNDU0NSAyNzUuNzk5MzE2ICYjMTA7eiIvPiYjeGE7ICAgPC9nPiYjeGE7ICAgPGcgaWQ9InBhdGNoXzE5Ij4mI3hhOyAgICA8cGF0aCBzdHlsZT0iZmlsbDogIzRiNzRhYSIgY2xpcC1wYXRoPSJ1cmwoI3BmOGE3ZTY1NjU3KSIgZD0iTSAxODIuMDUwOTA5IDMwNy41ODQgJiMxMDtMIDE5NS41NzgxODIgMzA3LjU4NCAmIzEwO0wgMTk1LjU3ODE4MiAyNjUuOTY0NDE5ICYjMTA7TCAxODIuMDUwOTA5IDI2NS45NjQ0MTkgJiMxMDt6Ii8+JiN4YTsgICA8L2c+JiN4YTsgICA8ZyBpZD0icGF0Y2hfMjAiPiYjeGE7ICAgIDxwYXRoIHN0eWxlPSJmaWxsOiAjNGI3NGFhIiBjbGlwLXBhdGg9InVybCgjcGY4YTdlNjU2NTcpIiBkPSJNIDI0OS42ODcyNzMgMzA3LjU4NCAmIzEwO0wgMjYzLjIxNDU0NSAzMDcuNTg0ICYjMTA7TCAyNjMuMjE0NTQ1IDIzOC42NjE2NTcgJiMxMDtMIDI0OS42ODcyNzMgMjM4LjY2MTY1NyAmIzEwO3oiLz4mI3hhOyAgIDwvZz4mI3hhOyAgIDxnIGlkPSJwYXRjaF8yMSI+JiN4YTsgICAgPHBhdGggc3R5bGU9ImZpbGw6ICM0Yjc0YWEiIGNsaXAtcGF0aD0idXJsKCNwZjhhN2U2NTY1NykiIGQ9Ik0gMzE3LjMyMzYzNiAzMDcuNTg0ICYjMTA7TCAzMzAuODUwOTA5IDMwNy41ODQgJiMxMDtMIDMzMC44NTA5MDkgMjA4LjE4NjQzMSAmIzEwO0wgMzE3LjMyMzYzNiAyMDguMTg2NDMxICYjMTA7eiIvPiYjeGE7ICAgPC9nPiYjeGE7ICAgPGcgaWQ9InBhdGNoXzIyIj4mI3hhOyAgICA8cGF0aCBzdHlsZT0iZmlsbDogIzRiNzRhYSIgY2xpcC1wYXRoPSJ1cmwoI3BmOGE3ZTY1NjU3KSIgZD0iTSAzODQuOTYgMzA3LjU4NCAmIzEwO0wgMzk4LjQ4NzI3MyAzMDcuNTg0ICYjMTA7TCAzOTguNDg3MjczIDExOC44NjI0NDYgJiMxMDtMIDM4NC45NiAxMTguODYyNDQ2ICYjMTA7eiIvPiYjeGE7ICAgPC9nPiYjeGE7ICAgPGcgaWQ9Im1hdHBsb3RsaWIuYXhpc18xIj4mI3hhOyAgICA8ZyBpZD0ieHRpY2tfMSI+JiN4YTsgICAgIDxnIGlkPSJsaW5lMmRfMSI+JiN4YTsgICAgICA8ZGVmcz4mI3hhOyAgICAgICA8cGF0aCBzdHlsZT0ic3Ryb2tlOiAjMDAwMDAwOyBzdHJva2Utd2lkdGg6IDAuOCIgZD0iTSAwIDAgJiMxMDtMIDAgMy41IiBpZD0ibWU2ZDg2YTkyYTQiLz4mI3hhOyAgICAgIDwvZGVmcz4mI3hhOyAgICAgIDxnPiYjeGE7ICAgICAgIDx1c2Ugc3R5bGU9InN0cm9rZTogIzAwMDAwMDsgc3Ryb2tlLXdpZHRoOiAwLjgiIHk9IjMwNy41ODQiIHg9Ijk0LjEyMzYzNiIgeGxpbms6aHJlZj0iI21lNmQ4NmE5MmE0Ii8+JiN4YTsgICAgICA8L2c+JiN4YTsgICAgIDwvZz4mI3hhOyAgICAgPGcgaWQ9InRleHRfMSI+JiN4YTsgICAgICAmI3hhOyAgICAgIDxnIHRyYW5zZm9ybT0idHJhbnNsYXRlKDkwLjMwNjEzNiAzMjMuNzAyMTI1KSBzY2FsZSgwLjEyIC0wLjEyKSI+JiN4YTsgICAgICAgPGRlZnM+JiN4YTsgICAgICAgIDxwYXRoIHRyYW5zZm9ybT0ic2NhbGUoMC4wMTU2MjUpIiBkPSJNIDEyMjggNTMxICYjMTA7TCAzNDMxIDUzMSAmIzEwO0wgMzQzMSAwICYjMTA7TCA0NjkgMCAmIzEwO0wgNDY5IDUzMSAmIzEwO1EgODI4IDkwMyAxNDQ4IDE1MjkgJiMxMDtRIDIwNjkgMjE1NiAyMjI4IDIzMzggJiMxMDtRIDI1MzEgMjY3OCAyNjUxIDI5MTQgJiMxMDtRIDI3NzIgMzE1MCAyNzcyIDMzNzggJiMxMDtRIDI3NzIgMzc1MCAyNTExIDM5ODQgJiMxMDtRIDIyNTAgNDIxOSAxODMxIDQyMTkgJiMxMDtRIDE1MzQgNDIxOSAxMjA0IDQxMTYgJiMxMDtRIDg3NSA0MDEzIDUwMCAzODAzICYjMTA7TCA1MDAgNDQ0MSAmIzEwO1EgODgxIDQ1OTQgMTIxMiA0NjcyICYjMTA7USAxNTQ0IDQ3NTAgMTgxOSA0NzUwICYjMTA7USAyNTQ0IDQ3NTAgMjk3NSA0Mzg3ICYjMTA7USAzNDA2IDQwMjUgMzQwNiAzNDE5ICYjMTA7USAzNDA2IDMxMzEgMzI5OCAyODczICYjMTA7USAzMTkxIDI2MTYgMjkwNiAyMjY2ICYjMTA7USAyODI4IDIxNzUgMjQwOSAxNzQyICYjMTA7USAxOTkxIDEzMDkgMTIyOCA1MzEgJiMxMDt6IiBpZD0iRGVqYVZ1U2Fucy0zMiIvPiYjeGE7ICAgICAgIDwvZGVmcz4mI3hhOyAgICAgICA8dXNlIHhsaW5rOmhyZWY9IiNEZWphVnVTYW5zLTMyIi8+JiN4YTsgICAgICA8L2c+JiN4YTsgICAgIDwvZz4mI3hhOyAgICA8L2c+JiN4YTsgICAgPGcgaWQ9Inh0aWNrXzIiPiYjeGE7ICAgICA8ZyBpZD0ibGluZTJkXzIiPiYjeGE7ICAgICAgPGc+JiN4YTsgICAgICAgPHVzZSBzdHlsZT0ic3Ryb2tlOiAjMDAwMDAwOyBzdHJva2Utd2lkdGg6IDAuOCIgeT0iMzA3LjU4NCIgeD0iMTYxLjc2IiB4bGluazpocmVmPSIjbWU2ZDg2YTkyYTQiLz4mI3hhOyAgICAgIDwvZz4mI3hhOyAgICAgPC9nPiYjeGE7ICAgICA8ZyBpZD0idGV4dF8yIj4mI3hhOyAgICAgICYjeGE7ICAgICAgPGcgdHJhbnNmb3JtPSJ0cmFuc2xhdGUoMTU3Ljk0MjUgMzIzLjcwMjEyNSkgc2NhbGUoMC4xMiAtMC4xMikiPiYjeGE7ICAgICAgIDxkZWZzPiYjeGE7ICAgICAgICA8cGF0aCB0cmFuc2Zvcm09InNjYWxlKDAuMDE1NjI1KSIgZD0iTSAyNTk3IDI1MTYgJiMxMDtRIDMwNTAgMjQxOSAzMzA0IDIxMTIgJiMxMDtRIDM1NTkgMTgwNiAzNTU5IDEzNTYgJiMxMDtRIDM1NTkgNjY2IDMwODQgMjg3ICYjMTA7USAyNjA5IC05MSAxNzM0IC05MSAmIzEwO1EgMTQ0MSAtOTEgMTEzMCAtMzMgJiMxMDtRIDgxOSAyNSA0ODggMTQxICYjMTA7TCA0ODggNzUwICYjMTA7USA3NTAgNTk3IDEwNjIgNTE5ICYjMTA7USAxMzc1IDQ0MSAxNzE2IDQ0MSAmIzEwO1EgMjMwOSA0NDEgMjYyMCA2NzUgJiMxMDtRIDI5MzEgOTA5IDI5MzEgMTM1NiAmIzEwO1EgMjkzMSAxNzY5IDI2NDIgMjAwMSAmIzEwO1EgMjM1MyAyMjM0IDE4MzggMjIzNCAmIzEwO0wgMTI5NCAyMjM0ICYjMTA7TCAxMjk0IDI3NTMgJiMxMDtMIDE4NjMgMjc1MyAmIzEwO1EgMjMyOCAyNzUzIDI1NzUgMjkzOSAmIzEwO1EgMjgyMiAzMTI1IDI4MjIgMzQ3NSAmIzEwO1EgMjgyMiAzODM0IDI1NjcgNDAyNiAmIzEwO1EgMjMxMyA0MjE5IDE4MzggNDIxOSAmIzEwO1EgMTU3OCA0MjE5IDEyODEgNDE2MiAmIzEwO1EgOTg0IDQxMDYgNjI4IDM5ODggJiMxMDtMIDYyOCA0NTUwICYjMTA7USA5ODggNDY1MCAxMzAyIDQ3MDAgJiMxMDtRIDE2MTYgNDc1MCAxODk0IDQ3NTAgJiMxMDtRIDI2MTMgNDc1MCAzMDMxIDQ0MjMgJiMxMDtRIDM0NTAgNDA5NyAzNDUwIDM1NDEgJiMxMDtRIDM0NTAgMzE1MyAzMjI4IDI4ODYgJiMxMDtRIDMwMDYgMjYxOSAyNTk3IDI1MTYgJiMxMDt6IiBpZD0iRGVqYVZ1U2Fucy0zMyIvPiYjeGE7ICAgICAgIDwvZGVmcz4mI3hhOyAgICAgICA8dXNlIHhsaW5rOmhyZWY9IiNEZWphVnVTYW5zLTMzIi8+JiN4YTsgICAgICA8L2c+JiN4YTsgICAgIDwvZz4mI3hhOyAgICA8L2c+JiN4YTsgICAgPGcgaWQ9Inh0aWNrXzMiPiYjeGE7ICAgICA8ZyBpZD0ibGluZTJkXzMiPiYjeGE7ICAgICAgPGc+JiN4YTsgICAgICAgPHVzZSBzdHlsZT0ic3Ryb2tlOiAjMDAwMDAwOyBzdHJva2Utd2lkdGg6IDAuOCIgeT0iMzA3LjU4NCIgeD0iMjI5LjM5NjM2NCIgeGxpbms6aHJlZj0iI21lNmQ4NmE5MmE0Ii8+JiN4YTsgICAgICA8L2c+JiN4YTsgICAgIDwvZz4mI3hhOyAgICAgPGcgaWQ9InRleHRfMyI+JiN4YTsgICAgICAmI3hhOyAgICAgIDxnIHRyYW5zZm9ybT0idHJhbnNsYXRlKDIyNS41Nzg4NjQgMzIzLjcwMjEyNSkgc2NhbGUoMC4xMiAtMC4xMikiPiYjeGE7ICAgICAgIDxkZWZzPiYjeGE7ICAgICAgICA8cGF0aCB0cmFuc2Zvcm09InNjYWxlKDAuMDE1NjI1KSIgZD0iTSA2OTEgNDY2NiAmIzEwO0wgMzE2OSA0NjY2ICYjMTA7TCAzMTY5IDQxMzQgJiMxMDtMIDEyNjkgNDEzNCAmIzEwO0wgMTI2OSAyOTkxICYjMTA7USAxNDA2IDMwMzggMTU0MyAzMDYxICYjMTA7USAxNjgxIDMwODQgMTgxOSAzMDg0ICYjMTA7USAyNjAwIDMwODQgMzA1NiAyNjU2ICYjMTA7USAzNTEzIDIyMjggMzUxMyAxNDk3ICYjMTA7USAzNTEzIDc0NCAzMDQ0IDMyNiAmIzEwO1EgMjU3NSAtOTEgMTcyMiAtOTEgJiMxMDtRIDE0MjggLTkxIDExMjMgLTQxICYjMTA7USA4MTkgOSA0OTQgMTA5ICYjMTA7TCA0OTQgNzQ0ICYjMTA7USA3NzUgNTkxIDEwNzUgNTE2ICYjMTA7USAxMzc1IDQ0MSAxNzA5IDQ0MSAmIzEwO1EgMjI1MCA0NDEgMjU2NSA3MjUgJiMxMDtRIDI4ODEgMTAwOSAyODgxIDE0OTcgJiMxMDtRIDI4ODEgMTk4NCAyNTY1IDIyNjggJiMxMDtRIDIyNTAgMjU1MyAxNzA5IDI1NTMgJiMxMDtRIDE0NTYgMjU1MyAxMjA0IDI0OTcgJiMxMDtRIDk1MyAyNDQxIDY5MSAyMzIyICYjMTA7TCA2OTEgNDY2NiAmIzEwO3oiIGlkPSJEZWphVnVTYW5zLTM1Ii8+JiN4YTsgICAgICAgPC9kZWZzPiYjeGE7ICAgICAgIDx1c2UgeGxpbms6aHJlZj0iI0RlamFWdVNhbnMtMzUiLz4mI3hhOyAgICAgIDwvZz4mI3hhOyAgICAgPC9nPiYjeGE7ICAgIDwvZz4mI3hhOyAgICA8ZyBpZD0ieHRpY2tfNCI+JiN4YTsgICAgIDxnIGlkPSJsaW5lMmRfNCI+JiN4YTsgICAgICA8Zz4mI3hhOyAgICAgICA8dXNlIHN0eWxlPSJzdHJva2U6ICMwMDAwMDA7IHN0cm9rZS13aWR0aDogMC44IiB5PSIzMDcuNTg0IiB4PSIyOTcuMDMyNzI3IiB4bGluazpocmVmPSIjbWU2ZDg2YTkyYTQiLz4mI3hhOyAgICAgIDwvZz4mI3hhOyAgICAgPC9nPiYjeGE7ICAgICA8ZyBpZD0idGV4dF80Ij4mI3hhOyAgICAgICYjeGE7ICAgICAgPGcgdHJhbnNmb3JtPSJ0cmFuc2xhdGUoMjkzLjIxNTIyNyAzMjMuNzAyMTI1KSBzY2FsZSgwLjEyIC0wLjEyKSI+JiN4YTsgICAgICAgPGRlZnM+JiN4YTsgICAgICAgIDxwYXRoIHRyYW5zZm9ybT0ic2NhbGUoMC4wMTU2MjUpIiBkPSJNIDUyNSA0NjY2ICYjMTA7TCAzNTI1IDQ2NjYgJiMxMDtMIDM1MjUgNDM5NyAmIzEwO0wgMTgzMSAwICYjMTA7TCAxMTcyIDAgJiMxMDtMIDI3NjYgNDEzNCAmIzEwO0wgNTI1IDQxMzQgJiMxMDtMIDUyNSA0NjY2ICYjMTA7eiIgaWQ9IkRlamFWdVNhbnMtMzciLz4mI3hhOyAgICAgICA8L2RlZnM+JiN4YTsgICAgICAgPHVzZSB4bGluazpocmVmPSIjRGVqYVZ1U2Fucy0zNyIvPiYjeGE7ICAgICAgPC9nPiYjeGE7ICAgICA8L2c+JiN4YTsgICAgPC9nPiYjeGE7ICAgIDxnIGlkPSJ4dGlja181Ij4mI3hhOyAgICAgPGcgaWQ9ImxpbmUyZF81Ij4mI3hhOyAgICAgIDxnPiYjeGE7ICAgICAgIDx1c2Ugc3R5bGU9InN0cm9rZTogIzAwMDAwMDsgc3Ryb2tlLXdpZHRoOiAwLjgiIHk9IjMwNy41ODQiIHg9IjM2NC42NjkwOTEiIHhsaW5rOmhyZWY9IiNtZTZkODZhOTJhNCIvPiYjeGE7ICAgICAgPC9nPiYjeGE7ICAgICA8L2c+JiN4YTsgICAgIDxnIGlkPSJ0ZXh0XzUiPiYjeGE7ICAgICAgJiN4YTsgICAgICA8ZyB0cmFuc2Zvcm09InRyYW5zbGF0ZSgzNTcuMDM0MDkxIDMyMy43MDIxMjUpIHNjYWxlKDAuMTIgLTAuMTIpIj4mI3hhOyAgICAgICA8ZGVmcz4mI3hhOyAgICAgICAgPHBhdGggdHJhbnNmb3JtPSJzY2FsZSgwLjAxNTYyNSkiIGQ9Ik0gNzk0IDUzMSAmIzEwO0wgMTgyNSA1MzEgJiMxMDtMIDE4MjUgNDA5MSAmIzEwO0wgNzAzIDM4NjYgJiMxMDtMIDcwMyA0NDQxICYjMTA7TCAxODE5IDQ2NjYgJiMxMDtMIDI0NTAgNDY2NiAmIzEwO0wgMjQ1MCA1MzEgJiMxMDtMIDM0ODEgNTMxICYjMTA7TCAzNDgxIDAgJiMxMDtMIDc5NCAwICYjMTA7TCA3OTQgNTMxICYjMTA7eiIgaWQ9IkRlamFWdVNhbnMtMzEiLz4mI3hhOyAgICAgICAgPHBhdGggdHJhbnNmb3JtPSJzY2FsZSgwLjAxNTYyNSkiIGQ9Ik0gMjAzNCA0MjUwICYjMTA7USAxNTQ3IDQyNTAgMTMwMSAzNzcwICYjMTA7USAxMDU2IDMyOTEgMTA1NiAyMzI4ICYjMTA7USAxMDU2IDEzNjkgMTMwMSA4ODkgJiMxMDtRIDE1NDcgNDA5IDIwMzQgNDA5ICYjMTA7USAyNTI1IDQwOSAyNzcwIDg4OSAmIzEwO1EgMzAxNiAxMzY5IDMwMTYgMjMyOCAmIzEwO1EgMzAxNiAzMjkxIDI3NzAgMzc3MCAmIzEwO1EgMjUyNSA0MjUwIDIwMzQgNDI1MCAmIzEwO3omIzEwO00gMjAzNCA0NzUwICYjMTA7USAyODE5IDQ3NTAgMzIzMyA0MTI5ICYjMTA7USAzNjQ3IDM1MDkgMzY0NyAyMzI4ICYjMTA7USAzNjQ3IDExNTAgMzIzMyA1MjkgJiMxMDtRIDI4MTkgLTkxIDIwMzQgLTkxICYjMTA7USAxMjUwIC05MSA4MzYgNTI5ICYjMTA7USA0MjIgMTE1MCA0MjIgMjMyOCAmIzEwO1EgNDIyIDM1MDkgODM2IDQxMjkgJiMxMDtRIDEyNTAgNDc1MCAyMDM0IDQ3NTAgJiMxMDt6IiBpZD0iRGVqYVZ1U2Fucy0zMCIvPiYjeGE7ICAgICAgIDwvZGVmcz4mI3hhOyAgICAgICA8dXNlIHhsaW5rOmhyZWY9IiNEZWphVnVTYW5zLTMxIi8+JiN4YTsgICAgICAgPHVzZSB4PSI2My42MjMwNDciIHhsaW5rOmhyZWY9IiNEZWphVnVTYW5zLTMwIi8+JiN4YTsgICAgICA8L2c+JiN4YTsgICAgIDwvZz4mI3hhOyAgICA8L2c+JiN4YTsgICAgPGcgaWQ9InRleHRfNiI+JiN4YTsgICAgICYjeGE7ICAgICA8ZyB0cmFuc2Zvcm09InRyYW5zbGF0ZSgxNjcuMjE3MTg3IDMzOS4zMTU4NzUpIHNjYWxlKDAuMTIgLTAuMTIpIj4mI3hhOyAgICAgIDxkZWZzPiYjeGE7ICAgICAgIDxwYXRoIHRyYW5zZm9ybT0ic2NhbGUoMC4wMTU2MjUpIiBkPSJNIDYyOCA0NjY2ICYjMTA7TCAxNDc4IDQ2NjYgJiMxMDtMIDM1NDcgNzYzICYjMTA7TCAzNTQ3IDQ2NjYgJiMxMDtMIDQxNTkgNDY2NiAmIzEwO0wgNDE1OSAwICYjMTA7TCAzMzA5IDAgJiMxMDtMIDEyNDEgMzkwMyAmIzEwO0wgMTI0MSAwICYjMTA7TCA2MjggMCAmIzEwO0wgNjI4IDQ2NjYgJiMxMDt6IiBpZD0iRGVqYVZ1U2Fucy00ZSIvPiYjeGE7ICAgICAgIDxwYXRoIHRyYW5zZm9ybT0ic2NhbGUoMC4wMTU2MjUpIiBkPSJNIDU0NCAxMzgxICYjMTA7TCA1NDQgMzUwMCAmIzEwO0wgMTExOSAzNTAwICYjMTA7TCAxMTE5IDE0MDMgJiMxMDtRIDExMTkgOTA2IDEzMTIgNjU3ICYjMTA7USAxNTA2IDQwOSAxODk0IDQwOSAmIzEwO1EgMjM1OSA0MDkgMjYyOSA3MDYgJiMxMDtRIDI5MDAgMTAwMyAyOTAwIDE1MTYgJiMxMDtMIDI5MDAgMzUwMCAmIzEwO0wgMzQ3NSAzNTAwICYjMTA7TCAzNDc1IDAgJiMxMDtMIDI5MDAgMCAmIzEwO0wgMjkwMCA1MzggJiMxMDtRIDI2OTEgMjE5IDI0MTQgNjQgJiMxMDtRIDIxMzggLTkxIDE3NzIgLTkxICYjMTA7USAxMTY5IC05MSA4NTYgMjg0ICYjMTA7USA1NDQgNjU5IDU0NCAxMzgxICYjMTA7eiYjMTA7TSAxOTkxIDM1ODQgJiMxMDtMIDE5OTEgMzU4NCAmIzEwO3oiIGlkPSJEZWphVnVTYW5zLTc1Ii8+JiN4YTsgICAgICAgPHBhdGggdHJhbnNmb3JtPSJzY2FsZSgwLjAxNTYyNSkiIGQ9Ik0gMzMyOCAyODI4ICYjMTA7USAzNTQ0IDMyMTYgMzg0NCAzNDAwICYjMTA7USA0MTQ0IDM1ODQgNDU1MCAzNTg0ICYjMTA7USA1MDk3IDM1ODQgNTM5NCAzMjAxICYjMTA7USA1NjkxIDI4MTkgNTY5MSAyMTEzICYjMTA7TCA1NjkxIDAgJiMxMDtMIDUxMTMgMCAmIzEwO0wgNTExMyAyMDk0ICYjMTA7USA1MTEzIDI1OTcgNDkzNCAyODQwICYjMTA7USA0NzU2IDMwODQgNDM5MSAzMDg0ICYjMTA7USAzOTQ0IDMwODQgMzY4NCAyNzg3ICYjMTA7USAzNDI1IDI0OTEgMzQyNSAxOTc4ICYjMTA7TCAzNDI1IDAgJiMxMDtMIDI4NDcgMCAmIzEwO0wgMjg0NyAyMDk0ICYjMTA7USAyODQ3IDI2MDAgMjY2OSAyODQyICYjMTA7USAyNDkxIDMwODQgMjExOSAzMDg0ICYjMTA7USAxNjc4IDMwODQgMTQxOCAyNzg2ICYjMTA7USAxMTU5IDI0ODggMTE1OSAxOTc4ICYjMTA7TCAxMTU5IDAgJiMxMDtMIDU4MSAwICYjMTA7TCA1ODEgMzUwMCAmIzEwO0wgMTE1OSAzNTAwICYjMTA7TCAxMTU5IDI5NTYgJiMxMDtRIDEzNTYgMzI3OCAxNjMxIDM0MzEgJiMxMDtRIDE5MDYgMzU4NCAyMjg0IDM1ODQgJiMxMDtRIDI2NjYgMzU4NCAyOTMzIDMzOTAgJiMxMDtRIDMyMDAgMzE5NyAzMzI4IDI4MjggJiMxMDt6IiBpZD0iRGVqYVZ1U2Fucy02ZCIvPiYjeGE7ICAgICAgIDxwYXRoIHRyYW5zZm9ybT0ic2NhbGUoMC4wMTU2MjUpIiBkPSJNIDMxMTYgMTc0NyAmIzEwO1EgMzExNiAyMzgxIDI4NTUgMjc0MiAmIzEwO1EgMjU5NCAzMTAzIDIxMzggMzEwMyAmIzEwO1EgMTY4MSAzMTAzIDE0MjAgMjc0MiAmIzEwO1EgMTE1OSAyMzgxIDExNTkgMTc0NyAmIzEwO1EgMTE1OSAxMTEzIDE0MjAgNzUyICYjMTA7USAxNjgxIDM5MSAyMTM4IDM5MSAmIzEwO1EgMjU5NCAzOTEgMjg1NSA3NTIgJiMxMDtRIDMxMTYgMTExMyAzMTE2IDE3NDcgJiMxMDt6JiMxMDtNIDExNTkgMjk2OSAmIzEwO1EgMTM0MSAzMjgxIDE2MTcgMzQzMiAmIzEwO1EgMTg5NCAzNTg0IDIyNzggMzU4NCAmIzEwO1EgMjkxNiAzNTg0IDMzMTQgMzA3OCAmIzEwO1EgMzcxMyAyNTcyIDM3MTMgMTc0NyAmIzEwO1EgMzcxMyA5MjIgMzMxNCA0MTUgJiMxMDtRIDI5MTYgLTkxIDIyNzggLTkxICYjMTA7USAxODk0IC05MSAxNjE3IDYxICYjMTA7USAxMzQxIDIxMyAxMTU5IDUyNSAmIzEwO0wgMTE1OSAwICYjMTA7TCA1ODEgMCAmIzEwO0wgNTgxIDQ4NjMgJiMxMDtMIDExNTkgNDg2MyAmIzEwO0wgMTE1OSAyOTY5ICYjMTA7eiIgaWQ9IkRlamFWdVNhbnMtNjIiLz4mI3hhOyAgICAgICA8cGF0aCB0cmFuc2Zvcm09InNjYWxlKDAuMDE1NjI1KSIgZD0iTSAzNTk3IDE4OTQgJiMxMDtMIDM1OTcgMTYxMyAmIzEwO0wgOTUzIDE2MTMgJiMxMDtRIDk5MSAxMDE5IDEzMTEgNzA4ICYjMTA7USAxNjMxIDM5NyAyMjAzIDM5NyAmIzEwO1EgMjUzNCAzOTcgMjg0NSA0NzggJiMxMDtRIDMxNTYgNTU5IDM0NjMgNzIyICYjMTA7TCAzNDYzIDE3OCAmIzEwO1EgMzE1MyA0NyAyODI4IC0yMiAmIzEwO1EgMjUwMyAtOTEgMjE2OSAtOTEgJiMxMDtRIDEzMzEgLTkxIDg0MiAzOTYgJiMxMDtRIDM1MyA4ODQgMzUzIDE3MTYgJiMxMDtRIDM1MyAyNTc1IDgxNyAzMDc5ICYjMTA7USAxMjgxIDM1ODQgMjA2OSAzNTg0ICYjMTA7USAyNzc1IDM1ODQgMzE4NiAzMTI5ICYjMTA7USAzNTk3IDI2NzUgMzU5NyAxODk0ICYjMTA7eiYjMTA7TSAzMDIyIDIwNjMgJiMxMDtRIDMwMTYgMjUzNCAyNzU4IDI4MTUgJiMxMDtRIDI1MDAgMzA5NyAyMDc1IDMwOTcgJiMxMDtRIDE1OTQgMzA5NyAxMzA1IDI4MjUgJiMxMDtRIDEwMTYgMjU1MyA5NzIgMjA1OSAmIzEwO0wgMzAyMiAyMDYzICYjMTA7eiIgaWQ9IkRlamFWdVNhbnMtNjUiLz4mI3hhOyAgICAgICA8cGF0aCB0cmFuc2Zvcm09InNjYWxlKDAuMDE1NjI1KSIgZD0iTSAyNjMxIDI5NjMgJiMxMDtRIDI1MzQgMzAxOSAyNDIwIDMwNDUgJiMxMDtRIDIzMDYgMzA3MiAyMTY5IDMwNzIgJiMxMDtRIDE2ODEgMzA3MiAxNDIwIDI3NTUgJiMxMDtRIDExNTkgMjQzOCAxMTU5IDE4NDQgJiMxMDtMIDExNTkgMCAmIzEwO0wgNTgxIDAgJiMxMDtMIDU4MSAzNTAwICYjMTA7TCAxMTU5IDM1MDAgJiMxMDtMIDExNTkgMjk1NiAmIzEwO1EgMTM0MSAzMjc1IDE2MzEgMzQyOSAmIzEwO1EgMTkyMiAzNTg0IDIzMzggMzU4NCAmIzEwO1EgMjM5NyAzNTg0IDI0NjkgMzU3NiAmIzEwO1EgMjU0MSAzNTY5IDI2MjggMzU1MyAmIzEwO0wgMjYzMSAyOTYzICYjMTA7eiIgaWQ9IkRlamFWdVNhbnMtNzIiLz4mI3hhOyAgICAgICA8cGF0aCB0cmFuc2Zvcm09InNjYWxlKDAuMDE1NjI1KSIgaWQ9IkRlamFWdVNhbnMtMjAiLz4mI3hhOyAgICAgICA8cGF0aCB0cmFuc2Zvcm09InNjYWxlKDAuMDE1NjI1KSIgZD0iTSAxOTU5IDMwOTcgJiMxMDtRIDE0OTcgMzA5NyAxMjI4IDI3MzYgJiMxMDtRIDk1OSAyMzc1IDk1OSAxNzQ3ICYjMTA7USA5NTkgMTExOSAxMjI2IDc1OCAmIzEwO1EgMTQ5NCAzOTcgMTk1OSAzOTcgJiMxMDtRIDI0MTkgMzk3IDI2ODcgNzU5ICYjMTA7USAyOTU2IDExMjIgMjk1NiAxNzQ3ICYjMTA7USAyOTU2IDIzNjkgMjY4NyAyNzMzICYjMTA7USAyNDE5IDMwOTcgMTk1OSAzMDk3ICYjMTA7eiYjMTA7TSAxOTU5IDM1ODQgJiMxMDtRIDI3MDkgMzU4NCAzMTM3IDMwOTYgJiMxMDtRIDM1NjYgMjYwOSAzNTY2IDE3NDcgJiMxMDtRIDM1NjYgODg4IDMxMzcgMzk4ICYjMTA7USAyNzA5IC05MSAxOTU5IC05MSAmIzEwO1EgMTIwNiAtOTEgNzc5IDM5OCAmIzEwO1EgMzUzIDg4OCAzNTMgMTc0NyAmIzEwO1EgMzUzIDI2MDkgNzc5IDMwOTYgJiMxMDtRIDEyMDYgMzU4NCAxOTU5IDM1ODQgJiMxMDt6IiBpZD0iRGVqYVZ1U2Fucy02ZiIvPiYjeGE7ICAgICAgIDxwYXRoIHRyYW5zZm9ybT0ic2NhbGUoMC4wMTU2MjUpIiBkPSJNIDIzNzUgNDg2MyAmIzEwO0wgMjM3NSA0Mzg0ICYjMTA7TCAxODI1IDQzODQgJiMxMDtRIDE1MTYgNDM4NCAxMzk1IDQyNTkgJiMxMDtRIDEyNzUgNDEzNCAxMjc1IDM4MDkgJiMxMDtMIDEyNzUgMzUwMCAmIzEwO0wgMjIyMiAzNTAwICYjMTA7TCAyMjIyIDMwNTMgJiMxMDtMIDEyNzUgMzA1MyAmIzEwO0wgMTI3NSAwICYjMTA7TCA2OTcgMCAmIzEwO0wgNjk3IDMwNTMgJiMxMDtMIDE0NyAzMDUzICYjMTA7TCAxNDcgMzUwMCAmIzEwO0wgNjk3IDM1MDAgJiMxMDtMIDY5NyAzNzQ0ICYjMTA7USA2OTcgNDMyOCA5NjkgNDU5NSAmIzEwO1EgMTI0MSA0ODYzIDE4MzEgNDg2MyAmIzEwO0wgMjM3NSA0ODYzICYjMTA7eiIgaWQ9IkRlamFWdVNhbnMtNjYiLz4mI3hhOyAgICAgICA8cGF0aCB0cmFuc2Zvcm09InNjYWxlKDAuMDE1NjI1KSIgZD0iTSAxMjU5IDQxNDcgJiMxMDtMIDEyNTkgMjM5NCAmIzEwO0wgMjA1MyAyMzk0ICYjMTA7USAyNDk0IDIzOTQgMjczNCAyNjIyICYjMTA7USAyOTc1IDI4NTAgMjk3NSAzMjcyICYjMTA7USAyOTc1IDM2OTEgMjczNCAzOTE5ICYjMTA7USAyNDk0IDQxNDcgMjA1MyA0MTQ3ICYjMTA7TCAxMjU5IDQxNDcgJiMxMDt6JiMxMDtNIDYyOCA0NjY2ICYjMTA7TCAyMDUzIDQ2NjYgJiMxMDtRIDI4MzggNDY2NiAzMjM5IDQzMTEgJiMxMDtRIDM2NDEgMzk1NiAzNjQxIDMyNzIgJiMxMDtRIDM2NDEgMjU4MSAzMjM5IDIyMjggJiMxMDtRIDI4MzggMTg3NSAyMDUzIDE4NzUgJiMxMDtMIDEyNTkgMTg3NSAmIzEwO0wgMTI1OSAwICYjMTA7TCA2MjggMCAmIzEwO0wgNjI4IDQ2NjYgJiMxMDt6IiBpZD0iRGVqYVZ1U2Fucy01MCIvPiYjeGE7ICAgICAgIDxwYXRoIHRyYW5zZm9ybT0ic2NhbGUoMC4wMTU2MjUpIiBkPSJNIDIxOTQgMTc1OSAmIzEwO1EgMTQ5NyAxNzU5IDEyMjggMTYwMCAmIzEwO1EgOTU5IDE0NDEgOTU5IDEwNTYgJiMxMDtRIDk1OSA3NTAgMTE2MSA1NzAgJiMxMDtRIDEzNjMgMzkxIDE3MDkgMzkxICYjMTA7USAyMTg4IDM5MSAyNDc3IDczMCAmIzEwO1EgMjc2NiAxMDY5IDI3NjYgMTYzMSAmIzEwO0wgMjc2NiAxNzU5ICYjMTA7TCAyMTk0IDE3NTkgJiMxMDt6JiMxMDtNIDMzNDEgMTk5NyAmIzEwO0wgMzM0MSAwICYjMTA7TCAyNzY2IDAgJiMxMDtMIDI3NjYgNTMxICYjMTA7USAyNTY5IDIxMyAyMjc1IDYxICYjMTA7USAxOTgxIC05MSAxNTU2IC05MSAmIzEwO1EgMTAxOSAtOTEgNzAxIDIxMSAmIzEwO1EgMzg0IDUxMyAzODQgMTAxOSAmIzEwO1EgMzg0IDE2MDkgNzc5IDE5MDkgJiMxMDtRIDExNzUgMjIwOSAxOTU5IDIyMDkgJiMxMDtMIDI3NjYgMjIwOSAmIzEwO0wgMjc2NiAyMjY2ICYjMTA7USAyNzY2IDI2NjMgMjUwNSAyODgwICYjMTA7USAyMjQ0IDMwOTcgMTc3MiAzMDk3ICYjMTA7USAxNDcyIDMwOTcgMTE4NyAzMDI1ICYjMTA7USA5MDMgMjk1MyA2NDEgMjgwOSAmIzEwO0wgNjQxIDMzNDEgJiMxMDtRIDk1NiAzNDYzIDEyNTMgMzUyMyAmIzEwO1EgMTU1MCAzNTg0IDE4MzEgMzU4NCAmIzEwO1EgMjU5MSAzNTg0IDI5NjYgMzE5MCAmIzEwO1EgMzM0MSAyNzk3IDMzNDEgMTk5NyAmIzEwO3oiIGlkPSJEZWphVnVTYW5zLTYxIi8+JiN4YTsgICAgICAgPHBhdGggdHJhbnNmb3JtPSJzY2FsZSgwLjAxNTYyNSkiIGQ9Ik0gMTE3MiA0NDk0ICYjMTA7TCAxMTcyIDM1MDAgJiMxMDtMIDIzNTYgMzUwMCAmIzEwO0wgMjM1NiAzMDUzICYjMTA7TCAxMTcyIDMwNTMgJiMxMDtMIDExNzIgMTE1MyAmIzEwO1EgMTE3MiA3MjUgMTI4OSA2MDMgJiMxMDtRIDE0MDYgNDgxIDE3NjYgNDgxICYjMTA7TCAyMzU2IDQ4MSAmIzEwO0wgMjM1NiAwICYjMTA7TCAxNzY2IDAgJiMxMDtRIDExMDAgMCA4NDcgMjQ4ICYjMTA7USA1OTQgNDk3IDU5NCAxMTUzICYjMTA7TCA1OTQgMzA1MyAmIzEwO0wgMTcyIDMwNTMgJiMxMDtMIDE3MiAzNTAwICYjMTA7TCA1OTQgMzUwMCAmIzEwO0wgNTk0IDQ0OTQgJiMxMDtMIDExNzIgNDQ5NCAmIzEwO3oiIGlkPSJEZWphVnVTYW5zLTc0Ii8+JiN4YTsgICAgICAgPHBhdGggdHJhbnNmb3JtPSJzY2FsZSgwLjAxNTYyNSkiIGQ9Ik0gNjAzIDM1MDAgJiMxMDtMIDExNzggMzUwMCAmIzEwO0wgMTE3OCAwICYjMTA7TCA2MDMgMCAmIzEwO0wgNjAzIDM1MDAgJiMxMDt6JiMxMDtNIDYwMyA0ODYzICYjMTA7TCAxMTc4IDQ4NjMgJiMxMDtMIDExNzggNDEzNCAmIzEwO0wgNjAzIDQxMzQgJiMxMDtMIDYwMyA0ODYzICYjMTA7eiIgaWQ9IkRlamFWdVNhbnMtNjkiLz4mI3hhOyAgICAgICA8cGF0aCB0cmFuc2Zvcm09InNjYWxlKDAuMDE1NjI1KSIgZD0iTSAzMTIyIDMzNjYgJiMxMDtMIDMxMjIgMjgyOCAmIzEwO1EgMjg3OCAyOTYzIDI2MzMgMzAzMCAmIzEwO1EgMjM4OCAzMDk3IDIxMzggMzA5NyAmIzEwO1EgMTU3OCAzMDk3IDEyNjggMjc0MiAmIzEwO1EgOTU5IDIzODggOTU5IDE3NDcgJiMxMDtRIDk1OSAxMTA2IDEyNjggNzUxICYjMTA7USAxNTc4IDM5NyAyMTM4IDM5NyAmIzEwO1EgMjM4OCAzOTcgMjYzMyA0NjQgJiMxMDtRIDI4NzggNTMxIDMxMjIgNjY2ICYjMTA7TCAzMTIyIDEzNCAmIzEwO1EgMjg4MSAyMiAyNjIzIC0zNCAmIzEwO1EgMjM2NiAtOTEgMjA3NSAtOTEgJiMxMDtRIDEyODQgLTkxIDgxOCA0MDYgJiMxMDtRIDM1MyA5MDMgMzUzIDE3NDcgJiMxMDtRIDM1MyAyNjAzIDgyMyAzMDkzICYjMTA7USAxMjk0IDM1ODQgMjExMyAzNTg0ICYjMTA7USAyMzc4IDM1ODQgMjYzMSAzNTI5ICYjMTA7USAyODg0IDM0NzUgMzEyMiAzMzY2ICYjMTA7eiIgaWQ9IkRlamFWdVNhbnMtNjMiLz4mI3hhOyAgICAgICA8cGF0aCB0cmFuc2Zvcm09InNjYWxlKDAuMDE1NjI1KSIgZD0iTSAxMTU5IDUyNSAmIzEwO0wgMTE1OSAtMTMzMSAmIzEwO0wgNTgxIC0xMzMxICYjMTA7TCA1ODEgMzUwMCAmIzEwO0wgMTE1OSAzNTAwICYjMTA7TCAxMTU5IDI5NjkgJiMxMDtRIDEzNDEgMzI4MSAxNjE3IDM0MzIgJiMxMDtRIDE4OTQgMzU4NCAyMjc4IDM1ODQgJiMxMDtRIDI5MTYgMzU4NCAzMzE0IDMwNzggJiMxMDtRIDM3MTMgMjU3MiAzNzEzIDE3NDcgJiMxMDtRIDM3MTMgOTIyIDMzMTQgNDE1ICYjMTA7USAyOTE2IC05MSAyMjc4IC05MSAmIzEwO1EgMTg5NCAtOTEgMTYxNyA2MSAmIzEwO1EgMTM0MSAyMTMgMTE1OSA1MjUgJiMxMDt6JiMxMDtNIDMxMTYgMTc0NyAmIzEwO1EgMzExNiAyMzgxIDI4NTUgMjc0MiAmIzEwO1EgMjU5NCAzMTAzIDIxMzggMzEwMyAmIzEwO1EgMTY4MSAzMTAzIDE0MjAgMjc0MiAmIzEwO1EgMTE1OSAyMzgxIDExNTkgMTc0NyAmIzEwO1EgMTE1OSAxMTEzIDE0MjAgNzUyICYjMTA7USAxNjgxIDM5MSAyMTM4IDM5MSAmIzEwO1EgMjU5NCAzOTEgMjg1NSA3NTIgJiMxMDtRIDMxMTYgMTExMyAzMTE2IDE3NDcgJiMxMDt6IiBpZD0iRGVqYVZ1U2Fucy03MCIvPiYjeGE7ICAgICAgIDxwYXRoIHRyYW5zZm9ybT0ic2NhbGUoMC4wMTU2MjUpIiBkPSJNIDM1MTMgMjExMyAmIzEwO0wgMzUxMyAwICYjMTA7TCAyOTM4IDAgJiMxMDtMIDI5MzggMjA5NCAmIzEwO1EgMjkzOCAyNTkxIDI3NDQgMjgzNyAmIzEwO1EgMjU1MCAzMDg0IDIxNjMgMzA4NCAmIzEwO1EgMTY5NyAzMDg0IDE0MjggMjc4NyAmIzEwO1EgMTE1OSAyNDkxIDExNTkgMTk3OCAmIzEwO0wgMTE1OSAwICYjMTA7TCA1ODEgMCAmIzEwO0wgNTgxIDM1MDAgJiMxMDtMIDExNTkgMzUwMCAmIzEwO0wgMTE1OSAyOTU2ICYjMTA7USAxMzY2IDMyNzIgMTY0NSAzNDI4ICYjMTA7USAxOTI1IDM1ODQgMjI5MSAzNTg0ICYjMTA7USAyODk0IDM1ODQgMzIwMyAzMjExICYjMTA7USAzNTEzIDI4MzggMzUxMyAyMTEzICYjMTA7eiIgaWQ9IkRlamFWdVNhbnMtNmUiLz4mI3hhOyAgICAgICA8cGF0aCB0cmFuc2Zvcm09InNjYWxlKDAuMDE1NjI1KSIgZD0iTSAyODM0IDMzOTcgJiMxMDtMIDI4MzQgMjg1MyAmIzEwO1EgMjU5MSAyOTc4IDIzMjggMzA0MCAmIzEwO1EgMjA2NiAzMTAzIDE3ODQgMzEwMyAmIzEwO1EgMTM1NiAzMTAzIDExNDIgMjk3MiAmIzEwO1EgOTI4IDI4NDEgOTI4IDI1NzggJiMxMDtRIDkyOCAyMzc4IDEwODEgMjI2NCAmIzEwO1EgMTIzNCAyMTUwIDE2OTcgMjA0NyAmIzEwO0wgMTg5NCAyMDAzICYjMTA7USAyNTA2IDE4NzIgMjc2NCAxNjMzICYjMTA7USAzMDIyIDEzOTQgMzAyMiA5NjYgJiMxMDtRIDMwMjIgNDc4IDI2MzYgMTkzICYjMTA7USAyMjUwIC05MSAxNTc1IC05MSAmIzEwO1EgMTI5NCAtOTEgOTg5IC0zNiAmIzEwO1EgNjg0IDE5IDM0NyAxMjggJiMxMDtMIDM0NyA3MjIgJiMxMDtRIDY2NiA1NTYgOTc1IDQ3MyAmIzEwO1EgMTI4NCAzOTEgMTU4OCAzOTEgJiMxMDtRIDE5OTQgMzkxIDIyMTIgNTMwICYjMTA7USAyNDMxIDY2OSAyNDMxIDkyMiAmIzEwO1EgMjQzMSAxMTU2IDIyNzMgMTI4MSAmIzEwO1EgMjExNiAxNDA2IDE1ODEgMTUyMiAmIzEwO0wgMTM4MSAxNTY5ICYjMTA7USA4NDcgMTY4MSA2MDkgMTkxNCAmIzEwO1EgMzcyIDIxNDcgMzcyIDI1NTMgJiMxMDtRIDM3MiAzMDQ3IDcyMiAzMzE1ICYjMTA7USAxMDcyIDM1ODQgMTcxNiAzNTg0ICYjMTA7USAyMDM0IDM1ODQgMjMxNSAzNTM3ICYjMTA7USAyNTk3IDM0OTEgMjgzNCAzMzk3ICYjMTA7eiIgaWQ9IkRlamFWdVNhbnMtNzMiLz4mI3hhOyAgICAgIDwvZGVmcz4mI3hhOyAgICAgIDx1c2UgeGxpbms6aHJlZj0iI0RlamFWdVNhbnMtNGUiLz4mI3hhOyAgICAgIDx1c2UgeD0iNzQuODA0Njg4IiB4bGluazpocmVmPSIjRGVqYVZ1U2Fucy03NSIvPiYjeGE7ICAgICAgPHVzZSB4PSIxMzguMTgzNTk0IiB4bGluazpocmVmPSIjRGVqYVZ1U2Fucy02ZCIvPiYjeGE7ICAgICAgPHVzZSB4PSIyMzUuNTk1NzAzIiB4bGluazpocmVmPSIjRGVqYVZ1U2Fucy02MiIvPiYjeGE7ICAgICAgPHVzZSB4PSIyOTkuMDcyMjY2IiB4bGluazpocmVmPSIjRGVqYVZ1U2Fucy02NSIvPiYjeGE7ICAgICAgPHVzZSB4PSIzNjAuNTk1NzAzIiB4bGluazpocmVmPSIjRGVqYVZ1U2Fucy03MiIvPiYjeGE7ICAgICAgPHVzZSB4PSI0MDEuNzA4OTg0IiB4bGluazpocmVmPSIjRGVqYVZ1U2Fucy0yMCIvPiYjeGE7ICAgICAgPHVzZSB4PSI0MzMuNDk2MDk0IiB4bGluazpocmVmPSIjRGVqYVZ1U2Fucy02ZiIvPiYjeGE7ICAgICAgPHVzZSB4PSI0OTQuNjc3NzM0IiB4bGluazpocmVmPSIjRGVqYVZ1U2Fucy02NiIvPiYjeGE7ICAgICAgPHVzZSB4PSI1MjkuODgyODEyIiB4bGluazpocmVmPSIjRGVqYVZ1U2Fucy0yMCIvPiYjeGE7ICAgICAgPHVzZSB4PSI1NjEuNjY5OTIyIiB4bGluazpocmVmPSIjRGVqYVZ1U2Fucy01MCIvPiYjeGE7ICAgICAgPHVzZSB4PSI2MTcuNDcyNjU2IiB4bGluazpocmVmPSIjRGVqYVZ1U2Fucy02MSIvPiYjeGE7ICAgICAgPHVzZSB4PSI2NzguNzUxOTUzIiB4bGluazpocmVmPSIjRGVqYVZ1U2Fucy03MiIvPiYjeGE7ICAgICAgPHVzZSB4PSI3MTkuODY1MjM0IiB4bGluazpocmVmPSIjRGVqYVZ1U2Fucy03NCIvPiYjeGE7ICAgICAgPHVzZSB4PSI3NTkuMDc0MjE5IiB4bGluazpocmVmPSIjRGVqYVZ1U2Fucy02OSIvPiYjeGE7ICAgICAgPHVzZSB4PSI3ODYuODU3NDIyIiB4bGluazpocmVmPSIjRGVqYVZ1U2Fucy02MyIvPiYjeGE7ICAgICAgPHVzZSB4PSI4NDEuODM3ODkxIiB4bGluazpocmVmPSIjRGVqYVZ1U2Fucy02OSIvPiYjeGE7ICAgICAgPHVzZSB4PSI4NjkuNjIxMDk0IiB4bGluazpocmVmPSIjRGVqYVZ1U2Fucy03MCIvPiYjeGE7ICAgICAgPHVzZSB4PSI5MzMuMDk3NjU2IiB4bGluazpocmVmPSIjRGVqYVZ1U2Fucy02MSIvPiYjeGE7ICAgICAgPHVzZSB4PSI5OTQuMzc2OTUzIiB4bGluazpocmVmPSIjRGVqYVZ1U2Fucy02ZSIvPiYjeGE7ICAgICAgPHVzZSB4PSIxMDU3Ljc1NTg1OSIgeGxpbms6aHJlZj0iI0RlamFWdVNhbnMtNzQiLz4mI3hhOyAgICAgIDx1c2UgeD0iMTA5Ni45NjQ4NDQiIHhsaW5rOmhyZWY9IiNEZWphVnVTYW5zLTczIi8+JiN4YTsgICAgIDwvZz4mI3hhOyAgICA8L2c+JiN4YTsgICA8L2c+JiN4YTsgICA8ZyBpZD0ibWF0cGxvdGxpYi5heGlzXzIiPiYjeGE7ICAgIDxnIGlkPSJ5dGlja18xIj4mI3hhOyAgICAgPGcgaWQ9ImxpbmUyZF82Ij4mI3hhOyAgICAgIDxkZWZzPiYjeGE7ICAgICAgIDxwYXRoIHN0eWxlPSJzdHJva2U6ICMwMDAwMDA7IHN0cm9rZS13aWR0aDogMC44IiBkPSJNIDAgMCAmIzEwO0wgLTMuNSAwIiBpZD0ibTIxZGQxYTI5NTMiLz4mI3hhOyAgICAgIDwvZGVmcz4mI3hhOyAgICAgIDxnPiYjeGE7ICAgICAgIDx1c2Ugc3R5bGU9InN0cm9rZTogIzAwMDAwMDsgc3Ryb2tlLXdpZHRoOiAwLjgiIHk9IjMwNy41ODQiIHg9IjU3LjYiIHhsaW5rOmhyZWY9IiNtMjFkZDFhMjk1MyIvPiYjeGE7ICAgICAgPC9nPiYjeGE7ICAgICA8L2c+JiN4YTsgICAgIDxnIGlkPSJ0ZXh0XzciPiYjeGE7ICAgICAgJiN4YTsgICAgICA8ZyB0cmFuc2Zvcm09InRyYW5zbGF0ZSg0Mi45NjUgMzEyLjE0MzA2Mikgc2NhbGUoMC4xMiAtMC4xMikiPiYjeGE7ICAgICAgIDx1c2UgeGxpbms6aHJlZj0iI0RlamFWdVNhbnMtMzAiLz4mI3hhOyAgICAgIDwvZz4mI3hhOyAgICAgPC9nPiYjeGE7ICAgIDwvZz4mI3hhOyAgICA8ZyBpZD0ieXRpY2tfMiI+JiN4YTsgICAgIDxnIGlkPSJsaW5lMmRfNyI+JiN4YTsgICAgICA8Zz4mI3hhOyAgICAgICA8dXNlIHN0eWxlPSJzdHJva2U6ICMwMDAwMDA7IHN0cm9rZS13aWR0aDogMC44IiB5PSIyNjEuNTk3OTYzIiB4PSI1Ny42IiB4bGluazpocmVmPSIjbTIxZGQxYTI5NTMiLz4mI3hhOyAgICAgIDwvZz4mI3hhOyAgICAgPC9nPiYjeGE7ICAgICA8ZyBpZD0idGV4dF84Ij4mI3hhOyAgICAgICYjeGE7ICAgICAgPGcgdHJhbnNmb3JtPSJ0cmFuc2xhdGUoNDIuOTY1IDI2Ni4xNTcwMjUpIHNjYWxlKDAuMTIgLTAuMTIpIj4mI3hhOyAgICAgICA8dXNlIHhsaW5rOmhyZWY9IiNEZWphVnVTYW5zLTMxIi8+JiN4YTsgICAgICA8L2c+JiN4YTsgICAgIDwvZz4mI3hhOyAgICA8L2c+JiN4YTsgICAgPGcgaWQ9Inl0aWNrXzMiPiYjeGE7ICAgICA8ZyBpZD0ibGluZTJkXzgiPiYjeGE7ICAgICAgPGc+JiN4YTsgICAgICAgPHVzZSBzdHlsZT0ic3Ryb2tlOiAjMDAwMDAwOyBzdHJva2Utd2lkdGg6IDAuOCIgeT0iMjE1LjYxMTkyNSIgeD0iNTcuNiIgeGxpbms6aHJlZj0iI20yMWRkMWEyOTUzIi8+JiN4YTsgICAgICA8L2c+JiN4YTsgICAgIDwvZz4mI3hhOyAgICAgPGcgaWQ9InRleHRfOSI+JiN4YTsgICAgICAmI3hhOyAgICAgIDxnIHRyYW5zZm9ybT0idHJhbnNsYXRlKDQyLjk2NSAyMjAuMTcwOTg4KSBzY2FsZSgwLjEyIC0wLjEyKSI+JiN4YTsgICAgICAgPHVzZSB4bGluazpocmVmPSIjRGVqYVZ1U2Fucy0zMiIvPiYjeGE7ICAgICAgPC9nPiYjeGE7ICAgICA8L2c+JiN4YTsgICAgPC9nPiYjeGE7ICAgIDxnIGlkPSJ5dGlja180Ij4mI3hhOyAgICAgPGcgaWQ9ImxpbmUyZF85Ij4mI3hhOyAgICAgIDxnPiYjeGE7ICAgICAgIDx1c2Ugc3R5bGU9InN0cm9rZTogIzAwMDAwMDsgc3Ryb2tlLXdpZHRoOiAwLjgiIHk9IjE2OS42MjU4ODgiIHg9IjU3LjYiIHhsaW5rOmhyZWY9IiNtMjFkZDFhMjk1MyIvPiYjeGE7ICAgICAgPC9nPiYjeGE7ICAgICA8L2c+JiN4YTsgICAgIDxnIGlkPSJ0ZXh0XzEwIj4mI3hhOyAgICAgICYjeGE7ICAgICAgPGcgdHJhbnNmb3JtPSJ0cmFuc2xhdGUoNDIuOTY1IDE3NC4xODQ5NTEpIHNjYWxlKDAuMTIgLTAuMTIpIj4mI3hhOyAgICAgICA8dXNlIHhsaW5rOmhyZWY9IiNEZWphVnVTYW5zLTMzIi8+JiN4YTsgICAgICA8L2c+JiN4YTsgICAgIDwvZz4mI3hhOyAgICA8L2c+JiN4YTsgICAgPGcgaWQ9Inl0aWNrXzUiPiYjeGE7ICAgICA8ZyBpZD0ibGluZTJkXzEwIj4mI3hhOyAgICAgIDxnPiYjeGE7ICAgICAgIDx1c2Ugc3R5bGU9InN0cm9rZTogIzAwMDAwMDsgc3Ryb2tlLXdpZHRoOiAwLjgiIHk9IjEyMy42Mzk4NTEiIHg9IjU3LjYiIHhsaW5rOmhyZWY9IiNtMjFkZDFhMjk1MyIvPiYjeGE7ICAgICAgPC9nPiYjeGE7ICAgICA8L2c+JiN4YTsgICAgIDxnIGlkPSJ0ZXh0XzExIj4mI3hhOyAgICAgICYjeGE7ICAgICAgPGcgdHJhbnNmb3JtPSJ0cmFuc2xhdGUoNDIuOTY1IDEyOC4xOTg5MTMpIHNjYWxlKDAuMTIgLTAuMTIpIj4mI3hhOyAgICAgICA8ZGVmcz4mI3hhOyAgICAgICAgPHBhdGggdHJhbnNmb3JtPSJzY2FsZSgwLjAxNTYyNSkiIGQ9Ik0gMjQxOSA0MTE2ICYjMTA7TCA4MjUgMTYyNSAmIzEwO0wgMjQxOSAxNjI1ICYjMTA7TCAyNDE5IDQxMTYgJiMxMDt6JiMxMDtNIDIyNTMgNDY2NiAmIzEwO0wgMzA0NyA0NjY2ICYjMTA7TCAzMDQ3IDE2MjUgJiMxMDtMIDM3MTMgMTYyNSAmIzEwO0wgMzcxMyAxMTAwICYjMTA7TCAzMDQ3IDExMDAgJiMxMDtMIDMwNDcgMCAmIzEwO0wgMjQxOSAwICYjMTA7TCAyNDE5IDExMDAgJiMxMDtMIDMxMyAxMTAwICYjMTA7TCAzMTMgMTcwOSAmIzEwO0wgMjI1MyA0NjY2ICYjMTA7eiIgaWQ9IkRlamFWdVNhbnMtMzQiLz4mI3hhOyAgICAgICA8L2RlZnM+JiN4YTsgICAgICAgPHVzZSB4bGluazpocmVmPSIjRGVqYVZ1U2Fucy0zNCIvPiYjeGE7ICAgICAgPC9nPiYjeGE7ICAgICA8L2c+JiN4YTsgICAgPC9nPiYjeGE7ICAgIDxnIGlkPSJ5dGlja182Ij4mI3hhOyAgICAgPGcgaWQ9ImxpbmUyZF8xMSI+JiN4YTsgICAgICA8Zz4mI3hhOyAgICAgICA8dXNlIHN0eWxlPSJzdHJva2U6ICMwMDAwMDA7IHN0cm9rZS13aWR0aDogMC44IiB5PSI3Ny42NTM4MTQiIHg9IjU3LjYiIHhsaW5rOmhyZWY9IiNtMjFkZDFhMjk1MyIvPiYjeGE7ICAgICAgPC9nPiYjeGE7ICAgICA8L2c+JiN4YTsgICAgIDxnIGlkPSJ0ZXh0XzEyIj4mI3hhOyAgICAgICYjeGE7ICAgICAgPGcgdHJhbnNmb3JtPSJ0cmFuc2xhdGUoNDIuOTY1IDgyLjIxMjg3Nikgc2NhbGUoMC4xMiAtMC4xMikiPiYjeGE7ICAgICAgIDx1c2UgeGxpbms6aHJlZj0iI0RlamFWdVNhbnMtMzUiLz4mI3hhOyAgICAgIDwvZz4mI3hhOyAgICAgPC9nPiYjeGE7ICAgIDwvZz4mI3hhOyAgICA8ZyBpZD0idGV4dF8xMyI+JiN4YTsgICAgICYjeGE7ICAgICA8ZyB0cmFuc2Zvcm09InRyYW5zbGF0ZSgzNi40NjkzNzUgMjg5LjU5NzY4OCkgcm90YXRlKC05MCkgc2NhbGUoMC4xMiAtMC4xMikiPiYjeGE7ICAgICAgPGRlZnM+JiN4YTsgICAgICAgPHBhdGggdHJhbnNmb3JtPSJzY2FsZSgwLjAxNTYyNSkiIGQ9Ik0gLTE5IDQ2NjYgJiMxMDtMIDM5MjggNDY2NiAmIzEwO0wgMzkyOCA0MTM0ICYjMTA7TCAyMjcyIDQxMzQgJiMxMDtMIDIyNzIgMCAmIzEwO0wgMTYzOCAwICYjMTA7TCAxNjM4IDQxMzQgJiMxMDtMIC0xOSA0MTM0ICYjMTA7TCAtMTkgNDY2NiAmIzEwO3oiIGlkPSJEZWphVnVTYW5zLTU0Ii8+JiN4YTsgICAgICAgPHBhdGggdHJhbnNmb3JtPSJzY2FsZSgwLjAxNTYyNSkiIGQ9Ik0gNTgxIDQ4NjMgJiMxMDtMIDExNTkgNDg2MyAmIzEwO0wgMTE1OSAxOTkxICYjMTA7TCAyODc1IDM1MDAgJiMxMDtMIDM2MDkgMzUwMCAmIzEwO0wgMTc1MyAxODYzICYjMTA7TCAzNjg4IDAgJiMxMDtMIDI5MzggMCAmIzEwO0wgMTE1OSAxNzA5ICYjMTA7TCAxMTU5IDAgJiMxMDtMIDU4MSAwICYjMTA7TCA1ODEgNDg2MyAmIzEwO3oiIGlkPSJEZWphVnVTYW5zLTZiIi8+JiN4YTsgICAgICAgPHBhdGggdHJhbnNmb3JtPSJzY2FsZSgwLjAxNTYyNSkiIGQ9Ik0gNDEyMiA0MzA2ICYjMTA7TCA0MTIyIDM2NDEgJiMxMDtRIDM4MDMgMzkzOCAzNDQyIDQwODQgJiMxMDtRIDMwODEgNDIzMSAyNjc1IDQyMzEgJiMxMDtRIDE4NzUgNDIzMSAxNDUwIDM3NDIgJiMxMDtRIDEwMjUgMzI1MyAxMDI1IDIzMjggJiMxMDtRIDEwMjUgMTQwNiAxNDUwIDkxNyAmIzEwO1EgMTg3NSA0MjggMjY3NSA0MjggJiMxMDtRIDMwODEgNDI4IDM0NDIgNTc1ICYjMTA7USAzODAzIDcyMiA0MTIyIDEwMTkgJiMxMDtMIDQxMjIgMzU5ICYjMTA7USAzNzkxIDEzNCAzNDIwIDIxICYjMTA7USAzMDUwIC05MSAyNjM4IC05MSAmIzEwO1EgMTU3OCAtOTEgOTY4IDU1NyAmIzEwO1EgMzU5IDEyMDYgMzU5IDIzMjggJiMxMDtRIDM1OSAzNDUzIDk2OCA0MTAxICYjMTA7USAxNTc4IDQ3NTAgMjYzOCA0NzUwICYjMTA7USAzMDU2IDQ3NTAgMzQyNiA0NjM5ICYjMTA7USAzNzk3IDQ1MjggNDEyMiA0MzA2ICYjMTA7eiIgaWQ9IkRlamFWdVNhbnMtNDMiLz4mI3hhOyAgICAgICA8cGF0aCB0cmFuc2Zvcm09InNjYWxlKDAuMDE1NjI1KSIgZD0iTSAxOTg0IDQ4NTYgJiMxMDtRIDE1NjYgNDEzOCAxMzYyIDM0MzQgJiMxMDtRIDExNTkgMjczMSAxMTU5IDIwMDkgJiMxMDtRIDExNTkgMTI4OCAxMzY0IDU4MCAmIzEwO1EgMTU2OSAtMTI4IDE5ODQgLTg0NCAmIzEwO0wgMTQ4NCAtODQ0ICYjMTA7USAxMDE2IC0xMDkgNzgzIDYwMCAmIzEwO1EgNTUwIDEzMDkgNTUwIDIwMDkgJiMxMDtRIDU1MCAyNzA2IDc4MSAzNDEyICYjMTA7USAxMDEzIDQxMTkgMTQ4NCA0ODU2ICYjMTA7TCAxOTg0IDQ4NTYgJiMxMDt6IiBpZD0iRGVqYVZ1U2Fucy0yOCIvPiYjeGE7ICAgICAgIDxwYXRoIHRyYW5zZm9ybT0ic2NhbGUoMC4wMTU2MjUpIiBkPSJNIDI5MDYgMjk2OSAmIzEwO0wgMjkwNiA0ODYzICYjMTA7TCAzNDgxIDQ4NjMgJiMxMDtMIDM0ODEgMCAmIzEwO0wgMjkwNiAwICYjMTA7TCAyOTA2IDUyNSAmIzEwO1EgMjcyNSAyMTMgMjQ0OCA2MSAmIzEwO1EgMjE3MiAtOTEgMTc4NCAtOTEgJiMxMDtRIDExNTAgLTkxIDc1MSA0MTUgJiMxMDtRIDM1MyA5MjIgMzUzIDE3NDcgJiMxMDtRIDM1MyAyNTcyIDc1MSAzMDc4ICYjMTA7USAxMTUwIDM1ODQgMTc4NCAzNTg0ICYjMTA7USAyMTcyIDM1ODQgMjQ0OCAzNDMyICYjMTA7USAyNzI1IDMyODEgMjkwNiAyOTY5ICYjMTA7eiYjMTA7TSA5NDcgMTc0NyAmIzEwO1EgOTQ3IDExMTMgMTIwOCA3NTIgJiMxMDtRIDE0NjkgMzkxIDE5MjUgMzkxICYjMTA7USAyMzgxIDM5MSAyNjQzIDc1MiAmIzEwO1EgMjkwNiAxMTEzIDI5MDYgMTc0NyAmIzEwO1EgMjkwNiAyMzgxIDI2NDMgMjc0MiAmIzEwO1EgMjM4MSAzMTAzIDE5MjUgMzEwMyAmIzEwO1EgMTQ2OSAzMTAzIDEyMDggMjc0MiAmIzEwO1EgOTQ3IDIzODEgOTQ3IDE3NDcgJiMxMDt6IiBpZD0iRGVqYVZ1U2Fucy02NCIvPiYjeGE7ICAgICAgIDxwYXRoIHRyYW5zZm9ybT0ic2NhbGUoMC4wMTU2MjUpIiBkPSJNIDUxMyA0ODU2ICYjMTA7TCAxMDEzIDQ4NTYgJiMxMDtRIDE0ODEgNDExOSAxNzE0IDM0MTIgJiMxMDtRIDE5NDcgMjcwNiAxOTQ3IDIwMDkgJiMxMDtRIDE5NDcgMTMwOSAxNzE0IDYwMCAmIzEwO1EgMTQ4MSAtMTA5IDEwMTMgLTg0NCAmIzEwO0wgNTEzIC04NDQgJiMxMDtRIDkyOCAtMTI4IDExMzMgNTgwICYjMTA7USAxMzM4IDEyODggMTMzOCAyMDA5ICYjMTA7USAxMzM4IDI3MzEgMTEzMyAzNDM0ICYjMTA7USA5MjggNDEzOCA1MTMgNDg1NiAmIzEwO3oiIGlkPSJEZWphVnVTYW5zLTI5Ii8+JiN4YTsgICAgICA8L2RlZnM+JiN4YTsgICAgICA8dXNlIHhsaW5rOmhyZWY9IiNEZWphVnVTYW5zLTU0Ii8+JiN4YTsgICAgICA8dXNlIHg9IjU3Ljk1ODk4NCIgeGxpbms6aHJlZj0iI0RlamFWdVNhbnMtNjkiLz4mI3hhOyAgICAgIDx1c2UgeD0iODUuNzQyMTg4IiB4bGluazpocmVmPSIjRGVqYVZ1U2Fucy02ZCIvPiYjeGE7ICAgICAgPHVzZSB4PSIxODMuMTU0Mjk3IiB4bGluazpocmVmPSIjRGVqYVZ1U2Fucy02NSIvPiYjeGE7ICAgICAgPHVzZSB4PSIyNDQuNjc3NzM0IiB4bGluazpocmVmPSIjRGVqYVZ1U2Fucy0yMCIvPiYjeGE7ICAgICAgPHVzZSB4PSIyNzYuNDY0ODQ0IiB4bGluazpocmVmPSIjRGVqYVZ1U2Fucy01NCIvPiYjeGE7ICAgICAgPHVzZSB4PSIzMjEuMDQ4ODI4IiB4bGluazpocmVmPSIjRGVqYVZ1U2Fucy02MSIvPiYjeGE7ICAgICAgPHVzZSB4PSIzODIuMzI4MTI1IiB4bGluazpocmVmPSIjRGVqYVZ1U2Fucy02YiIvPiYjeGE7ICAgICAgPHVzZSB4PSI0MzYuNjEzMjgxIiB4bGluazpocmVmPSIjRGVqYVZ1U2Fucy02NSIvPiYjeGE7ICAgICAgPHVzZSB4PSI0OTguMTM2NzE5IiB4bGluazpocmVmPSIjRGVqYVZ1U2Fucy02ZSIvPiYjeGE7ICAgICAgPHVzZSB4PSI1NjEuNTE1NjI1IiB4bGluazpocmVmPSIjRGVqYVZ1U2Fucy0yMCIvPiYjeGE7ICAgICAgPHVzZSB4PSI1OTMuMzAyNzM0IiB4bGluazpocmVmPSIjRGVqYVZ1U2Fucy02NiIvPiYjeGE7ICAgICAgPHVzZSB4PSI2MjguNTA3ODEyIiB4bGluazpocmVmPSIjRGVqYVZ1U2Fucy02ZiIvPiYjeGE7ICAgICAgPHVzZSB4PSI2ODkuNjg5NDUzIiB4bGluazpocmVmPSIjRGVqYVZ1U2Fucy03MiIvPiYjeGE7ICAgICAgPHVzZSB4PSI3MzAuODAyNzM0IiB4bGluazpocmVmPSIjRGVqYVZ1U2Fucy0yMCIvPiYjeGE7ICAgICAgPHVzZSB4PSI3NjIuNTg5ODQ0IiB4bGluazpocmVmPSIjRGVqYVZ1U2Fucy00MyIvPiYjeGE7ICAgICAgPHVzZSB4PSI4MzIuNDE0MDYyIiB4bGluazpocmVmPSIjRGVqYVZ1U2Fucy02ZiIvPiYjeGE7ICAgICAgPHVzZSB4PSI4OTMuNTk1NzAzIiB4bGluazpocmVmPSIjRGVqYVZ1U2Fucy02ZSIvPiYjeGE7ICAgICAgPHVzZSB4PSI5NTYuOTc0NjA5IiB4bGluazpocmVmPSIjRGVqYVZ1U2Fucy03MyIvPiYjeGE7ICAgICAgPHVzZSB4PSIxMDA5LjA3NDIxOSIgeGxpbms6aHJlZj0iI0RlamFWdVNhbnMtNzQiLz4mI3hhOyAgICAgIDx1c2UgeD0iMTA0OC4yODMyMDMiIHhsaW5rOmhyZWY9IiNEZWphVnVTYW5zLTcyIi8+JiN4YTsgICAgICA8dXNlIHg9IjEwODkuMzk2NDg0IiB4bGluazpocmVmPSIjRGVqYVZ1U2Fucy03NSIvPiYjeGE7ICAgICAgPHVzZSB4PSIxMTUyLjc3NTM5MSIgeGxpbms6aHJlZj0iI0RlamFWdVNhbnMtNjMiLz4mI3hhOyAgICAgIDx1c2UgeD0iMTIwNy43NTU4NTkiIHhsaW5rOmhyZWY9IiNEZWphVnVTYW5zLTc0Ii8+JiN4YTsgICAgICA8dXNlIHg9IjEyNDYuOTY0ODQ0IiB4bGluazpocmVmPSIjRGVqYVZ1U2Fucy02OSIvPiYjeGE7ICAgICAgPHVzZSB4PSIxMjc0Ljc0ODA0NyIgeGxpbms6aHJlZj0iI0RlamFWdVNhbnMtNmYiLz4mI3hhOyAgICAgIDx1c2UgeD0iMTMzNS45Mjk2ODgiIHhsaW5rOmhyZWY9IiNEZWphVnVTYW5zLTZlIi8+JiN4YTsgICAgICA8dXNlIHg9IjEzOTkuMzA4NTk0IiB4bGluazpocmVmPSIjRGVqYVZ1U2Fucy0yMCIvPiYjeGE7ICAgICAgPHVzZSB4PSIxNDMxLjA5NTcwMyIgeGxpbms6aHJlZj0iI0RlamFWdVNhbnMtMjgiLz4mI3hhOyAgICAgIDx1c2UgeD0iMTQ3MC4xMDkzNzUiIHhsaW5rOmhyZWY9IiNEZWphVnVTYW5zLTczIi8+JiN4YTsgICAgICA8dXNlIHg9IjE1MjIuMjA4OTg0IiB4bGluazpocmVmPSIjRGVqYVZ1U2Fucy02NSIvPiYjeGE7ICAgICAgPHVzZSB4PSIxNTgzLjczMjQyMiIgeGxpbms6aHJlZj0iI0RlamFWdVNhbnMtNjMiLz4mI3hhOyAgICAgIDx1c2UgeD0iMTYzOC43MTI4OTEiIHhsaW5rOmhyZWY9IiNEZWphVnVTYW5zLTZmIi8+JiN4YTsgICAgICA8dXNlIHg9IjE2OTkuODk0NTMxIiB4bGluazpocmVmPSIjRGVqYVZ1U2Fucy02ZSIvPiYjeGE7ICAgICAgPHVzZSB4PSIxNzYzLjI3MzQzOCIgeGxpbms6aHJlZj0iI0RlamFWdVNhbnMtNjQiLz4mI3hhOyAgICAgIDx1c2UgeD0iMTgyNi43NSIgeGxpbms6aHJlZj0iI0RlamFWdVNhbnMtNzMiLz4mI3hhOyAgICAgIDx1c2UgeD0iMTg3OC44NDk2MDkiIHhsaW5rOmhyZWY9IiNEZWphVnVTYW5zLTI5Ii8+JiN4YTsgICAgIDwvZz4mI3hhOyAgICA8L2c+JiN4YTsgICA8L2c+JiN4YTsgICA8ZyBpZD0iTGluZUNvbGxlY3Rpb25fMSI+JiN4YTsgICAgPHBhdGggc3R5bGU9ImZpbGw6IG5vbmU7IHN0cm9rZTogIzAwMDAwMDsgc3Ryb2tlLXdpZHRoOiAxLjUiIGNsaXAtcGF0aD0idXJsKCNwZjhhN2U2NTY1NykiIGQ9Ik0gODAuNTk2MzY0IDE2OC4yNjIwNiAmIzEwO0wgODAuNTk2MzY0IDE2NC44ODA2MzIiLz4mI3hhOyAgICA8cGF0aCBzdHlsZT0iZmlsbDogbm9uZTsgc3Ryb2tlOiAjMDAwMDAwOyBzdHJva2Utd2lkdGg6IDEuNSIgY2xpcC1wYXRoPSJ1cmwoI3BmOGE3ZTY1NjU3KSIgZD0iTSAxNDguMjMyNzI3IDE2OS40NzkyMjEgJiMxMDtMIDE0OC4yMzI3MjcgMTYxLjAyMjU2OCIvPiYjeGE7ICAgIDxwYXRoIHN0eWxlPSJmaWxsOiBub25lOyBzdHJva2U6ICMwMDAwMDA7IHN0cm9rZS13aWR0aDogMS41IiBjbGlwLXBhdGg9InVybCgjcGY4YTdlNjU2NTcpIiBkPSJNIDIxNS44NjkwOTEgMTY5LjA4OTgxNCAmIzEwO0wgMjE1Ljg2OTA5MSAxNjAuOTM5MDU3Ii8+JiN4YTsgICAgPHBhdGggc3R5bGU9ImZpbGw6IG5vbmU7IHN0cm9rZTogIzAwMDAwMDsgc3Ryb2tlLXdpZHRoOiAxLjUiIGNsaXAtcGF0aD0idXJsKCNwZjhhN2U2NTY1NykiIGQ9Ik0gMjgzLjUwNTQ1NSAxNjkuNjM0MTA3ICYjMTA7TCAyODMuNTA1NDU1IDE2Ni4wNDMxNzciLz4mI3hhOyAgICA8cGF0aCBzdHlsZT0iZmlsbDogbm9uZTsgc3Ryb2tlOiAjMDAwMDAwOyBzdHJva2Utd2lkdGg6IDEuNSIgY2xpcC1wYXRoPSJ1cmwoI3BmOGE3ZTY1NjU3KSIgZD0iTSAzNTEuMTQxODE4IDE2OC4yMjI4OSAmIzEwO0wgMzUxLjE0MTgxOCAxNjIuNDk1OTEiLz4mI3hhOyAgIDwvZz4mI3hhOyAgIDxnIGlkPSJsaW5lMmRfMTIiPiYjeGE7ICAgIDxkZWZzPiYjeGE7ICAgICA8cGF0aCBzdHlsZT0ic3Ryb2tlOiAjMDAwMDAwIiBkPSJNIDcgMCAmIzEwO0wgLTcgLTAiIGlkPSJtNDdlZDE5NzBhMSIvPiYjeGE7ICAgIDwvZGVmcz4mI3hhOyAgICA8ZyBjbGlwLXBhdGg9InVybCgjcGY4YTdlNjU2NTcpIj4mI3hhOyAgICAgPHVzZSBzdHlsZT0ic3Ryb2tlOiAjMDAwMDAwIiB5PSIxNjguMjYyMDYiIHg9IjgwLjU5NjM2NCIgeGxpbms6aHJlZj0iI200N2VkMTk3MGExIi8+JiN4YTsgICAgIDx1c2Ugc3R5bGU9InN0cm9rZTogIzAwMDAwMCIgeT0iMTY5LjQ3OTIyMSIgeD0iMTQ4LjIzMjcyNyIgeGxpbms6aHJlZj0iI200N2VkMTk3MGExIi8+JiN4YTsgICAgIDx1c2Ugc3R5bGU9InN0cm9rZTogIzAwMDAwMCIgeT0iMTY5LjA4OTgxNCIgeD0iMjE1Ljg2OTA5MSIgeGxpbms6aHJlZj0iI200N2VkMTk3MGExIi8+JiN4YTsgICAgIDx1c2Ugc3R5bGU9InN0cm9rZTogIzAwMDAwMCIgeT0iMTY5LjYzNDEwNyIgeD0iMjgzLjUwNTQ1NSIgeGxpbms6aHJlZj0iI200N2VkMTk3MGExIi8+JiN4YTsgICAgIDx1c2Ugc3R5bGU9InN0cm9rZTogIzAwMDAwMCIgeT0iMTY4LjIyMjg5IiB4PSIzNTEuMTQxODE4IiB4bGluazpocmVmPSIjbTQ3ZWQxOTcwYTEiLz4mI3hhOyAgICA8L2c+JiN4YTsgICA8L2c+JiN4YTsgICA8ZyBpZD0ibGluZTJkXzEzIj4mI3hhOyAgICA8ZyBjbGlwLXBhdGg9InVybCgjcGY4YTdlNjU2NTcpIj4mI3hhOyAgICAgPHVzZSBzdHlsZT0ic3Ryb2tlOiAjMDAwMDAwIiB5PSIxNjQuODgwNjMyIiB4PSI4MC41OTYzNjQiIHhsaW5rOmhyZWY9IiNtNDdlZDE5NzBhMSIvPiYjeGE7ICAgICA8dXNlIHN0eWxlPSJzdHJva2U6ICMwMDAwMDAiIHk9IjE2MS4wMjI1NjgiIHg9IjE0OC4yMzI3MjciIHhsaW5rOmhyZWY9IiNtNDdlZDE5NzBhMSIvPiYjeGE7ICAgICA8dXNlIHN0eWxlPSJzdHJva2U6ICMwMDAwMDAiIHk9IjE2MC45MzkwNTciIHg9IjIxNS44NjkwOTEiIHhsaW5rOmhyZWY9IiNtNDdlZDE5NzBhMSIvPiYjeGE7ICAgICA8dXNlIHN0eWxlPSJzdHJva2U6ICMwMDAwMDAiIHk9IjE2Ni4wNDMxNzciIHg9IjI4My41MDU0NTUiIHhsaW5rOmhyZWY9IiNtNDdlZDE5NzBhMSIvPiYjeGE7ICAgICA8dXNlIHN0eWxlPSJzdHJva2U6ICMwMDAwMDAiIHk9IjE2Mi40OTU5MSIgeD0iMzUxLjE0MTgxOCIgeGxpbms6aHJlZj0iI200N2VkMTk3MGExIi8+JiN4YTsgICAgPC9nPiYjeGE7ICAgPC9nPiYjeGE7ICAgPGcgaWQ9IkxpbmVDb2xsZWN0aW9uXzIiPiYjeGE7ICAgIDxwYXRoIHN0eWxlPSJmaWxsOiBub25lOyBzdHJva2U6ICMwMDAwMDA7IHN0cm9rZS13aWR0aDogMS41IiBjbGlwLXBhdGg9InVybCgjcGY4YTdlNjU2NTcpIiBkPSJNIDk0LjEyMzYzNiAxNjAuMzkyODI2ICYjMTA7TCA5NC4xMjM2MzYgMTUyLjY2MzA4Ii8+JiN4YTsgICAgPHBhdGggc3R5bGU9ImZpbGw6IG5vbmU7IHN0cm9rZTogIzAwMDAwMDsgc3Ryb2tlLXdpZHRoOiAxLjUiIGNsaXAtcGF0aD0idXJsKCNwZjhhN2U2NTY1NykiIGQ9Ik0gMTYxLjc2IDE2Mi4xNTI3NzcgJiMxMDtMIDE2MS43NiAxNTAuNjM4MTI3Ii8+JiN4YTsgICAgPHBhdGggc3R5bGU9ImZpbGw6IG5vbmU7IHN0cm9rZTogIzAwMDAwMDsgc3Ryb2tlLXdpZHRoOiAxLjUiIGNsaXAtcGF0aD0idXJsKCNwZjhhN2U2NTY1NykiIGQ9Ik0gMjI5LjM5NjM2NCAxNjIuMjcxODA5ICYjMTA7TCAyMjkuMzk2MzY0IDE1MC45OTQ0MzgiLz4mI3hhOyAgICA8cGF0aCBzdHlsZT0iZmlsbDogbm9uZTsgc3Ryb2tlOiAjMDAwMDAwOyBzdHJva2Utd2lkdGg6IDEuNSIgY2xpcC1wYXRoPSJ1cmwoI3BmOGE3ZTY1NjU3KSIgZD0iTSAyOTcuMDMyNzI3IDE2MS44MzI3MTIgJiMxMDtMIDI5Ny4wMzI3MjcgMTYwLjMzMzg4NSIvPiYjeGE7ICAgIDxwYXRoIHN0eWxlPSJmaWxsOiBub25lOyBzdHJva2U6ICMwMDAwMDA7IHN0cm9rZS13aWR0aDogMS41IiBjbGlwLXBhdGg9InVybCgjcGY4YTdlNjU2NTcpIiBkPSJNIDM2NC42NjkwOTEgMTU5LjE5NTg5ICYjMTA7TCAzNjQuNjY5MDkxIDE1MC4zODc5NDciLz4mI3hhOyAgIDwvZz4mI3hhOyAgIDxnIGlkPSJsaW5lMmRfMTQiPiYjeGE7ICAgIDxnIGNsaXAtcGF0aD0idXJsKCNwZjhhN2U2NTY1NykiPiYjeGE7ICAgICA8dXNlIHN0eWxlPSJzdHJva2U6ICMwMDAwMDAiIHk9IjE2MC4zOTI4MjYiIHg9Ijk0LjEyMzYzNiIgeGxpbms6aHJlZj0iI200N2VkMTk3MGExIi8+JiN4YTsgICAgIDx1c2Ugc3R5bGU9InN0cm9rZTogIzAwMDAwMCIgeT0iMTYyLjE1Mjc3NyIgeD0iMTYxLjc2IiB4bGluazpocmVmPSIjbTQ3ZWQxOTcwYTEiLz4mI3hhOyAgICAgPHVzZSBzdHlsZT0ic3Ryb2tlOiAjMDAwMDAwIiB5PSIxNjIuMjcxODA5IiB4PSIyMjkuMzk2MzY0IiB4bGluazpocmVmPSIjbTQ3ZWQxOTcwYTEiLz4mI3hhOyAgICAgPHVzZSBzdHlsZT0ic3Ryb2tlOiAjMDAwMDAwIiB5PSIxNjEuODMyNzEyIiB4PSIyOTcuMDMyNzI3IiB4bGluazpocmVmPSIjbTQ3ZWQxOTcwYTEiLz4mI3hhOyAgICAgPHVzZSBzdHlsZT0ic3Ryb2tlOiAjMDAwMDAwIiB5PSIxNTkuMTk1ODkiIHg9IjM2NC42NjkwOTEiIHhsaW5rOmhyZWY9IiNtNDdlZDE5NzBhMSIvPiYjeGE7ICAgIDwvZz4mI3hhOyAgIDwvZz4mI3hhOyAgIDxnIGlkPSJsaW5lMmRfMTUiPiYjeGE7ICAgIDxnIGNsaXAtcGF0aD0idXJsKCNwZjhhN2U2NTY1NykiPiYjeGE7ICAgICA8dXNlIHN0eWxlPSJzdHJva2U6ICMwMDAwMDAiIHk9IjE1Mi42NjMwOCIgeD0iOTQuMTIzNjM2IiB4bGluazpocmVmPSIjbTQ3ZWQxOTcwYTEiLz4mI3hhOyAgICAgPHVzZSBzdHlsZT0ic3Ryb2tlOiAjMDAwMDAwIiB5PSIxNTAuNjM4MTI3IiB4PSIxNjEuNzYiIHhsaW5rOmhyZWY9IiNtNDdlZDE5NzBhMSIvPiYjeGE7ICAgICA8dXNlIHN0eWxlPSJzdHJva2U6ICMwMDAwMDAiIHk9IjE1MC45OTQ0MzgiIHg9IjIyOS4zOTYzNjQiIHhsaW5rOmhyZWY9IiNtNDdlZDE5NzBhMSIvPiYjeGE7ICAgICA8dXNlIHN0eWxlPSJzdHJva2U6ICMwMDAwMDAiIHk9IjE2MC4zMzM4ODUiIHg9IjI5Ny4wMzI3MjciIHhsaW5rOmhyZWY9IiNtNDdlZDE5NzBhMSIvPiYjeGE7ICAgICA8dXNlIHN0eWxlPSJzdHJva2U6ICMwMDAwMDAiIHk9IjE1MC4zODc5NDciIHg9IjM2NC42NjkwOTEiIHhsaW5rOmhyZWY9IiNtNDdlZDE5NzBhMSIvPiYjeGE7ICAgIDwvZz4mI3hhOyAgIDwvZz4mI3hhOyAgIDxnIGlkPSJMaW5lQ29sbGVjdGlvbl8zIj4mI3hhOyAgICA8cGF0aCBzdHlsZT0iZmlsbDogbm9uZTsgc3Ryb2tlOiAjMDAwMDAwOyBzdHJva2Utd2lkdGg6IDEuNSIgY2xpcC1wYXRoPSJ1cmwoI3BmOGE3ZTY1NjU3KSIgZD0iTSAxMDcuNjUwOTA5IDIyMS4yMzIxMDcgJiMxMDtMIDEwNy42NTA5MDkgMjE4Ljk1Nzk3Ii8+JiN4YTsgICAgPHBhdGggc3R5bGU9ImZpbGw6IG5vbmU7IHN0cm9rZTogIzAwMDAwMDsgc3Ryb2tlLXdpZHRoOiAxLjUiIGNsaXAtcGF0aD0idXJsKCNwZjhhN2U2NTY1NykiIGQ9Ik0gMTc1LjI4NzI3MyAyMTQuNjgwOTA0ICYjMTA7TCAxNzUuMjg3MjczIDE5MS40Njc0NzciLz4mI3hhOyAgICA8cGF0aCBzdHlsZT0iZmlsbDogbm9uZTsgc3Ryb2tlOiAjMDAwMDAwOyBzdHJva2Utd2lkdGg6IDEuNSIgY2xpcC1wYXRoPSJ1cmwoI3BmOGE3ZTY1NjU3KSIgZD0iTSAyNDIuOTIzNjM2IDE3NC41MDA2NzEgJiMxMDtMIDI0Mi45MjM2MzYgMTU2LjI2MTcyMyIvPiYjeGE7ICAgIDxwYXRoIHN0eWxlPSJmaWxsOiBub25lOyBzdHJva2U6ICMwMDAwMDA7IHN0cm9rZS13aWR0aDogMS41IiBjbGlwLXBhdGg9InVybCgjcGY4YTdlNjU2NTcpIiBkPSJNIDMxMC41NiAxNDYuMDIyNzEzICYjMTA7TCAzMTAuNTYgMTI2LjU4MTc2Ii8+JiN4YTsgICAgPHBhdGggc3R5bGU9ImZpbGw6IG5vbmU7IHN0cm9rZTogIzAwMDAwMDsgc3Ryb2tlLXdpZHRoOiAxLjUiIGNsaXAtcGF0aD0idXJsKCNwZjhhN2U2NTY1NykiIGQ9Ik0gMzc4LjE5NjM2NCA2Ny4yMzA2NjEgJiMxMDtMIDM3OC4xOTYzNjQgNTQuMTQ0Ii8+JiN4YTsgICA8L2c+JiN4YTsgICA8ZyBpZD0ibGluZTJkXzE2Ij4mI3hhOyAgICA8ZyBjbGlwLXBhdGg9InVybCgjcGY4YTdlNjU2NTcpIj4mI3hhOyAgICAgPHVzZSBzdHlsZT0ic3Ryb2tlOiAjMDAwMDAwIiB5PSIyMjEuMjMyMTA3IiB4PSIxMDcuNjUwOTA5IiB4bGluazpocmVmPSIjbTQ3ZWQxOTcwYTEiLz4mI3hhOyAgICAgPHVzZSBzdHlsZT0ic3Ryb2tlOiAjMDAwMDAwIiB5PSIyMTQuNjgwOTA0IiB4PSIxNzUuMjg3MjczIiB4bGluazpocmVmPSIjbTQ3ZWQxOTcwYTEiLz4mI3hhOyAgICAgPHVzZSBzdHlsZT0ic3Ryb2tlOiAjMDAwMDAwIiB5PSIxNzQuNTAwNjcxIiB4PSIyNDIuOTIzNjM2IiB4bGluazpocmVmPSIjbTQ3ZWQxOTcwYTEiLz4mI3hhOyAgICAgPHVzZSBzdHlsZT0ic3Ryb2tlOiAjMDAwMDAwIiB5PSIxNDYuMDIyNzEzIiB4PSIzMTAuNTYiIHhsaW5rOmhyZWY9IiNtNDdlZDE5NzBhMSIvPiYjeGE7ICAgICA8dXNlIHN0eWxlPSJzdHJva2U6ICMwMDAwMDAiIHk9IjY3LjIzMDY2MSIgeD0iMzc4LjE5NjM2NCIgeGxpbms6aHJlZj0iI200N2VkMTk3MGExIi8+JiN4YTsgICAgPC9nPiYjeGE7ICAgPC9nPiYjeGE7ICAgPGcgaWQ9ImxpbmUyZF8xNyI+JiN4YTsgICAgPGcgY2xpcC1wYXRoPSJ1cmwoI3BmOGE3ZTY1NjU3KSI+JiN4YTsgICAgIDx1c2Ugc3R5bGU9InN0cm9rZTogIzAwMDAwMCIgeT0iMjE4Ljk1Nzk3IiB4PSIxMDcuNjUwOTA5IiB4bGluazpocmVmPSIjbTQ3ZWQxOTcwYTEiLz4mI3hhOyAgICAgPHVzZSBzdHlsZT0ic3Ryb2tlOiAjMDAwMDAwIiB5PSIxOTEuNDY3NDc3IiB4PSIxNzUuMjg3MjczIiB4bGluazpocmVmPSIjbTQ3ZWQxOTcwYTEiLz4mI3hhOyAgICAgPHVzZSBzdHlsZT0ic3Ryb2tlOiAjMDAwMDAwIiB5PSIxNTYuMjYxNzIzIiB4PSIyNDIuOTIzNjM2IiB4bGluazpocmVmPSIjbTQ3ZWQxOTcwYTEiLz4mI3hhOyAgICAgPHVzZSBzdHlsZT0ic3Ryb2tlOiAjMDAwMDAwIiB5PSIxMjYuNTgxNzYiIHg9IjMxMC41NiIgeGxpbms6aHJlZj0iI200N2VkMTk3MGExIi8+JiN4YTsgICAgIDx1c2Ugc3R5bGU9InN0cm9rZTogIzAwMDAwMCIgeT0iNTQuMTQ0IiB4PSIzNzguMTk2MzY0IiB4bGluazpocmVmPSIjbTQ3ZWQxOTcwYTEiLz4mI3hhOyAgICA8L2c+JiN4YTsgICA8L2c+JiN4YTsgICA8ZyBpZD0iTGluZUNvbGxlY3Rpb25fNCI+JiN4YTsgICAgPHBhdGggc3R5bGU9ImZpbGw6IG5vbmU7IHN0cm9rZTogIzAwMDAwMDsgc3Ryb2tlLXdpZHRoOiAxLjUiIGNsaXAtcGF0aD0idXJsKCNwZjhhN2U2NTY1NykiIGQ9Ik0gMTIxLjE3ODE4MiAyNzguMTA1MDM5ICYjMTA7TCAxMjEuMTc4MTgyIDI3My40OTM1OTQiLz4mI3hhOyAgICA8cGF0aCBzdHlsZT0iZmlsbDogbm9uZTsgc3Ryb2tlOiAjMDAwMDAwOyBzdHJva2Utd2lkdGg6IDEuNSIgY2xpcC1wYXRoPSJ1cmwoI3BmOGE3ZTY1NjU3KSIgZD0iTSAxODguODE0NTQ1IDI3MC43NzYyMTkgJiMxMDtMIDE4OC44MTQ1NDUgMjYxLjE1MjYxOSIvPiYjeGE7ICAgIDxwYXRoIHN0eWxlPSJmaWxsOiBub25lOyBzdHJva2U6ICMwMDAwMDA7IHN0cm9rZS13aWR0aDogMS41IiBjbGlwLXBhdGg9InVybCgjcGY4YTdlNjU2NTcpIiBkPSJNIDI1Ni40NTA5MDkgMjQxLjM2MzI0ICYjMTA7TCAyNTYuNDUwOTA5IDIzNS45NjAwNzQiLz4mI3hhOyAgICA8cGF0aCBzdHlsZT0iZmlsbDogbm9uZTsgc3Ryb2tlOiAjMDAwMDAwOyBzdHJva2Utd2lkdGg6IDEuNSIgY2xpcC1wYXRoPSJ1cmwoI3BmOGE3ZTY1NjU3KSIgZD0iTSAzMjQuMDg3MjczIDIxMS42MzUyNzIgJiMxMDtMIDMyNC4wODcyNzMgMjA0LjczNzU5MSIvPiYjeGE7ICAgIDxwYXRoIHN0eWxlPSJmaWxsOiBub25lOyBzdHJva2U6ICMwMDAwMDA7IHN0cm9rZS13aWR0aDogMS41IiBjbGlwLXBhdGg9InVybCgjcGY4YTdlNjU2NTcpIiBkPSJNIDM5MS43MjM2MzYgMTM5LjMyMDE2ICYjMTA7TCAzOTEuNzIzNjM2IDk4LjQwNDczMyIvPiYjeGE7ICAgPC9nPiYjeGE7ICAgPGcgaWQ9ImxpbmUyZF8xOCI+JiN4YTsgICAgPGcgY2xpcC1wYXRoPSJ1cmwoI3BmOGE3ZTY1NjU3KSI+JiN4YTsgICAgIDx1c2Ugc3R5bGU9InN0cm9rZTogIzAwMDAwMCIgeT0iMjc4LjEwNTAzOSIgeD0iMTIxLjE3ODE4MiIgeGxpbms6aHJlZj0iI200N2VkMTk3MGExIi8+JiN4YTsgICAgIDx1c2Ugc3R5bGU9InN0cm9rZTogIzAwMDAwMCIgeT0iMjcwLjc3NjIxOSIgeD0iMTg4LjgxNDU0NSIgeGxpbms6aHJlZj0iI200N2VkMTk3MGExIi8+JiN4YTsgICAgIDx1c2Ugc3R5bGU9InN0cm9rZTogIzAwMDAwMCIgeT0iMjQxLjM2MzI0IiB4PSIyNTYuNDUwOTA5IiB4bGluazpocmVmPSIjbTQ3ZWQxOTcwYTEiLz4mI3hhOyAgICAgPHVzZSBzdHlsZT0ic3Ryb2tlOiAjMDAwMDAwIiB5PSIyMTEuNjM1MjcyIiB4PSIzMjQuMDg3MjczIiB4bGluazpocmVmPSIjbTQ3ZWQxOTcwYTEiLz4mI3hhOyAgICAgPHVzZSBzdHlsZT0ic3Ryb2tlOiAjMDAwMDAwIiB5PSIxMzkuMzIwMTYiIHg9IjM5MS43MjM2MzYiIHhsaW5rOmhyZWY9IiNtNDdlZDE5NzBhMSIvPiYjeGE7ICAgIDwvZz4mI3hhOyAgIDwvZz4mI3hhOyAgIDxnIGlkPSJsaW5lMmRfMTkiPiYjeGE7ICAgIDxnIGNsaXAtcGF0aD0idXJsKCNwZjhhN2U2NTY1NykiPiYjeGE7ICAgICA8dXNlIHN0eWxlPSJzdHJva2U6ICMwMDAwMDAiIHk9IjI3My40OTM1OTQiIHg9IjEyMS4xNzgxODIiIHhsaW5rOmhyZWY9IiNtNDdlZDE5NzBhMSIvPiYjeGE7ICAgICA8dXNlIHN0eWxlPSJzdHJva2U6ICMwMDAwMDAiIHk9IjI2MS4xNTI2MTkiIHg9IjE4OC44MTQ1NDUiIHhsaW5rOmhyZWY9IiNtNDdlZDE5NzBhMSIvPiYjeGE7ICAgICA8dXNlIHN0eWxlPSJzdHJva2U6ICMwMDAwMDAiIHk9IjIzNS45NjAwNzQiIHg9IjI1Ni40NTA5MDkiIHhsaW5rOmhyZWY9IiNtNDdlZDE5NzBhMSIvPiYjeGE7ICAgICA8dXNlIHN0eWxlPSJzdHJva2U6ICMwMDAwMDAiIHk9IjIwNC43Mzc1OTEiIHg9IjMyNC4wODcyNzMiIHhsaW5rOmhyZWY9IiNtNDdlZDE5NzBhMSIvPiYjeGE7ICAgICA8dXNlIHN0eWxlPSJzdHJva2U6ICMwMDAwMDAiIHk9Ijk4LjQwNDczMyIgeD0iMzkxLjcyMzYzNiIgeGxpbms6aHJlZj0iI200N2VkMTk3MGExIi8+JiN4YTsgICAgPC9nPiYjeGE7ICAgPC9nPiYjeGE7ICAgPGcgaWQ9InBhdGNoXzIzIj4mI3hhOyAgICA8cGF0aCBzdHlsZT0iZmlsbDogbm9uZTsgc3Ryb2tlOiAjMDAwMDAwOyBzdHJva2Utd2lkdGg6IDAuODsgc3Ryb2tlLWxpbmVqb2luOiBtaXRlcjsgc3Ryb2tlLWxpbmVjYXA6IHNxdWFyZSIgZD0iTSA1Ny42IDMwNy41ODQgJiMxMDtMIDU3LjYgNDEuNDcyIi8+JiN4YTsgICA8L2c+JiN4YTsgICA8ZyBpZD0icGF0Y2hfMjQiPiYjeGE7ICAgIDxwYXRoIHN0eWxlPSJmaWxsOiBub25lOyBzdHJva2U6ICMwMDAwMDA7IHN0cm9rZS13aWR0aDogMC44OyBzdHJva2UtbGluZWpvaW46IG1pdGVyOyBzdHJva2UtbGluZWNhcDogc3F1YXJlIiBkPSJNIDQxNC43MiAzMDcuNTg0ICYjMTA7TCA0MTQuNzIgNDEuNDcyIi8+JiN4YTsgICA8L2c+JiN4YTsgICA8ZyBpZD0icGF0Y2hfMjUiPiYjeGE7ICAgIDxwYXRoIHN0eWxlPSJmaWxsOiBub25lOyBzdHJva2U6ICMwMDAwMDA7IHN0cm9rZS13aWR0aDogMC44OyBzdHJva2UtbGluZWpvaW46IG1pdGVyOyBzdHJva2UtbGluZWNhcDogc3F1YXJlIiBkPSJNIDU3LjYgMzA3LjU4NCAmIzEwO0wgNDE0LjcyIDMwNy41ODQiLz4mI3hhOyAgIDwvZz4mI3hhOyAgIDxnIGlkPSJwYXRjaF8yNiI+JiN4YTsgICAgPHBhdGggc3R5bGU9ImZpbGw6IG5vbmU7IHN0cm9rZTogIzAwMDAwMDsgc3Ryb2tlLXdpZHRoOiAwLjg7IHN0cm9rZS1saW5lam9pbjogbWl0ZXI7IHN0cm9rZS1saW5lY2FwOiBzcXVhcmUiIGQ9Ik0gNTcuNiA0MS40NzIgJiMxMDtMIDQxNC43MiA0MS40NzIiLz4mI3hhOyAgIDwvZz4mI3hhOyAgIDxnIGlkPSJsZWdlbmRfMSI+JiN4YTsgICAgPGcgaWQ9InBhdGNoXzI3Ij4mI3hhOyAgICAgPHBhdGggc3R5bGU9ImZpbGw6ICNmZmZmZmY7IG9wYWNpdHk6IDAuODsgc3Ryb2tlOiAjY2NjY2NjOyBzdHJva2UtbGluZWpvaW46IG1pdGVyIiBkPSJNIDY2IDEyMS41MjcgJiMxMDtMIDE5My42MDUgMTIxLjUyNyAmIzEwO1EgMTk2LjAwNSAxMjEuNTI3IDE5Ni4wMDUgMTE5LjEyNyAmIzEwO0wgMTk2LjAwNSA0OS44NzIgJiMxMDtRIDE5Ni4wMDUgNDcuNDcyIDE5My42MDUgNDcuNDcyICYjMTA7TCA2NiA0Ny40NzIgJiMxMDtRIDYzLjYgNDcuNDcyIDYzLjYgNDkuODcyICYjMTA7TCA2My42IDExOS4xMjcgJiMxMDtRIDYzLjYgMTIxLjUyNyA2NiAxMjEuNTI3ICYjMTA7eiIvPiYjeGE7ICAgIDwvZz4mI3hhOyAgICA8ZyBpZD0icGF0Y2hfMjgiPiYjeGE7ICAgICA8cGF0aCBzdHlsZT0iZmlsbDogI2ZmZGY5MiIgZD0iTSA2OC40IDYxLjM5MDEyNSAmIzEwO0wgOTIuNCA2MS4zOTAxMjUgJiMxMDtMIDkyLjQgNTIuOTkwMTI1ICYjMTA7TCA2OC40IDUyLjk5MDEyNSAmIzEwO3oiLz4mI3hhOyAgICA8L2c+JiN4YTsgICAgPGcgaWQ9InRleHRfMTQiPiYjeGE7ICAgICAmI3hhOyAgICAgPGcgdHJhbnNmb3JtPSJ0cmFuc2xhdGUoMTAyIDYxLjM5MDEyNSkgc2NhbGUoMC4xMiAtMC4xMikiPiYjeGE7ICAgICAgPGRlZnM+JiN4YTsgICAgICAgPHBhdGggdHJhbnNmb3JtPSJzY2FsZSgwLjAxNTYyNSkiIGQ9Ik0gNjI4IDQ2NjYgJiMxMDtMIDEyNTkgNDY2NiAmIzEwO0wgMTI1OSAwICYjMTA7TCA2MjggMCAmIzEwO0wgNjI4IDQ2NjYgJiMxMDt6IiBpZD0iRGVqYVZ1U2Fucy00OSIvPiYjeGE7ICAgICAgIDxwYXRoIHRyYW5zZm9ybT0ic2NhbGUoMC4wMTU2MjUpIiBkPSJNIDM1MTMgMjExMyAmIzEwO0wgMzUxMyAwICYjMTA7TCAyOTM4IDAgJiMxMDtMIDI5MzggMjA5NCAmIzEwO1EgMjkzOCAyNTkxIDI3NDQgMjgzNyAmIzEwO1EgMjU1MCAzMDg0IDIxNjMgMzA4NCAmIzEwO1EgMTY5NyAzMDg0IDE0MjggMjc4NyAmIzEwO1EgMTE1OSAyNDkxIDExNTkgMTk3OCAmIzEwO0wgMTE1OSAwICYjMTA7TCA1ODEgMCAmIzEwO0wgNTgxIDQ4NjMgJiMxMDtMIDExNTkgNDg2MyAmIzEwO0wgMTE1OSAyOTU2ICYjMTA7USAxMzY2IDMyNzIgMTY0NSAzNDI4ICYjMTA7USAxOTI1IDM1ODQgMjI5MSAzNTg0ICYjMTA7USAyODk0IDM1ODQgMzIwMyAzMjExICYjMTA7USAzNTEzIDI4MzggMzUxMyAyMTEzICYjMTA7eiIgaWQ9IkRlamFWdVNhbnMtNjgiLz4mI3hhOyAgICAgIDwvZGVmcz4mI3hhOyAgICAgIDx1c2UgeGxpbms6aHJlZj0iI0RlamFWdVNhbnMtNDkiLz4mI3hhOyAgICAgIDx1c2UgeD0iMjkuNDkyMTg4IiB4bGluazpocmVmPSIjRGVqYVZ1U2Fucy02ZSIvPiYjeGE7ICAgICAgPHVzZSB4PSI5Mi44NzEwOTQiIHhsaW5rOmhyZWY9IiNEZWphVnVTYW5zLTY5Ii8+JiN4YTsgICAgICA8dXNlIHg9IjEyMC42NTQyOTciIHhsaW5rOmhyZWY9IiNEZWphVnVTYW5zLTc0Ii8+JiN4YTsgICAgICA8dXNlIHg9IjE1OS44NjMyODEiIHhsaW5rOmhyZWY9IiNEZWphVnVTYW5zLTIwIi8+JiN4YTsgICAgICA8dXNlIHg9IjE5MS42NTAzOTEiIHhsaW5rOmhyZWY9IiNEZWphVnVTYW5zLTcwIi8+JiN4YTsgICAgICA8dXNlIHg9IjI1NS4xMjY5NTMiIHhsaW5rOmhyZWY9IiNEZWphVnVTYW5zLTY4Ii8+JiN4YTsgICAgICA8dXNlIHg9IjMxOC41MDU4NTkiIHhsaW5rOmhyZWY9IiNEZWphVnVTYW5zLTYxIi8+JiN4YTsgICAgICA8dXNlIHg9IjM3OS43ODUxNTYiIHhsaW5rOmhyZWY9IiNEZWphVnVTYW5zLTczIi8+JiN4YTsgICAgICA8dXNlIHg9IjQzMS44ODQ3NjYiIHhsaW5rOmhyZWY9IiNEZWphVnVTYW5zLTY1Ii8+JiN4YTsgICAgIDwvZz4mI3hhOyAgICA8L2c+JiN4YTsgICAgPGcgaWQ9InBhdGNoXzI5Ij4mI3hhOyAgICAgPHBhdGggc3R5bGU9ImZpbGw6ICNkYjMxMjQiIGQ9Ik0gNjguNCA3OS4wMDM4NzUgJiMxMDtMIDkyLjQgNzkuMDAzODc1ICYjMTA7TCA5Mi40IDcwLjYwMzg3NSAmIzEwO0wgNjguNCA3MC42MDM4NzUgJiMxMDt6Ii8+JiN4YTsgICAgPC9nPiYjeGE7ICAgIDxnIGlkPSJ0ZXh0XzE1Ij4mI3hhOyAgICAgJiN4YTsgICAgIDxnIHRyYW5zZm9ybT0idHJhbnNsYXRlKDEwMiA3OS4wMDM4NzUpIHNjYWxlKDAuMTIgLTAuMTIpIj4mI3hhOyAgICAgIDxkZWZzPiYjeGE7ICAgICAgIDxwYXRoIHRyYW5zZm9ybT0ic2NhbGUoMC4wMTU2MjUpIiBkPSJNIDYyOCA0NjY2ICYjMTA7TCAxMjU5IDQ2NjYgJiMxMDtMIDEyNTkgMzI1ICYjMTA7USAxMjU5IC01MTkgOTM5IC05MDAgJiMxMDtRIDYxOSAtMTI4MSAtOTEgLTEyODEgJiMxMDtMIC0zMzEgLTEyODEgJiMxMDtMIC0zMzEgLTc1MCAmIzEwO0wgLTEzNCAtNzUwICYjMTA7USAyODQgLTc1MCA0NTYgLTUxNSAmIzEwO1EgNjI4IC0yODEgNjI4IDMyNSAmIzEwO0wgNjI4IDQ2NjYgJiMxMDt6IiBpZD0iRGVqYVZ1U2Fucy00YSIvPiYjeGE7ICAgICAgPC9kZWZzPiYjeGE7ICAgICAgPHVzZSB4bGluazpocmVmPSIjRGVqYVZ1U2Fucy00YSIvPiYjeGE7ICAgICAgPHVzZSB4PSIyOS40OTIxODgiIHhsaW5rOmhyZWY9IiNEZWphVnVTYW5zLTZmIi8+JiN4YTsgICAgICA8dXNlIHg9IjkwLjY3MzgyOCIgeGxpbms6aHJlZj0iI0RlamFWdVNhbnMtNjkiLz4mI3hhOyAgICAgIDx1c2UgeD0iMTE4LjQ1NzAzMSIgeGxpbms6aHJlZj0iI0RlamFWdVNhbnMtNmUiLz4mI3hhOyAgICAgIDx1c2UgeD0iMTgxLjgzNTkzOCIgeGxpbms6aHJlZj0iI0RlamFWdVNhbnMtMjAiLz4mI3hhOyAgICAgIDx1c2UgeD0iMjEzLjYyMzA0NyIgeGxpbms6aHJlZj0iI0RlamFWdVNhbnMtNzAiLz4mI3hhOyAgICAgIDx1c2UgeD0iMjc3LjA5OTYwOSIgeGxpbms6aHJlZj0iI0RlamFWdVNhbnMtNjgiLz4mI3hhOyAgICAgIDx1c2UgeD0iMzQwLjQ3ODUxNiIgeGxpbms6aHJlZj0iI0RlamFWdVNhbnMtNjEiLz4mI3hhOyAgICAgIDx1c2UgeD0iNDAxLjc1NzgxMiIgeGxpbms6aHJlZj0iI0RlamFWdVNhbnMtNzMiLz4mI3hhOyAgICAgIDx1c2UgeD0iNDUzLjg1NzQyMiIgeGxpbms6aHJlZj0iI0RlamFWdVNhbnMtNjUiLz4mI3hhOyAgICAgPC9nPiYjeGE7ICAgIDwvZz4mI3hhOyAgICA8ZyBpZD0icGF0Y2hfMzAiPiYjeGE7ICAgICA8cGF0aCBzdHlsZT0iZmlsbDogIzkwYmVlMCIgZD0iTSA2OC40IDk2LjYxNzYyNSAmIzEwO0wgOTIuNCA5Ni42MTc2MjUgJiMxMDtMIDkyLjQgODguMjE3NjI1ICYjMTA7TCA2OC40IDg4LjIxNzYyNSAmIzEwO3oiLz4mI3hhOyAgICA8L2c+JiN4YTsgICAgPGcgaWQ9InRleHRfMTYiPiYjeGE7ICAgICAmI3hhOyAgICAgPGcgdHJhbnNmb3JtPSJ0cmFuc2xhdGUoMTAyIDk2LjYxNzYyNSkgc2NhbGUoMC4xMiAtMC4xMikiPiYjeGE7ICAgICAgPGRlZnM+JiN4YTsgICAgICAgPHBhdGggdHJhbnNmb3JtPSJzY2FsZSgwLjAxNTYyNSkiIGQ9Ik0gMzQyNSA0NTEzICYjMTA7TCAzNDI1IDM4OTcgJiMxMDtRIDMwNjYgNDA2OSAyNzQ3IDQxNTMgJiMxMDtRIDI0MjggNDIzOCAyMTMxIDQyMzggJiMxMDtRIDE2MTYgNDIzOCAxMzM2IDQwMzggJiMxMDtRIDEwNTYgMzgzOCAxMDU2IDM0NjkgJiMxMDtRIDEwNTYgMzE1OSAxMjQyIDMwMDEgJiMxMDtRIDE0MjggMjg0NCAxOTQ3IDI3NDcgJiMxMDtMIDIzMjggMjY2OSAmIzEwO1EgMzAzNCAyNTM0IDMzNzAgMjE5NSAmIzEwO1EgMzcwNiAxODU2IDM3MDYgMTI4OCAmIzEwO1EgMzcwNiA2MDkgMzI1MSAyNTkgJiMxMDtRIDI3OTcgLTkxIDE5MTkgLTkxICYjMTA7USAxNTg4IC05MSAxMjE0IC0xNiAmIzEwO1EgODQxIDU5IDQ0MSAyMDYgJiMxMDtMIDQ0MSA4NTYgJiMxMDtRIDgyNSA2NDEgMTE5NCA1MzEgJiMxMDtRIDE1NjMgNDIyIDE5MTkgNDIyICYjMTA7USAyNDU5IDQyMiAyNzUzIDYzNCAmIzEwO1EgMzA0NyA4NDcgMzA0NyAxMjQxICYjMTA7USAzMDQ3IDE1ODQgMjgzNiAxNzc4ICYjMTA7USAyNjI1IDE5NzIgMjE0NCAyMDY5ICYjMTA7TCAxNzU5IDIxNDQgJiMxMDtRIDEwNTMgMjI4NCA3MzcgMjU4NCAmIzEwO1EgNDIyIDI4ODQgNDIyIDM0MTkgJiMxMDtRIDQyMiA0MDM4IDg1OCA0Mzk0ICYjMTA7USAxMjk0IDQ3NTAgMjA1OSA0NzUwICYjMTA7USAyMzg4IDQ3NTAgMjcyOCA0NjkwICYjMTA7USAzMDY5IDQ2MzEgMzQyNSA0NTEzICYjMTA7eiIgaWQ9IkRlamFWdVNhbnMtNTMiLz4mI3hhOyAgICAgIDwvZGVmcz4mI3hhOyAgICAgIDx1c2UgeGxpbms6aHJlZj0iI0RlamFWdVNhbnMtNTMiLz4mI3hhOyAgICAgIDx1c2UgeD0iNjMuNDc2NTYyIiB4bGluazpocmVmPSIjRGVqYVZ1U2Fucy03NCIvPiYjeGE7ICAgICAgPHVzZSB4PSIxMDIuNjg1NTQ3IiB4bGluazpocmVmPSIjRGVqYVZ1U2Fucy02MSIvPiYjeGE7ICAgICAgPHVzZSB4PSIxNjMuOTY0ODQ0IiB4bGluazpocmVmPSIjRGVqYVZ1U2Fucy03MiIvPiYjeGE7ICAgICAgPHVzZSB4PSIyMDUuMDc4MTI1IiB4bGluazpocmVmPSIjRGVqYVZ1U2Fucy03NCIvPiYjeGE7ICAgICAgPHVzZSB4PSIyNDQuMjg3MTA5IiB4bGluazpocmVmPSIjRGVqYVZ1U2Fucy0yMCIvPiYjeGE7ICAgICAgPHVzZSB4PSIyNzYuMDc0MjE5IiB4bGluazpocmVmPSIjRGVqYVZ1U2Fucy03MCIvPiYjeGE7ICAgICAgPHVzZSB4PSIzMzkuNTUwNzgxIiB4bGluazpocmVmPSIjRGVqYVZ1U2Fucy02OCIvPiYjeGE7ICAgICAgPHVzZSB4PSI0MDIuOTI5Njg4IiB4bGluazpocmVmPSIjRGVqYVZ1U2Fucy02MSIvPiYjeGE7ICAgICAgPHVzZSB4PSI0NjQuMjA4OTg0IiB4bGluazpocmVmPSIjRGVqYVZ1U2Fucy03MyIvPiYjeGE7ICAgICAgPHVzZSB4PSI1MTYuMzA4NTk0IiB4bGluazpocmVmPSIjRGVqYVZ1U2Fucy02NSIvPiYjeGE7ICAgICA8L2c+JiN4YTsgICAgPC9nPiYjeGE7ICAgIDxnIGlkPSJwYXRjaF8zMSI+JiN4YTsgICAgIDxwYXRoIHN0eWxlPSJmaWxsOiAjNGI3NGFhIiBkPSJNIDY4LjQgMTE0LjIzMTM3NSAmIzEwO0wgOTIuNCAxMTQuMjMxMzc1ICYjMTA7TCA5Mi40IDEwNS44MzEzNzUgJiMxMDtMIDY4LjQgMTA1LjgzMTM3NSAmIzEwO3oiLz4mI3hhOyAgICA8L2c+JiN4YTsgICAgPGcgaWQ9InRleHRfMTciPiYjeGE7ICAgICAmI3hhOyAgICAgPGcgdHJhbnNmb3JtPSJ0cmFuc2xhdGUoMTAyIDExNC4yMzEzNzUpIHNjYWxlKDAuMTIgLTAuMTIpIj4mI3hhOyAgICAgIDxkZWZzPiYjeGE7ICAgICAgIDxwYXRoIHRyYW5zZm9ybT0ic2NhbGUoMC4wMTU2MjUpIiBkPSJNIDIxODggNDA0NCAmIzEwO0wgMTMzMSAxNzIyICYjMTA7TCAzMDQ3IDE3MjIgJiMxMDtMIDIxODggNDA0NCAmIzEwO3omIzEwO00gMTgzMSA0NjY2ICYjMTA7TCAyNTQ3IDQ2NjYgJiMxMDtMIDQzMjUgMCAmIzEwO0wgMzY2OSAwICYjMTA7TCAzMjQ0IDExOTcgJiMxMDtMIDExNDEgMTE5NyAmIzEwO0wgNzE2IDAgJiMxMDtMIDUwIDAgJiMxMDtMIDE4MzEgNDY2NiAmIzEwO3oiIGlkPSJEZWphVnVTYW5zLTQxIi8+JiN4YTsgICAgICAgPHBhdGggdHJhbnNmb3JtPSJzY2FsZSgwLjAxNTYyNSkiIGQ9Ik0gMTkxIDM1MDAgJiMxMDtMIDgwMCAzNTAwICYjMTA7TCAxODk0IDU2MyAmIzEwO0wgMjk4OCAzNTAwICYjMTA7TCAzNTk3IDM1MDAgJiMxMDtMIDIyODQgMCAmIzEwO0wgMTUwMyAwICYjMTA7TCAxOTEgMzUwMCAmIzEwO3oiIGlkPSJEZWphVnVTYW5zLTc2Ii8+JiN4YTsgICAgICA8L2RlZnM+JiN4YTsgICAgICA8dXNlIHhsaW5rOmhyZWY9IiNEZWphVnVTYW5zLTQxIi8+JiN4YTsgICAgICA8dXNlIHg9IjY2LjY1ODIwMyIgeGxpbms6aHJlZj0iI0RlamFWdVNhbnMtNjMiLz4mI3hhOyAgICAgIDx1c2UgeD0iMTIxLjYzODY3MiIgeGxpbms6aHJlZj0iI0RlamFWdVNhbnMtNzQiLz4mI3hhOyAgICAgIDx1c2UgeD0iMTYwLjg0NzY1NiIgeGxpbms6aHJlZj0iI0RlamFWdVNhbnMtNjkiLz4mI3hhOyAgICAgIDx1c2UgeD0iMTg4LjYzMDg1OSIgeGxpbms6aHJlZj0iI0RlamFWdVNhbnMtNzYiLz4mI3hhOyAgICAgIDx1c2UgeD0iMjQ3LjgxMDU0NyIgeGxpbms6aHJlZj0iI0RlamFWdVNhbnMtNjEiLz4mI3hhOyAgICAgIDx1c2UgeD0iMzA5LjA4OTg0NCIgeGxpbms6aHJlZj0iI0RlamFWdVNhbnMtNzQiLz4mI3hhOyAgICAgIDx1c2UgeD0iMzQ4LjI5ODgyOCIgeGxpbms6aHJlZj0iI0RlamFWdVNhbnMtNjUiLz4mI3hhOyAgICAgIDx1c2UgeD0iNDA5LjgyMjI2NiIgeGxpbms6aHJlZj0iI0RlamFWdVNhbnMtMjAiLz4mI3hhOyAgICAgIDx1c2UgeD0iNDQxLjYwOTM3NSIgeGxpbms6aHJlZj0iI0RlamFWdVNhbnMtNzAiLz4mI3hhOyAgICAgIDx1c2UgeD0iNTA1LjA4NTkzOCIgeGxpbms6aHJlZj0iI0RlamFWdVNhbnMtNjgiLz4mI3hhOyAgICAgIDx1c2UgeD0iNTY4LjQ2NDg0NCIgeGxpbms6aHJlZj0iI0RlamFWdVNhbnMtNjEiLz4mI3hhOyAgICAgIDx1c2UgeD0iNjI5Ljc0NDE0MSIgeGxpbms6aHJlZj0iI0RlamFWdVNhbnMtNzMiLz4mI3hhOyAgICAgIDx1c2UgeD0iNjgxLjg0Mzc1IiB4bGluazpocmVmPSIjRGVqYVZ1U2Fucy02NSIvPiYjeGE7ICAgICA8L2c+JiN4YTsgICAgPC9nPiYjeGE7ICAgPC9nPiYjeGE7ICA8L2c+JiN4YTsgPC9nPiYjeGE7IDxkZWZzPiYjeGE7ICA8Y2xpcFBhdGggaWQ9InBmOGE3ZTY1NjU3Ij4mI3hhOyAgIDxyZWN0IGhlaWdodD0iMjY2LjExMiIgd2lkdGg9IjM1Ny4xMiIgeT0iNDEuNDcyIiB4PSI1Ny42Ii8+JiN4YTsgIDwvY2xpcFBhdGg+JiN4YTsgPC9kZWZzPiYjeGE7PC9zdmc+;" parent="1" vertex="1">
          <mxGeometry x="40" y="40" width="461" height="346" as="geometry" />
        </mxCell>
        <mxCell id="LWHDOnpmcx1V06YyC4n9-2" value="" style="shape=image;verticalLabelPosition=bottom;labelBackgroundColor=default;verticalAlign=top;aspect=fixed;imageAspect=0;image=data:image/svg+xml,PHN2ZyB4bWxucz0iaHR0cDovL3d3dy53My5vcmcvMjAwMC9zdmciIHhtbG5zOnhsaW5rPSJodHRwOi8vd3d3LnczLm9yZy8xOTk5L3hsaW5rIiB2ZXJzaW9uPSIxLjEiIHZpZXdCb3g9IjAgMCA0NjAuOCAzNDUuNiIgaGVpZ2h0PSIzNDUuNnB0IiB3aWR0aD0iNDYwLjhwdCI+JiN4YTsgPG1ldGFkYXRhPiYjeGE7ICAmI3hhOyAgICYjeGE7ICAgICYjeGE7ICAgIDIwMjQtMDQtMDRUMTc6MTA6MjEuMzMxMTQyJiN4YTsgICAgaW1hZ2Uvc3ZnK3htbCYjeGE7ICAgICYjeGE7ICAgICAmI3hhOyAgICAgIE1hdHBsb3RsaWIgdjMuNy41LCBodHRwczovL21hdHBsb3RsaWIub3JnLyYjeGE7ICAgICAmI3hhOyAgICAmI3hhOyAgICYjeGE7ICAmI3hhOyA8L21ldGFkYXRhPiYjeGE7IDxkZWZzPiYjeGE7ICA8c3R5bGUgdHlwZT0idGV4dC9jc3MiPip7c3Ryb2tlLWxpbmVqb2luOiByb3VuZDsgc3Ryb2tlLWxpbmVjYXA6IGJ1dHR9PC9zdHlsZT4mI3hhOyA8L2RlZnM+JiN4YTsgPGcgaWQ9ImZpZ3VyZV8xIj4mI3hhOyAgPGcgaWQ9InBhdGNoXzEiPiYjeGE7ICAgPHBhdGggc3R5bGU9ImZpbGw6ICNmZmZmZmYiIGQ9Ik0gMCAzNDUuNiAmIzEwO0wgNDYwLjggMzQ1LjYgJiMxMDtMIDQ2MC44IDAgJiMxMDtMIDAgMCAmIzEwO3oiLz4mI3hhOyAgPC9nPiYjeGE7ICA8ZyBpZD0iYXhlc18xIj4mI3hhOyAgIDxnIGlkPSJwYXRjaF8yIj4mI3hhOyAgICA8cGF0aCBzdHlsZT0iZmlsbDogI2ZmZmZmZiIgZD0iTSA1Ny42IDMwNy41ODQgJiMxMDtMIDQxNC43MiAzMDcuNTg0ICYjMTA7TCA0MTQuNzIgNDEuNDcyICYjMTA7TCA1Ny42IDQxLjQ3MiAmIzEwO3oiLz4mI3hhOyAgIDwvZz4mI3hhOyAgIDxnIGlkPSJwYXRjaF8zIj4mI3hhOyAgICA8cGF0aCBzdHlsZT0iZmlsbDogI2ZjOGM1YSIgY2xpcC1wYXRoPSJ1cmwoI3BmMmYxN2UyYzI1KSIgZD0iTSA3My44MzI3MjcgMzA3LjU4NCAmIzEwO0wgODkuMjkyNDY4IDMwNy41ODQgJiMxMDtMIDg5LjI5MjQ2OCAxODkuNDA0ODk2ICYjMTA7TCA3My44MzI3MjcgMTg5LjQwNDg5NiAmIzEwO3oiLz4mI3hhOyAgIDwvZz4mI3hhOyAgIDxnIGlkPSJwYXRjaF80Ij4mI3hhOyAgICA8cGF0aCBzdHlsZT0iZmlsbDogI2ZjOGM1YSIgY2xpcC1wYXRoPSJ1cmwoI3BmMmYxN2UyYzI1KSIgZD0iTSAxNTEuMTMxNDI5IDMwNy41ODQgJiMxMDtMIDE2Ni41OTExNjkgMzA3LjU4NCAmIzEwO0wgMTY2LjU5MTE2OSAxNjcuNjAxMDM0ICYjMTA7TCAxNTEuMTMxNDI5IDE2Ny42MDEwMzQgJiMxMDt6Ii8+JiN4YTsgICA8L2c+JiN4YTsgICA8ZyBpZD0icGF0Y2hfNSI+JiN4YTsgICAgPHBhdGggc3R5bGU9ImZpbGw6ICNmYzhjNWEiIGNsaXAtcGF0aD0idXJsKCNwZjJmMTdlMmMyNSkiIGQ9Ik0gMjI4LjQzMDEzIDMwNy41ODQgJiMxMDtMIDI0My44ODk4NyAzMDcuNTg0ICYjMTA7TCAyNDMuODg5ODcgMTEwLjEzNjczNiAmIzEwO0wgMjI4LjQzMDEzIDExMC4xMzY3MzYgJiMxMDt6Ii8+JiN4YTsgICA8L2c+JiN4YTsgICA8ZyBpZD0icGF0Y2hfNiI+JiN4YTsgICAgPHBhdGggc3R5bGU9ImZpbGw6ICNmYzhjNWEiIGNsaXAtcGF0aD0idXJsKCNwZjJmMTdlMmMyNSkiIGQ9Ik0gMzA1LjcyODgzMSAzMDcuNTg0ICYjMTA7TCAzMjEuMTg4NTcxIDMwNy41ODQgJiMxMDtMIDMyMS4xODg1NzEgODYuNjE5MDk2ICYjMTA7TCAzMDUuNzI4ODMxIDg2LjYxOTA5NiAmIzEwO3oiLz4mI3hhOyAgIDwvZz4mI3hhOyAgIDxnIGlkPSJwYXRjaF83Ij4mI3hhOyAgICA8cGF0aCBzdHlsZT0iZmlsbDogI2ZjOGM1YSIgY2xpcC1wYXRoPSJ1cmwoI3BmMmYxN2UyYzI1KSIgZD0iTSAzODMuMDI3NTMyIDMwNy41ODQgJiMxMDtMIDM5OC40ODcyNzMgMzA3LjU4NCAmIzEwO0wgMzk4LjQ4NzI3MyA1NC4xNDQgJiMxMDtMIDM4My4wMjc1MzIgNTQuMTQ0ICYjMTA7eiIvPiYjeGE7ICAgPC9nPiYjeGE7ICAgPGcgaWQ9Im1hdHBsb3RsaWIuYXhpc18xIj4mI3hhOyAgICA8ZyBpZD0ieHRpY2tfMSI+JiN4YTsgICAgIDxnIGlkPSJsaW5lMmRfMSI+JiN4YTsgICAgICA8ZGVmcz4mI3hhOyAgICAgICA8cGF0aCBzdHlsZT0ic3Ryb2tlOiAjMDAwMDAwOyBzdHJva2Utd2lkdGg6IDAuOCIgZD0iTSAwIDAgJiMxMDtMIDAgMy41IiBpZD0ibWVhNGEzN2ZkNmIiLz4mI3hhOyAgICAgIDwvZGVmcz4mI3hhOyAgICAgIDxnPiYjeGE7ICAgICAgIDx1c2Ugc3R5bGU9InN0cm9rZTogIzAwMDAwMDsgc3Ryb2tlLXdpZHRoOiAwLjgiIHk9IjMwNy41ODQiIHg9IjgxLjU2MjU5NyIgeGxpbms6aHJlZj0iI21lYTRhMzdmZDZiIi8+JiN4YTsgICAgICA8L2c+JiN4YTsgICAgIDwvZz4mI3hhOyAgICAgPGcgaWQ9InRleHRfMSI+JiN4YTsgICAgICAmI3hhOyAgICAgIDxnIHRyYW5zZm9ybT0idHJhbnNsYXRlKDc3Ljc0NTA5NyAzMjMuNzAyMTI1KSBzY2FsZSgwLjEyIC0wLjEyKSI+JiN4YTsgICAgICAgPGRlZnM+JiN4YTsgICAgICAgIDxwYXRoIHRyYW5zZm9ybT0ic2NhbGUoMC4wMTU2MjUpIiBkPSJNIDEyMjggNTMxICYjMTA7TCAzNDMxIDUzMSAmIzEwO0wgMzQzMSAwICYjMTA7TCA0NjkgMCAmIzEwO0wgNDY5IDUzMSAmIzEwO1EgODI4IDkwMyAxNDQ4IDE1MjkgJiMxMDtRIDIwNjkgMjE1NiAyMjI4IDIzMzggJiMxMDtRIDI1MzEgMjY3OCAyNjUxIDI5MTQgJiMxMDtRIDI3NzIgMzE1MCAyNzcyIDMzNzggJiMxMDtRIDI3NzIgMzc1MCAyNTExIDM5ODQgJiMxMDtRIDIyNTAgNDIxOSAxODMxIDQyMTkgJiMxMDtRIDE1MzQgNDIxOSAxMjA0IDQxMTYgJiMxMDtRIDg3NSA0MDEzIDUwMCAzODAzICYjMTA7TCA1MDAgNDQ0MSAmIzEwO1EgODgxIDQ1OTQgMTIxMiA0NjcyICYjMTA7USAxNTQ0IDQ3NTAgMTgxOSA0NzUwICYjMTA7USAyNTQ0IDQ3NTAgMjk3NSA0Mzg3ICYjMTA7USAzNDA2IDQwMjUgMzQwNiAzNDE5ICYjMTA7USAzNDA2IDMxMzEgMzI5OCAyODczICYjMTA7USAzMTkxIDI2MTYgMjkwNiAyMjY2ICYjMTA7USAyODI4IDIxNzUgMjQwOSAxNzQyICYjMTA7USAxOTkxIDEzMDkgMTIyOCA1MzEgJiMxMDt6IiBpZD0iRGVqYVZ1U2Fucy0zMiIvPiYjeGE7ICAgICAgIDwvZGVmcz4mI3hhOyAgICAgICA8dXNlIHhsaW5rOmhyZWY9IiNEZWphVnVTYW5zLTMyIi8+JiN4YTsgICAgICA8L2c+JiN4YTsgICAgIDwvZz4mI3hhOyAgICA8L2c+JiN4YTsgICAgPGcgaWQ9Inh0aWNrXzIiPiYjeGE7ICAgICA8ZyBpZD0ibGluZTJkXzIiPiYjeGE7ICAgICAgPGc+JiN4YTsgICAgICAgPHVzZSBzdHlsZT0ic3Ryb2tlOiAjMDAwMDAwOyBzdHJva2Utd2lkdGg6IDAuOCIgeT0iMzA3LjU4NCIgeD0iMTU4Ljg2MTI5OSIgeGxpbms6aHJlZj0iI21lYTRhMzdmZDZiIi8+JiN4YTsgICAgICA8L2c+JiN4YTsgICAgIDwvZz4mI3hhOyAgICAgPGcgaWQ9InRleHRfMiI+JiN4YTsgICAgICAmI3hhOyAgICAgIDxnIHRyYW5zZm9ybT0idHJhbnNsYXRlKDE1NS4wNDM3OTkgMzIzLjcwMjEyNSkgc2NhbGUoMC4xMiAtMC4xMikiPiYjeGE7ICAgICAgIDxkZWZzPiYjeGE7ICAgICAgICA8cGF0aCB0cmFuc2Zvcm09InNjYWxlKDAuMDE1NjI1KSIgZD0iTSAyNTk3IDI1MTYgJiMxMDtRIDMwNTAgMjQxOSAzMzA0IDIxMTIgJiMxMDtRIDM1NTkgMTgwNiAzNTU5IDEzNTYgJiMxMDtRIDM1NTkgNjY2IDMwODQgMjg3ICYjMTA7USAyNjA5IC05MSAxNzM0IC05MSAmIzEwO1EgMTQ0MSAtOTEgMTEzMCAtMzMgJiMxMDtRIDgxOSAyNSA0ODggMTQxICYjMTA7TCA0ODggNzUwICYjMTA7USA3NTAgNTk3IDEwNjIgNTE5ICYjMTA7USAxMzc1IDQ0MSAxNzE2IDQ0MSAmIzEwO1EgMjMwOSA0NDEgMjYyMCA2NzUgJiMxMDtRIDI5MzEgOTA5IDI5MzEgMTM1NiAmIzEwO1EgMjkzMSAxNzY5IDI2NDIgMjAwMSAmIzEwO1EgMjM1MyAyMjM0IDE4MzggMjIzNCAmIzEwO0wgMTI5NCAyMjM0ICYjMTA7TCAxMjk0IDI3NTMgJiMxMDtMIDE4NjMgMjc1MyAmIzEwO1EgMjMyOCAyNzUzIDI1NzUgMjkzOSAmIzEwO1EgMjgyMiAzMTI1IDI4MjIgMzQ3NSAmIzEwO1EgMjgyMiAzODM0IDI1NjcgNDAyNiAmIzEwO1EgMjMxMyA0MjE5IDE4MzggNDIxOSAmIzEwO1EgMTU3OCA0MjE5IDEyODEgNDE2MiAmIzEwO1EgOTg0IDQxMDYgNjI4IDM5ODggJiMxMDtMIDYyOCA0NTUwICYjMTA7USA5ODggNDY1MCAxMzAyIDQ3MDAgJiMxMDtRIDE2MTYgNDc1MCAxODk0IDQ3NTAgJiMxMDtRIDI2MTMgNDc1MCAzMDMxIDQ0MjMgJiMxMDtRIDM0NTAgNDA5NyAzNDUwIDM1NDEgJiMxMDtRIDM0NTAgMzE1MyAzMjI4IDI4ODYgJiMxMDtRIDMwMDYgMjYxOSAyNTk3IDI1MTYgJiMxMDt6IiBpZD0iRGVqYVZ1U2Fucy0zMyIvPiYjeGE7ICAgICAgIDwvZGVmcz4mI3hhOyAgICAgICA8dXNlIHhsaW5rOmhyZWY9IiNEZWphVnVTYW5zLTMzIi8+JiN4YTsgICAgICA8L2c+JiN4YTsgICAgIDwvZz4mI3hhOyAgICA8L2c+JiN4YTsgICAgPGcgaWQ9Inh0aWNrXzMiPiYjeGE7ICAgICA8ZyBpZD0ibGluZTJkXzMiPiYjeGE7ICAgICAgPGc+JiN4YTsgICAgICAgPHVzZSBzdHlsZT0ic3Ryb2tlOiAjMDAwMDAwOyBzdHJva2Utd2lkdGg6IDAuOCIgeT0iMzA3LjU4NCIgeD0iMjM2LjE2IiB4bGluazpocmVmPSIjbWVhNGEzN2ZkNmIiLz4mI3hhOyAgICAgIDwvZz4mI3hhOyAgICAgPC9nPiYjeGE7ICAgICA8ZyBpZD0idGV4dF8zIj4mI3hhOyAgICAgICYjeGE7ICAgICAgPGcgdHJhbnNmb3JtPSJ0cmFuc2xhdGUoMjMyLjM0MjUgMzIzLjcwMjEyNSkgc2NhbGUoMC4xMiAtMC4xMikiPiYjeGE7ICAgICAgIDxkZWZzPiYjeGE7ICAgICAgICA8cGF0aCB0cmFuc2Zvcm09InNjYWxlKDAuMDE1NjI1KSIgZD0iTSA2OTEgNDY2NiAmIzEwO0wgMzE2OSA0NjY2ICYjMTA7TCAzMTY5IDQxMzQgJiMxMDtMIDEyNjkgNDEzNCAmIzEwO0wgMTI2OSAyOTkxICYjMTA7USAxNDA2IDMwMzggMTU0MyAzMDYxICYjMTA7USAxNjgxIDMwODQgMTgxOSAzMDg0ICYjMTA7USAyNjAwIDMwODQgMzA1NiAyNjU2ICYjMTA7USAzNTEzIDIyMjggMzUxMyAxNDk3ICYjMTA7USAzNTEzIDc0NCAzMDQ0IDMyNiAmIzEwO1EgMjU3NSAtOTEgMTcyMiAtOTEgJiMxMDtRIDE0MjggLTkxIDExMjMgLTQxICYjMTA7USA4MTkgOSA0OTQgMTA5ICYjMTA7TCA0OTQgNzQ0ICYjMTA7USA3NzUgNTkxIDEwNzUgNTE2ICYjMTA7USAxMzc1IDQ0MSAxNzA5IDQ0MSAmIzEwO1EgMjI1MCA0NDEgMjU2NSA3MjUgJiMxMDtRIDI4ODEgMTAwOSAyODgxIDE0OTcgJiMxMDtRIDI4ODEgMTk4NCAyNTY1IDIyNjggJiMxMDtRIDIyNTAgMjU1MyAxNzA5IDI1NTMgJiMxMDtRIDE0NTYgMjU1MyAxMjA0IDI0OTcgJiMxMDtRIDk1MyAyNDQxIDY5MSAyMzIyICYjMTA7TCA2OTEgNDY2NiAmIzEwO3oiIGlkPSJEZWphVnVTYW5zLTM1Ii8+JiN4YTsgICAgICAgPC9kZWZzPiYjeGE7ICAgICAgIDx1c2UgeGxpbms6aHJlZj0iI0RlamFWdVNhbnMtMzUiLz4mI3hhOyAgICAgIDwvZz4mI3hhOyAgICAgPC9nPiYjeGE7ICAgIDwvZz4mI3hhOyAgICA8ZyBpZD0ieHRpY2tfNCI+JiN4YTsgICAgIDxnIGlkPSJsaW5lMmRfNCI+JiN4YTsgICAgICA8Zz4mI3hhOyAgICAgICA8dXNlIHN0eWxlPSJzdHJva2U6ICMwMDAwMDA7IHN0cm9rZS13aWR0aDogMC44IiB5PSIzMDcuNTg0IiB4PSIzMTMuNDU4NzAxIiB4bGluazpocmVmPSIjbWVhNGEzN2ZkNmIiLz4mI3hhOyAgICAgIDwvZz4mI3hhOyAgICAgPC9nPiYjeGE7ICAgICA8ZyBpZD0idGV4dF80Ij4mI3hhOyAgICAgICYjeGE7ICAgICAgPGcgdHJhbnNmb3JtPSJ0cmFuc2xhdGUoMzA5LjY0MTIwMSAzMjMuNzAyMTI1KSBzY2FsZSgwLjEyIC0wLjEyKSI+JiN4YTsgICAgICAgPGRlZnM+JiN4YTsgICAgICAgIDxwYXRoIHRyYW5zZm9ybT0ic2NhbGUoMC4wMTU2MjUpIiBkPSJNIDUyNSA0NjY2ICYjMTA7TCAzNTI1IDQ2NjYgJiMxMDtMIDM1MjUgNDM5NyAmIzEwO0wgMTgzMSAwICYjMTA7TCAxMTcyIDAgJiMxMDtMIDI3NjYgNDEzNCAmIzEwO0wgNTI1IDQxMzQgJiMxMDtMIDUyNSA0NjY2ICYjMTA7eiIgaWQ9IkRlamFWdVNhbnMtMzciLz4mI3hhOyAgICAgICA8L2RlZnM+JiN4YTsgICAgICAgPHVzZSB4bGluazpocmVmPSIjRGVqYVZ1U2Fucy0zNyIvPiYjeGE7ICAgICAgPC9nPiYjeGE7ICAgICA8L2c+JiN4YTsgICAgPC9nPiYjeGE7ICAgIDxnIGlkPSJ4dGlja181Ij4mI3hhOyAgICAgPGcgaWQ9ImxpbmUyZF81Ij4mI3hhOyAgICAgIDxnPiYjeGE7ICAgICAgIDx1c2Ugc3R5bGU9InN0cm9rZTogIzAwMDAwMDsgc3Ryb2tlLXdpZHRoOiAwLjgiIHk9IjMwNy41ODQiIHg9IjM5MC43NTc0MDMiIHhsaW5rOmhyZWY9IiNtZWE0YTM3ZmQ2YiIvPiYjeGE7ICAgICAgPC9nPiYjeGE7ICAgICA8L2c+JiN4YTsgICAgIDxnIGlkPSJ0ZXh0XzUiPiYjeGE7ICAgICAgJiN4YTsgICAgICA8ZyB0cmFuc2Zvcm09InRyYW5zbGF0ZSgzODMuMTIyNDAzIDMyMy43MDIxMjUpIHNjYWxlKDAuMTIgLTAuMTIpIj4mI3hhOyAgICAgICA8ZGVmcz4mI3hhOyAgICAgICAgPHBhdGggdHJhbnNmb3JtPSJzY2FsZSgwLjAxNTYyNSkiIGQ9Ik0gNzk0IDUzMSAmIzEwO0wgMTgyNSA1MzEgJiMxMDtMIDE4MjUgNDA5MSAmIzEwO0wgNzAzIDM4NjYgJiMxMDtMIDcwMyA0NDQxICYjMTA7TCAxODE5IDQ2NjYgJiMxMDtMIDI0NTAgNDY2NiAmIzEwO0wgMjQ1MCA1MzEgJiMxMDtMIDM0ODEgNTMxICYjMTA7TCAzNDgxIDAgJiMxMDtMIDc5NCAwICYjMTA7TCA3OTQgNTMxICYjMTA7eiIgaWQ9IkRlamFWdVNhbnMtMzEiLz4mI3hhOyAgICAgICAgPHBhdGggdHJhbnNmb3JtPSJzY2FsZSgwLjAxNTYyNSkiIGQ9Ik0gMjAzNCA0MjUwICYjMTA7USAxNTQ3IDQyNTAgMTMwMSAzNzcwICYjMTA7USAxMDU2IDMyOTEgMTA1NiAyMzI4ICYjMTA7USAxMDU2IDEzNjkgMTMwMSA4ODkgJiMxMDtRIDE1NDcgNDA5IDIwMzQgNDA5ICYjMTA7USAyNTI1IDQwOSAyNzcwIDg4OSAmIzEwO1EgMzAxNiAxMzY5IDMwMTYgMjMyOCAmIzEwO1EgMzAxNiAzMjkxIDI3NzAgMzc3MCAmIzEwO1EgMjUyNSA0MjUwIDIwMzQgNDI1MCAmIzEwO3omIzEwO00gMjAzNCA0NzUwICYjMTA7USAyODE5IDQ3NTAgMzIzMyA0MTI5ICYjMTA7USAzNjQ3IDM1MDkgMzY0NyAyMzI4ICYjMTA7USAzNjQ3IDExNTAgMzIzMyA1MjkgJiMxMDtRIDI4MTkgLTkxIDIwMzQgLTkxICYjMTA7USAxMjUwIC05MSA4MzYgNTI5ICYjMTA7USA0MjIgMTE1MCA0MjIgMjMyOCAmIzEwO1EgNDIyIDM1MDkgODM2IDQxMjkgJiMxMDtRIDEyNTAgNDc1MCAyMDM0IDQ3NTAgJiMxMDt6IiBpZD0iRGVqYVZ1U2Fucy0zMCIvPiYjeGE7ICAgICAgIDwvZGVmcz4mI3hhOyAgICAgICA8dXNlIHhsaW5rOmhyZWY9IiNEZWphVnVTYW5zLTMxIi8+JiN4YTsgICAgICAgPHVzZSB4PSI2My42MjMwNDciIHhsaW5rOmhyZWY9IiNEZWphVnVTYW5zLTMwIi8+JiN4YTsgICAgICA8L2c+JiN4YTsgICAgIDwvZz4mI3hhOyAgICA8L2c+JiN4YTsgICAgPGcgaWQ9InRleHRfNiI+JiN4YTsgICAgICYjeGE7ICAgICA8ZyB0cmFuc2Zvcm09InRyYW5zbGF0ZSgxNjcuMjE3MTg3IDMzOS4zMTU4NzUpIHNjYWxlKDAuMTIgLTAuMTIpIj4mI3hhOyAgICAgIDxkZWZzPiYjeGE7ICAgICAgIDxwYXRoIHRyYW5zZm9ybT0ic2NhbGUoMC4wMTU2MjUpIiBkPSJNIDYyOCA0NjY2ICYjMTA7TCAxNDc4IDQ2NjYgJiMxMDtMIDM1NDcgNzYzICYjMTA7TCAzNTQ3IDQ2NjYgJiMxMDtMIDQxNTkgNDY2NiAmIzEwO0wgNDE1OSAwICYjMTA7TCAzMzA5IDAgJiMxMDtMIDEyNDEgMzkwMyAmIzEwO0wgMTI0MSAwICYjMTA7TCA2MjggMCAmIzEwO0wgNjI4IDQ2NjYgJiMxMDt6IiBpZD0iRGVqYVZ1U2Fucy00ZSIvPiYjeGE7ICAgICAgIDxwYXRoIHRyYW5zZm9ybT0ic2NhbGUoMC4wMTU2MjUpIiBkPSJNIDU0NCAxMzgxICYjMTA7TCA1NDQgMzUwMCAmIzEwO0wgMTExOSAzNTAwICYjMTA7TCAxMTE5IDE0MDMgJiMxMDtRIDExMTkgOTA2IDEzMTIgNjU3ICYjMTA7USAxNTA2IDQwOSAxODk0IDQwOSAmIzEwO1EgMjM1OSA0MDkgMjYyOSA3MDYgJiMxMDtRIDI5MDAgMTAwMyAyOTAwIDE1MTYgJiMxMDtMIDI5MDAgMzUwMCAmIzEwO0wgMzQ3NSAzNTAwICYjMTA7TCAzNDc1IDAgJiMxMDtMIDI5MDAgMCAmIzEwO0wgMjkwMCA1MzggJiMxMDtRIDI2OTEgMjE5IDI0MTQgNjQgJiMxMDtRIDIxMzggLTkxIDE3NzIgLTkxICYjMTA7USAxMTY5IC05MSA4NTYgMjg0ICYjMTA7USA1NDQgNjU5IDU0NCAxMzgxICYjMTA7eiYjMTA7TSAxOTkxIDM1ODQgJiMxMDtMIDE5OTEgMzU4NCAmIzEwO3oiIGlkPSJEZWphVnVTYW5zLTc1Ii8+JiN4YTsgICAgICAgPHBhdGggdHJhbnNmb3JtPSJzY2FsZSgwLjAxNTYyNSkiIGQ9Ik0gMzMyOCAyODI4ICYjMTA7USAzNTQ0IDMyMTYgMzg0NCAzNDAwICYjMTA7USA0MTQ0IDM1ODQgNDU1MCAzNTg0ICYjMTA7USA1MDk3IDM1ODQgNTM5NCAzMjAxICYjMTA7USA1NjkxIDI4MTkgNTY5MSAyMTEzICYjMTA7TCA1NjkxIDAgJiMxMDtMIDUxMTMgMCAmIzEwO0wgNTExMyAyMDk0ICYjMTA7USA1MTEzIDI1OTcgNDkzNCAyODQwICYjMTA7USA0NzU2IDMwODQgNDM5MSAzMDg0ICYjMTA7USAzOTQ0IDMwODQgMzY4NCAyNzg3ICYjMTA7USAzNDI1IDI0OTEgMzQyNSAxOTc4ICYjMTA7TCAzNDI1IDAgJiMxMDtMIDI4NDcgMCAmIzEwO0wgMjg0NyAyMDk0ICYjMTA7USAyODQ3IDI2MDAgMjY2OSAyODQyICYjMTA7USAyNDkxIDMwODQgMjExOSAzMDg0ICYjMTA7USAxNjc4IDMwODQgMTQxOCAyNzg2ICYjMTA7USAxMTU5IDI0ODggMTE1OSAxOTc4ICYjMTA7TCAxMTU5IDAgJiMxMDtMIDU4MSAwICYjMTA7TCA1ODEgMzUwMCAmIzEwO0wgMTE1OSAzNTAwICYjMTA7TCAxMTU5IDI5NTYgJiMxMDtRIDEzNTYgMzI3OCAxNjMxIDM0MzEgJiMxMDtRIDE5MDYgMzU4NCAyMjg0IDM1ODQgJiMxMDtRIDI2NjYgMzU4NCAyOTMzIDMzOTAgJiMxMDtRIDMyMDAgMzE5NyAzMzI4IDI4MjggJiMxMDt6IiBpZD0iRGVqYVZ1U2Fucy02ZCIvPiYjeGE7ICAgICAgIDxwYXRoIHRyYW5zZm9ybT0ic2NhbGUoMC4wMTU2MjUpIiBkPSJNIDMxMTYgMTc0NyAmIzEwO1EgMzExNiAyMzgxIDI4NTUgMjc0MiAmIzEwO1EgMjU5NCAzMTAzIDIxMzggMzEwMyAmIzEwO1EgMTY4MSAzMTAzIDE0MjAgMjc0MiAmIzEwO1EgMTE1OSAyMzgxIDExNTkgMTc0NyAmIzEwO1EgMTE1OSAxMTEzIDE0MjAgNzUyICYjMTA7USAxNjgxIDM5MSAyMTM4IDM5MSAmIzEwO1EgMjU5NCAzOTEgMjg1NSA3NTIgJiMxMDtRIDMxMTYgMTExMyAzMTE2IDE3NDcgJiMxMDt6JiMxMDtNIDExNTkgMjk2OSAmIzEwO1EgMTM0MSAzMjgxIDE2MTcgMzQzMiAmIzEwO1EgMTg5NCAzNTg0IDIyNzggMzU4NCAmIzEwO1EgMjkxNiAzNTg0IDMzMTQgMzA3OCAmIzEwO1EgMzcxMyAyNTcyIDM3MTMgMTc0NyAmIzEwO1EgMzcxMyA5MjIgMzMxNCA0MTUgJiMxMDtRIDI5MTYgLTkxIDIyNzggLTkxICYjMTA7USAxODk0IC05MSAxNjE3IDYxICYjMTA7USAxMzQxIDIxMyAxMTU5IDUyNSAmIzEwO0wgMTE1OSAwICYjMTA7TCA1ODEgMCAmIzEwO0wgNTgxIDQ4NjMgJiMxMDtMIDExNTkgNDg2MyAmIzEwO0wgMTE1OSAyOTY5ICYjMTA7eiIgaWQ9IkRlamFWdVNhbnMtNjIiLz4mI3hhOyAgICAgICA8cGF0aCB0cmFuc2Zvcm09InNjYWxlKDAuMDE1NjI1KSIgZD0iTSAzNTk3IDE4OTQgJiMxMDtMIDM1OTcgMTYxMyAmIzEwO0wgOTUzIDE2MTMgJiMxMDtRIDk5MSAxMDE5IDEzMTEgNzA4ICYjMTA7USAxNjMxIDM5NyAyMjAzIDM5NyAmIzEwO1EgMjUzNCAzOTcgMjg0NSA0NzggJiMxMDtRIDMxNTYgNTU5IDM0NjMgNzIyICYjMTA7TCAzNDYzIDE3OCAmIzEwO1EgMzE1MyA0NyAyODI4IC0yMiAmIzEwO1EgMjUwMyAtOTEgMjE2OSAtOTEgJiMxMDtRIDEzMzEgLTkxIDg0MiAzOTYgJiMxMDtRIDM1MyA4ODQgMzUzIDE3MTYgJiMxMDtRIDM1MyAyNTc1IDgxNyAzMDc5ICYjMTA7USAxMjgxIDM1ODQgMjA2OSAzNTg0ICYjMTA7USAyNzc1IDM1ODQgMzE4NiAzMTI5ICYjMTA7USAzNTk3IDI2NzUgMzU5NyAxODk0ICYjMTA7eiYjMTA7TSAzMDIyIDIwNjMgJiMxMDtRIDMwMTYgMjUzNCAyNzU4IDI4MTUgJiMxMDtRIDI1MDAgMzA5NyAyMDc1IDMwOTcgJiMxMDtRIDE1OTQgMzA5NyAxMzA1IDI4MjUgJiMxMDtRIDEwMTYgMjU1MyA5NzIgMjA1OSAmIzEwO0wgMzAyMiAyMDYzICYjMTA7eiIgaWQ9IkRlamFWdVNhbnMtNjUiLz4mI3hhOyAgICAgICA8cGF0aCB0cmFuc2Zvcm09InNjYWxlKDAuMDE1NjI1KSIgZD0iTSAyNjMxIDI5NjMgJiMxMDtRIDI1MzQgMzAxOSAyNDIwIDMwNDUgJiMxMDtRIDIzMDYgMzA3MiAyMTY5IDMwNzIgJiMxMDtRIDE2ODEgMzA3MiAxNDIwIDI3NTUgJiMxMDtRIDExNTkgMjQzOCAxMTU5IDE4NDQgJiMxMDtMIDExNTkgMCAmIzEwO0wgNTgxIDAgJiMxMDtMIDU4MSAzNTAwICYjMTA7TCAxMTU5IDM1MDAgJiMxMDtMIDExNTkgMjk1NiAmIzEwO1EgMTM0MSAzMjc1IDE2MzEgMzQyOSAmIzEwO1EgMTkyMiAzNTg0IDIzMzggMzU4NCAmIzEwO1EgMjM5NyAzNTg0IDI0NjkgMzU3NiAmIzEwO1EgMjU0MSAzNTY5IDI2MjggMzU1MyAmIzEwO0wgMjYzMSAyOTYzICYjMTA7eiIgaWQ9IkRlamFWdVNhbnMtNzIiLz4mI3hhOyAgICAgICA8cGF0aCB0cmFuc2Zvcm09InNjYWxlKDAuMDE1NjI1KSIgaWQ9IkRlamFWdVNhbnMtMjAiLz4mI3hhOyAgICAgICA8cGF0aCB0cmFuc2Zvcm09InNjYWxlKDAuMDE1NjI1KSIgZD0iTSAxOTU5IDMwOTcgJiMxMDtRIDE0OTcgMzA5NyAxMjI4IDI3MzYgJiMxMDtRIDk1OSAyMzc1IDk1OSAxNzQ3ICYjMTA7USA5NTkgMTExOSAxMjI2IDc1OCAmIzEwO1EgMTQ5NCAzOTcgMTk1OSAzOTcgJiMxMDtRIDI0MTkgMzk3IDI2ODcgNzU5ICYjMTA7USAyOTU2IDExMjIgMjk1NiAxNzQ3ICYjMTA7USAyOTU2IDIzNjkgMjY4NyAyNzMzICYjMTA7USAyNDE5IDMwOTcgMTk1OSAzMDk3ICYjMTA7eiYjMTA7TSAxOTU5IDM1ODQgJiMxMDtRIDI3MDkgMzU4NCAzMTM3IDMwOTYgJiMxMDtRIDM1NjYgMjYwOSAzNTY2IDE3NDcgJiMxMDtRIDM1NjYgODg4IDMxMzcgMzk4ICYjMTA7USAyNzA5IC05MSAxOTU5IC05MSAmIzEwO1EgMTIwNiAtOTEgNzc5IDM5OCAmIzEwO1EgMzUzIDg4OCAzNTMgMTc0NyAmIzEwO1EgMzUzIDI2MDkgNzc5IDMwOTYgJiMxMDtRIDEyMDYgMzU4NCAxOTU5IDM1ODQgJiMxMDt6IiBpZD0iRGVqYVZ1U2Fucy02ZiIvPiYjeGE7ICAgICAgIDxwYXRoIHRyYW5zZm9ybT0ic2NhbGUoMC4wMTU2MjUpIiBkPSJNIDIzNzUgNDg2MyAmIzEwO0wgMjM3NSA0Mzg0ICYjMTA7TCAxODI1IDQzODQgJiMxMDtRIDE1MTYgNDM4NCAxMzk1IDQyNTkgJiMxMDtRIDEyNzUgNDEzNCAxMjc1IDM4MDkgJiMxMDtMIDEyNzUgMzUwMCAmIzEwO0wgMjIyMiAzNTAwICYjMTA7TCAyMjIyIDMwNTMgJiMxMDtMIDEyNzUgMzA1MyAmIzEwO0wgMTI3NSAwICYjMTA7TCA2OTcgMCAmIzEwO0wgNjk3IDMwNTMgJiMxMDtMIDE0NyAzMDUzICYjMTA7TCAxNDcgMzUwMCAmIzEwO0wgNjk3IDM1MDAgJiMxMDtMIDY5NyAzNzQ0ICYjMTA7USA2OTcgNDMyOCA5NjkgNDU5NSAmIzEwO1EgMTI0MSA0ODYzIDE4MzEgNDg2MyAmIzEwO0wgMjM3NSA0ODYzICYjMTA7eiIgaWQ9IkRlamFWdVNhbnMtNjYiLz4mI3hhOyAgICAgICA8cGF0aCB0cmFuc2Zvcm09InNjYWxlKDAuMDE1NjI1KSIgZD0iTSAxMjU5IDQxNDcgJiMxMDtMIDEyNTkgMjM5NCAmIzEwO0wgMjA1MyAyMzk0ICYjMTA7USAyNDk0IDIzOTQgMjczNCAyNjIyICYjMTA7USAyOTc1IDI4NTAgMjk3NSAzMjcyICYjMTA7USAyOTc1IDM2OTEgMjczNCAzOTE5ICYjMTA7USAyNDk0IDQxNDcgMjA1MyA0MTQ3ICYjMTA7TCAxMjU5IDQxNDcgJiMxMDt6JiMxMDtNIDYyOCA0NjY2ICYjMTA7TCAyMDUzIDQ2NjYgJiMxMDtRIDI4MzggNDY2NiAzMjM5IDQzMTEgJiMxMDtRIDM2NDEgMzk1NiAzNjQxIDMyNzIgJiMxMDtRIDM2NDEgMjU4MSAzMjM5IDIyMjggJiMxMDtRIDI4MzggMTg3NSAyMDUzIDE4NzUgJiMxMDtMIDEyNTkgMTg3NSAmIzEwO0wgMTI1OSAwICYjMTA7TCA2MjggMCAmIzEwO0wgNjI4IDQ2NjYgJiMxMDt6IiBpZD0iRGVqYVZ1U2Fucy01MCIvPiYjeGE7ICAgICAgIDxwYXRoIHRyYW5zZm9ybT0ic2NhbGUoMC4wMTU2MjUpIiBkPSJNIDIxOTQgMTc1OSAmIzEwO1EgMTQ5NyAxNzU5IDEyMjggMTYwMCAmIzEwO1EgOTU5IDE0NDEgOTU5IDEwNTYgJiMxMDtRIDk1OSA3NTAgMTE2MSA1NzAgJiMxMDtRIDEzNjMgMzkxIDE3MDkgMzkxICYjMTA7USAyMTg4IDM5MSAyNDc3IDczMCAmIzEwO1EgMjc2NiAxMDY5IDI3NjYgMTYzMSAmIzEwO0wgMjc2NiAxNzU5ICYjMTA7TCAyMTk0IDE3NTkgJiMxMDt6JiMxMDtNIDMzNDEgMTk5NyAmIzEwO0wgMzM0MSAwICYjMTA7TCAyNzY2IDAgJiMxMDtMIDI3NjYgNTMxICYjMTA7USAyNTY5IDIxMyAyMjc1IDYxICYjMTA7USAxOTgxIC05MSAxNTU2IC05MSAmIzEwO1EgMTAxOSAtOTEgNzAxIDIxMSAmIzEwO1EgMzg0IDUxMyAzODQgMTAxOSAmIzEwO1EgMzg0IDE2MDkgNzc5IDE5MDkgJiMxMDtRIDExNzUgMjIwOSAxOTU5IDIyMDkgJiMxMDtMIDI3NjYgMjIwOSAmIzEwO0wgMjc2NiAyMjY2ICYjMTA7USAyNzY2IDI2NjMgMjUwNSAyODgwICYjMTA7USAyMjQ0IDMwOTcgMTc3MiAzMDk3ICYjMTA7USAxNDcyIDMwOTcgMTE4NyAzMDI1ICYjMTA7USA5MDMgMjk1MyA2NDEgMjgwOSAmIzEwO0wgNjQxIDMzNDEgJiMxMDtRIDk1NiAzNDYzIDEyNTMgMzUyMyAmIzEwO1EgMTU1MCAzNTg0IDE4MzEgMzU4NCAmIzEwO1EgMjU5MSAzNTg0IDI5NjYgMzE5MCAmIzEwO1EgMzM0MSAyNzk3IDMzNDEgMTk5NyAmIzEwO3oiIGlkPSJEZWphVnVTYW5zLTYxIi8+JiN4YTsgICAgICAgPHBhdGggdHJhbnNmb3JtPSJzY2FsZSgwLjAxNTYyNSkiIGQ9Ik0gMTE3MiA0NDk0ICYjMTA7TCAxMTcyIDM1MDAgJiMxMDtMIDIzNTYgMzUwMCAmIzEwO0wgMjM1NiAzMDUzICYjMTA7TCAxMTcyIDMwNTMgJiMxMDtMIDExNzIgMTE1MyAmIzEwO1EgMTE3MiA3MjUgMTI4OSA2MDMgJiMxMDtRIDE0MDYgNDgxIDE3NjYgNDgxICYjMTA7TCAyMzU2IDQ4MSAmIzEwO0wgMjM1NiAwICYjMTA7TCAxNzY2IDAgJiMxMDtRIDExMDAgMCA4NDcgMjQ4ICYjMTA7USA1OTQgNDk3IDU5NCAxMTUzICYjMTA7TCA1OTQgMzA1MyAmIzEwO0wgMTcyIDMwNTMgJiMxMDtMIDE3MiAzNTAwICYjMTA7TCA1OTQgMzUwMCAmIzEwO0wgNTk0IDQ0OTQgJiMxMDtMIDExNzIgNDQ5NCAmIzEwO3oiIGlkPSJEZWphVnVTYW5zLTc0Ii8+JiN4YTsgICAgICAgPHBhdGggdHJhbnNmb3JtPSJzY2FsZSgwLjAxNTYyNSkiIGQ9Ik0gNjAzIDM1MDAgJiMxMDtMIDExNzggMzUwMCAmIzEwO0wgMTE3OCAwICYjMTA7TCA2MDMgMCAmIzEwO0wgNjAzIDM1MDAgJiMxMDt6JiMxMDtNIDYwMyA0ODYzICYjMTA7TCAxMTc4IDQ4NjMgJiMxMDtMIDExNzggNDEzNCAmIzEwO0wgNjAzIDQxMzQgJiMxMDtMIDYwMyA0ODYzICYjMTA7eiIgaWQ9IkRlamFWdVNhbnMtNjkiLz4mI3hhOyAgICAgICA8cGF0aCB0cmFuc2Zvcm09InNjYWxlKDAuMDE1NjI1KSIgZD0iTSAzMTIyIDMzNjYgJiMxMDtMIDMxMjIgMjgyOCAmIzEwO1EgMjg3OCAyOTYzIDI2MzMgMzAzMCAmIzEwO1EgMjM4OCAzMDk3IDIxMzggMzA5NyAmIzEwO1EgMTU3OCAzMDk3IDEyNjggMjc0MiAmIzEwO1EgOTU5IDIzODggOTU5IDE3NDcgJiMxMDtRIDk1OSAxMTA2IDEyNjggNzUxICYjMTA7USAxNTc4IDM5NyAyMTM4IDM5NyAmIzEwO1EgMjM4OCAzOTcgMjYzMyA0NjQgJiMxMDtRIDI4NzggNTMxIDMxMjIgNjY2ICYjMTA7TCAzMTIyIDEzNCAmIzEwO1EgMjg4MSAyMiAyNjIzIC0zNCAmIzEwO1EgMjM2NiAtOTEgMjA3NSAtOTEgJiMxMDtRIDEyODQgLTkxIDgxOCA0MDYgJiMxMDtRIDM1MyA5MDMgMzUzIDE3NDcgJiMxMDtRIDM1MyAyNjAzIDgyMyAzMDkzICYjMTA7USAxMjk0IDM1ODQgMjExMyAzNTg0ICYjMTA7USAyMzc4IDM1ODQgMjYzMSAzNTI5ICYjMTA7USAyODg0IDM0NzUgMzEyMiAzMzY2ICYjMTA7eiIgaWQ9IkRlamFWdVNhbnMtNjMiLz4mI3hhOyAgICAgICA8cGF0aCB0cmFuc2Zvcm09InNjYWxlKDAuMDE1NjI1KSIgZD0iTSAxMTU5IDUyNSAmIzEwO0wgMTE1OSAtMTMzMSAmIzEwO0wgNTgxIC0xMzMxICYjMTA7TCA1ODEgMzUwMCAmIzEwO0wgMTE1OSAzNTAwICYjMTA7TCAxMTU5IDI5NjkgJiMxMDtRIDEzNDEgMzI4MSAxNjE3IDM0MzIgJiMxMDtRIDE4OTQgMzU4NCAyMjc4IDM1ODQgJiMxMDtRIDI5MTYgMzU4NCAzMzE0IDMwNzggJiMxMDtRIDM3MTMgMjU3MiAzNzEzIDE3NDcgJiMxMDtRIDM3MTMgOTIyIDMzMTQgNDE1ICYjMTA7USAyOTE2IC05MSAyMjc4IC05MSAmIzEwO1EgMTg5NCAtOTEgMTYxNyA2MSAmIzEwO1EgMTM0MSAyMTMgMTE1OSA1MjUgJiMxMDt6JiMxMDtNIDMxMTYgMTc0NyAmIzEwO1EgMzExNiAyMzgxIDI4NTUgMjc0MiAmIzEwO1EgMjU5NCAzMTAzIDIxMzggMzEwMyAmIzEwO1EgMTY4MSAzMTAzIDE0MjAgMjc0MiAmIzEwO1EgMTE1OSAyMzgxIDExNTkgMTc0NyAmIzEwO1EgMTE1OSAxMTEzIDE0MjAgNzUyICYjMTA7USAxNjgxIDM5MSAyMTM4IDM5MSAmIzEwO1EgMjU5NCAzOTEgMjg1NSA3NTIgJiMxMDtRIDMxMTYgMTExMyAzMTE2IDE3NDcgJiMxMDt6IiBpZD0iRGVqYVZ1U2Fucy03MCIvPiYjeGE7ICAgICAgIDxwYXRoIHRyYW5zZm9ybT0ic2NhbGUoMC4wMTU2MjUpIiBkPSJNIDM1MTMgMjExMyAmIzEwO0wgMzUxMyAwICYjMTA7TCAyOTM4IDAgJiMxMDtMIDI5MzggMjA5NCAmIzEwO1EgMjkzOCAyNTkxIDI3NDQgMjgzNyAmIzEwO1EgMjU1MCAzMDg0IDIxNjMgMzA4NCAmIzEwO1EgMTY5NyAzMDg0IDE0MjggMjc4NyAmIzEwO1EgMTE1OSAyNDkxIDExNTkgMTk3OCAmIzEwO0wgMTE1OSAwICYjMTA7TCA1ODEgMCAmIzEwO0wgNTgxIDM1MDAgJiMxMDtMIDExNTkgMzUwMCAmIzEwO0wgMTE1OSAyOTU2ICYjMTA7USAxMzY2IDMyNzIgMTY0NSAzNDI4ICYjMTA7USAxOTI1IDM1ODQgMjI5MSAzNTg0ICYjMTA7USAyODk0IDM1ODQgMzIwMyAzMjExICYjMTA7USAzNTEzIDI4MzggMzUxMyAyMTEzICYjMTA7eiIgaWQ9IkRlamFWdVNhbnMtNmUiLz4mI3hhOyAgICAgICA8cGF0aCB0cmFuc2Zvcm09InNjYWxlKDAuMDE1NjI1KSIgZD0iTSAyODM0IDMzOTcgJiMxMDtMIDI4MzQgMjg1MyAmIzEwO1EgMjU5MSAyOTc4IDIzMjggMzA0MCAmIzEwO1EgMjA2NiAzMTAzIDE3ODQgMzEwMyAmIzEwO1EgMTM1NiAzMTAzIDExNDIgMjk3MiAmIzEwO1EgOTI4IDI4NDEgOTI4IDI1NzggJiMxMDtRIDkyOCAyMzc4IDEwODEgMjI2NCAmIzEwO1EgMTIzNCAyMTUwIDE2OTcgMjA0NyAmIzEwO0wgMTg5NCAyMDAzICYjMTA7USAyNTA2IDE4NzIgMjc2NCAxNjMzICYjMTA7USAzMDIyIDEzOTQgMzAyMiA5NjYgJiMxMDtRIDMwMjIgNDc4IDI2MzYgMTkzICYjMTA7USAyMjUwIC05MSAxNTc1IC05MSAmIzEwO1EgMTI5NCAtOTEgOTg5IC0zNiAmIzEwO1EgNjg0IDE5IDM0NyAxMjggJiMxMDtMIDM0NyA3MjIgJiMxMDtRIDY2NiA1NTYgOTc1IDQ3MyAmIzEwO1EgMTI4NCAzOTEgMTU4OCAzOTEgJiMxMDtRIDE5OTQgMzkxIDIyMTIgNTMwICYjMTA7USAyNDMxIDY2OSAyNDMxIDkyMiAmIzEwO1EgMjQzMSAxMTU2IDIyNzMgMTI4MSAmIzEwO1EgMjExNiAxNDA2IDE1ODEgMTUyMiAmIzEwO0wgMTM4MSAxNTY5ICYjMTA7USA4NDcgMTY4MSA2MDkgMTkxNCAmIzEwO1EgMzcyIDIxNDcgMzcyIDI1NTMgJiMxMDtRIDM3MiAzMDQ3IDcyMiAzMzE1ICYjMTA7USAxMDcyIDM1ODQgMTcxNiAzNTg0ICYjMTA7USAyMDM0IDM1ODQgMjMxNSAzNTM3ICYjMTA7USAyNTk3IDM0OTEgMjgzNCAzMzk3ICYjMTA7eiIgaWQ9IkRlamFWdVNhbnMtNzMiLz4mI3hhOyAgICAgIDwvZGVmcz4mI3hhOyAgICAgIDx1c2UgeGxpbms6aHJlZj0iI0RlamFWdVNhbnMtNGUiLz4mI3hhOyAgICAgIDx1c2UgeD0iNzQuODA0Njg4IiB4bGluazpocmVmPSIjRGVqYVZ1U2Fucy03NSIvPiYjeGE7ICAgICAgPHVzZSB4PSIxMzguMTgzNTk0IiB4bGluazpocmVmPSIjRGVqYVZ1U2Fucy02ZCIvPiYjeGE7ICAgICAgPHVzZSB4PSIyMzUuNTk1NzAzIiB4bGluazpocmVmPSIjRGVqYVZ1U2Fucy02MiIvPiYjeGE7ICAgICAgPHVzZSB4PSIyOTkuMDcyMjY2IiB4bGluazpocmVmPSIjRGVqYVZ1U2Fucy02NSIvPiYjeGE7ICAgICAgPHVzZSB4PSIzNjAuNTk1NzAzIiB4bGluazpocmVmPSIjRGVqYVZ1U2Fucy03MiIvPiYjeGE7ICAgICAgPHVzZSB4PSI0MDEuNzA4OTg0IiB4bGluazpocmVmPSIjRGVqYVZ1U2Fucy0yMCIvPiYjeGE7ICAgICAgPHVzZSB4PSI0MzMuNDk2MDk0IiB4bGluazpocmVmPSIjRGVqYVZ1U2Fucy02ZiIvPiYjeGE7ICAgICAgPHVzZSB4PSI0OTQuNjc3NzM0IiB4bGluazpocmVmPSIjRGVqYVZ1U2Fucy02NiIvPiYjeGE7ICAgICAgPHVzZSB4PSI1MjkuODgyODEyIiB4bGluazpocmVmPSIjRGVqYVZ1U2Fucy0yMCIvPiYjeGE7ICAgICAgPHVzZSB4PSI1NjEuNjY5OTIyIiB4bGluazpocmVmPSIjRGVqYVZ1U2Fucy01MCIvPiYjeGE7ICAgICAgPHVzZSB4PSI2MTcuNDcyNjU2IiB4bGluazpocmVmPSIjRGVqYVZ1U2Fucy02MSIvPiYjeGE7ICAgICAgPHVzZSB4PSI2NzguNzUxOTUzIiB4bGluazpocmVmPSIjRGVqYVZ1U2Fucy03MiIvPiYjeGE7ICAgICAgPHVzZSB4PSI3MTkuODY1MjM0IiB4bGluazpocmVmPSIjRGVqYVZ1U2Fucy03NCIvPiYjeGE7ICAgICAgPHVzZSB4PSI3NTkuMDc0MjE5IiB4bGluazpocmVmPSIjRGVqYVZ1U2Fucy02OSIvPiYjeGE7ICAgICAgPHVzZSB4PSI3ODYuODU3NDIyIiB4bGluazpocmVmPSIjRGVqYVZ1U2Fucy02MyIvPiYjeGE7ICAgICAgPHVzZSB4PSI4NDEuODM3ODkxIiB4bGluazpocmVmPSIjRGVqYVZ1U2Fucy02OSIvPiYjeGE7ICAgICAgPHVzZSB4PSI4NjkuNjIxMDk0IiB4bGluazpocmVmPSIjRGVqYVZ1U2Fucy03MCIvPiYjeGE7ICAgICAgPHVzZSB4PSI5MzMuMDk3NjU2IiB4bGluazpocmVmPSIjRGVqYVZ1U2Fucy02MSIvPiYjeGE7ICAgICAgPHVzZSB4PSI5OTQuMzc2OTUzIiB4bGluazpocmVmPSIjRGVqYVZ1U2Fucy02ZSIvPiYjeGE7ICAgICAgPHVzZSB4PSIxMDU3Ljc1NTg1OSIgeGxpbms6aHJlZj0iI0RlamFWdVNhbnMtNzQiLz4mI3hhOyAgICAgIDx1c2UgeD0iMTA5Ni45NjQ4NDQiIHhsaW5rOmhyZWY9IiNEZWphVnVTYW5zLTczIi8+JiN4YTsgICAgIDwvZz4mI3hhOyAgICA8L2c+JiN4YTsgICA8L2c+JiN4YTsgICA8ZyBpZD0ibWF0cGxvdGxpYi5heGlzXzIiPiYjeGE7ICAgIDxnIGlkPSJ5dGlja18xIj4mI3hhOyAgICAgPGcgaWQ9ImxpbmUyZF82Ij4mI3hhOyAgICAgIDxkZWZzPiYjeGE7ICAgICAgIDxwYXRoIHN0eWxlPSJzdHJva2U6ICMwMDAwMDA7IHN0cm9rZS13aWR0aDogMC44IiBkPSJNIDAgMCAmIzEwO0wgLTMuNSAwIiBpZD0ibTMxNDFiNjdjZDMiLz4mI3hhOyAgICAgIDwvZGVmcz4mI3hhOyAgICAgIDxnPiYjeGE7ICAgICAgIDx1c2Ugc3R5bGU9InN0cm9rZTogIzAwMDAwMDsgc3Ryb2tlLXdpZHRoOiAwLjgiIHk9IjMwNy41ODQiIHg9IjU3LjYiIHhsaW5rOmhyZWY9IiNtMzE0MWI2N2NkMyIvPiYjeGE7ICAgICAgPC9nPiYjeGE7ICAgICA8L2c+JiN4YTsgICAgIDxnIGlkPSJ0ZXh0XzciPiYjeGE7ICAgICAgJiN4YTsgICAgICA8ZyB0cmFuc2Zvcm09InRyYW5zbGF0ZSg0Mi45NjUgMzEyLjE0MzA2Mikgc2NhbGUoMC4xMiAtMC4xMikiPiYjeGE7ICAgICAgIDx1c2UgeGxpbms6aHJlZj0iI0RlamFWdVNhbnMtMzAiLz4mI3hhOyAgICAgIDwvZz4mI3hhOyAgICAgPC9nPiYjeGE7ICAgIDwvZz4mI3hhOyAgICA8ZyBpZD0ieXRpY2tfMiI+JiN4YTsgICAgIDxnIGlkPSJsaW5lMmRfNyI+JiN4YTsgICAgICA8Zz4mI3hhOyAgICAgICA8dXNlIHN0eWxlPSJzdHJva2U6ICMwMDAwMDA7IHN0cm9rZS13aWR0aDogMC44IiB5PSIyNTMuOTQ5NTQ0IiB4PSI1Ny42IiB4bGluazpocmVmPSIjbTMxNDFiNjdjZDMiLz4mI3hhOyAgICAgIDwvZz4mI3hhOyAgICAgPC9nPiYjeGE7ICAgICA8ZyBpZD0idGV4dF84Ij4mI3hhOyAgICAgICYjeGE7ICAgICAgPGcgdHJhbnNmb3JtPSJ0cmFuc2xhdGUoMzUuMzMgMjU4LjUwODYwNikgc2NhbGUoMC4xMiAtMC4xMikiPiYjeGE7ICAgICAgIDx1c2UgeGxpbms6aHJlZj0iI0RlamFWdVNhbnMtMzUiLz4mI3hhOyAgICAgICA8dXNlIHg9IjYzLjYyMzA0NyIgeGxpbms6aHJlZj0iI0RlamFWdVNhbnMtMzAiLz4mI3hhOyAgICAgIDwvZz4mI3hhOyAgICAgPC9nPiYjeGE7ICAgIDwvZz4mI3hhOyAgICA8ZyBpZD0ieXRpY2tfMyI+JiN4YTsgICAgIDxnIGlkPSJsaW5lMmRfOCI+JiN4YTsgICAgICA8Zz4mI3hhOyAgICAgICA8dXNlIHN0eWxlPSJzdHJva2U6ICMwMDAwMDA7IHN0cm9rZS13aWR0aDogMC44IiB5PSIyMDAuMzE1MDg4IiB4PSI1Ny42IiB4bGluazpocmVmPSIjbTMxNDFiNjdjZDMiLz4mI3hhOyAgICAgIDwvZz4mI3hhOyAgICAgPC9nPiYjeGE7ICAgICA8ZyBpZD0idGV4dF85Ij4mI3hhOyAgICAgICYjeGE7ICAgICAgPGcgdHJhbnNmb3JtPSJ0cmFuc2xhdGUoMjcuNjk1IDIwNC44NzQxNSkgc2NhbGUoMC4xMiAtMC4xMikiPiYjeGE7ICAgICAgIDx1c2UgeGxpbms6aHJlZj0iI0RlamFWdVNhbnMtMzEiLz4mI3hhOyAgICAgICA8dXNlIHg9IjYzLjYyMzA0NyIgeGxpbms6aHJlZj0iI0RlamFWdVNhbnMtMzAiLz4mI3hhOyAgICAgICA8dXNlIHg9IjEyNy4yNDYwOTQiIHhsaW5rOmhyZWY9IiNEZWphVnVTYW5zLTMwIi8+JiN4YTsgICAgICA8L2c+JiN4YTsgICAgIDwvZz4mI3hhOyAgICA8L2c+JiN4YTsgICAgPGcgaWQ9Inl0aWNrXzQiPiYjeGE7ICAgICA8ZyBpZD0ibGluZTJkXzkiPiYjeGE7ICAgICAgPGc+JiN4YTsgICAgICAgPHVzZSBzdHlsZT0ic3Ryb2tlOiAjMDAwMDAwOyBzdHJva2Utd2lkdGg6IDAuOCIgeT0iMTQ2LjY4MDYzMiIgeD0iNTcuNiIgeGxpbms6aHJlZj0iI20zMTQxYjY3Y2QzIi8+JiN4YTsgICAgICA8L2c+JiN4YTsgICAgIDwvZz4mI3hhOyAgICAgPGcgaWQ9InRleHRfMTAiPiYjeGE7ICAgICAgJiN4YTsgICAgICA8ZyB0cmFuc2Zvcm09InRyYW5zbGF0ZSgyNy42OTUgMTUxLjIzOTY5NCkgc2NhbGUoMC4xMiAtMC4xMikiPiYjeGE7ICAgICAgIDx1c2UgeGxpbms6aHJlZj0iI0RlamFWdVNhbnMtMzEiLz4mI3hhOyAgICAgICA8dXNlIHg9IjYzLjYyMzA0NyIgeGxpbms6aHJlZj0iI0RlamFWdVNhbnMtMzUiLz4mI3hhOyAgICAgICA8dXNlIHg9IjEyNy4yNDYwOTQiIHhsaW5rOmhyZWY9IiNEZWphVnVTYW5zLTMwIi8+JiN4YTsgICAgICA8L2c+JiN4YTsgICAgIDwvZz4mI3hhOyAgICA8L2c+JiN4YTsgICAgPGcgaWQ9Inl0aWNrXzUiPiYjeGE7ICAgICA8ZyBpZD0ibGluZTJkXzEwIj4mI3hhOyAgICAgIDxnPiYjeGE7ICAgICAgIDx1c2Ugc3R5bGU9InN0cm9rZTogIzAwMDAwMDsgc3Ryb2tlLXdpZHRoOiAwLjgiIHk9IjkzLjA0NjE3NiIgeD0iNTcuNiIgeGxpbms6aHJlZj0iI20zMTQxYjY3Y2QzIi8+JiN4YTsgICAgICA8L2c+JiN4YTsgICAgIDwvZz4mI3hhOyAgICAgPGcgaWQ9InRleHRfMTEiPiYjeGE7ICAgICAgJiN4YTsgICAgICA8ZyB0cmFuc2Zvcm09InRyYW5zbGF0ZSgyNy42OTUgOTcuNjA1MjM4KSBzY2FsZSgwLjEyIC0wLjEyKSI+JiN4YTsgICAgICAgPHVzZSB4bGluazpocmVmPSIjRGVqYVZ1U2Fucy0zMiIvPiYjeGE7ICAgICAgIDx1c2UgeD0iNjMuNjIzMDQ3IiB4bGluazpocmVmPSIjRGVqYVZ1U2Fucy0zMCIvPiYjeGE7ICAgICAgIDx1c2UgeD0iMTI3LjI0NjA5NCIgeGxpbms6aHJlZj0iI0RlamFWdVNhbnMtMzAiLz4mI3hhOyAgICAgIDwvZz4mI3hhOyAgICAgPC9nPiYjeGE7ICAgIDwvZz4mI3hhOyAgICA8ZyBpZD0idGV4dF8xMiI+JiN4YTsgICAgICYjeGE7ICAgICA8ZyB0cmFuc2Zvcm09InRyYW5zbGF0ZSgyMS4xOTkzNzUgMjg5LjU5NzY4OCkgcm90YXRlKC05MCkgc2NhbGUoMC4xMiAtMC4xMikiPiYjeGE7ICAgICAgPGRlZnM+JiN4YTsgICAgICAgPHBhdGggdHJhbnNmb3JtPSJzY2FsZSgwLjAxNTYyNSkiIGQ9Ik0gLTE5IDQ2NjYgJiMxMDtMIDM5MjggNDY2NiAmIzEwO0wgMzkyOCA0MTM0ICYjMTA7TCAyMjcyIDQxMzQgJiMxMDtMIDIyNzIgMCAmIzEwO0wgMTYzOCAwICYjMTA7TCAxNjM4IDQxMzQgJiMxMDtMIC0xOSA0MTM0ICYjMTA7TCAtMTkgNDY2NiAmIzEwO3oiIGlkPSJEZWphVnVTYW5zLTU0Ii8+JiN4YTsgICAgICAgPHBhdGggdHJhbnNmb3JtPSJzY2FsZSgwLjAxNTYyNSkiIGQ9Ik0gNTgxIDQ4NjMgJiMxMDtMIDExNTkgNDg2MyAmIzEwO0wgMTE1OSAxOTkxICYjMTA7TCAyODc1IDM1MDAgJiMxMDtMIDM2MDkgMzUwMCAmIzEwO0wgMTc1MyAxODYzICYjMTA7TCAzNjg4IDAgJiMxMDtMIDI5MzggMCAmIzEwO0wgMTE1OSAxNzA5ICYjMTA7TCAxMTU5IDAgJiMxMDtMIDU4MSAwICYjMTA7TCA1ODEgNDg2MyAmIzEwO3oiIGlkPSJEZWphVnVTYW5zLTZiIi8+JiN4YTsgICAgICAgPHBhdGggdHJhbnNmb3JtPSJzY2FsZSgwLjAxNTYyNSkiIGQ9Ik0gNDEyMiA0MzA2ICYjMTA7TCA0MTIyIDM2NDEgJiMxMDtRIDM4MDMgMzkzOCAzNDQyIDQwODQgJiMxMDtRIDMwODEgNDIzMSAyNjc1IDQyMzEgJiMxMDtRIDE4NzUgNDIzMSAxNDUwIDM3NDIgJiMxMDtRIDEwMjUgMzI1MyAxMDI1IDIzMjggJiMxMDtRIDEwMjUgMTQwNiAxNDUwIDkxNyAmIzEwO1EgMTg3NSA0MjggMjY3NSA0MjggJiMxMDtRIDMwODEgNDI4IDM0NDIgNTc1ICYjMTA7USAzODAzIDcyMiA0MTIyIDEwMTkgJiMxMDtMIDQxMjIgMzU5ICYjMTA7USAzNzkxIDEzNCAzNDIwIDIxICYjMTA7USAzMDUwIC05MSAyNjM4IC05MSAmIzEwO1EgMTU3OCAtOTEgOTY4IDU1NyAmIzEwO1EgMzU5IDEyMDYgMzU5IDIzMjggJiMxMDtRIDM1OSAzNDUzIDk2OCA0MTAxICYjMTA7USAxNTc4IDQ3NTAgMjYzOCA0NzUwICYjMTA7USAzMDU2IDQ3NTAgMzQyNiA0NjM5ICYjMTA7USAzNzk3IDQ1MjggNDEyMiA0MzA2ICYjMTA7eiIgaWQ9IkRlamFWdVNhbnMtNDMiLz4mI3hhOyAgICAgICA8cGF0aCB0cmFuc2Zvcm09InNjYWxlKDAuMDE1NjI1KSIgZD0iTSAxOTg0IDQ4NTYgJiMxMDtRIDE1NjYgNDEzOCAxMzYyIDM0MzQgJiMxMDtRIDExNTkgMjczMSAxMTU5IDIwMDkgJiMxMDtRIDExNTkgMTI4OCAxMzY0IDU4MCAmIzEwO1EgMTU2OSAtMTI4IDE5ODQgLTg0NCAmIzEwO0wgMTQ4NCAtODQ0ICYjMTA7USAxMDE2IC0xMDkgNzgzIDYwMCAmIzEwO1EgNTUwIDEzMDkgNTUwIDIwMDkgJiMxMDtRIDU1MCAyNzA2IDc4MSAzNDEyICYjMTA7USAxMDEzIDQxMTkgMTQ4NCA0ODU2ICYjMTA7TCAxOTg0IDQ4NTYgJiMxMDt6IiBpZD0iRGVqYVZ1U2Fucy0yOCIvPiYjeGE7ICAgICAgIDxwYXRoIHRyYW5zZm9ybT0ic2NhbGUoMC4wMTU2MjUpIiBkPSJNIDI5MDYgMjk2OSAmIzEwO0wgMjkwNiA0ODYzICYjMTA7TCAzNDgxIDQ4NjMgJiMxMDtMIDM0ODEgMCAmIzEwO0wgMjkwNiAwICYjMTA7TCAyOTA2IDUyNSAmIzEwO1EgMjcyNSAyMTMgMjQ0OCA2MSAmIzEwO1EgMjE3MiAtOTEgMTc4NCAtOTEgJiMxMDtRIDExNTAgLTkxIDc1MSA0MTUgJiMxMDtRIDM1MyA5MjIgMzUzIDE3NDcgJiMxMDtRIDM1MyAyNTcyIDc1MSAzMDc4ICYjMTA7USAxMTUwIDM1ODQgMTc4NCAzNTg0ICYjMTA7USAyMTcyIDM1ODQgMjQ0OCAzNDMyICYjMTA7USAyNzI1IDMyODEgMjkwNiAyOTY5ICYjMTA7eiYjMTA7TSA5NDcgMTc0NyAmIzEwO1EgOTQ3IDExMTMgMTIwOCA3NTIgJiMxMDtRIDE0NjkgMzkxIDE5MjUgMzkxICYjMTA7USAyMzgxIDM5MSAyNjQzIDc1MiAmIzEwO1EgMjkwNiAxMTEzIDI5MDYgMTc0NyAmIzEwO1EgMjkwNiAyMzgxIDI2NDMgMjc0MiAmIzEwO1EgMjM4MSAzMTAzIDE5MjUgMzEwMyAmIzEwO1EgMTQ2OSAzMTAzIDEyMDggMjc0MiAmIzEwO1EgOTQ3IDIzODEgOTQ3IDE3NDcgJiMxMDt6IiBpZD0iRGVqYVZ1U2Fucy02NCIvPiYjeGE7ICAgICAgIDxwYXRoIHRyYW5zZm9ybT0ic2NhbGUoMC4wMTU2MjUpIiBkPSJNIDUxMyA0ODU2ICYjMTA7TCAxMDEzIDQ4NTYgJiMxMDtRIDE0ODEgNDExOSAxNzE0IDM0MTIgJiMxMDtRIDE5NDcgMjcwNiAxOTQ3IDIwMDkgJiMxMDtRIDE5NDcgMTMwOSAxNzE0IDYwMCAmIzEwO1EgMTQ4MSAtMTA5IDEwMTMgLTg0NCAmIzEwO0wgNTEzIC04NDQgJiMxMDtRIDkyOCAtMTI4IDExMzMgNTgwICYjMTA7USAxMzM4IDEyODggMTMzOCAyMDA5ICYjMTA7USAxMzM4IDI3MzEgMTEzMyAzNDM0ICYjMTA7USA5MjggNDEzOCA1MTMgNDg1NiAmIzEwO3oiIGlkPSJEZWphVnVTYW5zLTI5Ii8+JiN4YTsgICAgICA8L2RlZnM+JiN4YTsgICAgICA8dXNlIHhsaW5rOmhyZWY9IiNEZWphVnVTYW5zLTU0Ii8+JiN4YTsgICAgICA8dXNlIHg9IjU3Ljk1ODk4NCIgeGxpbms6aHJlZj0iI0RlamFWdVNhbnMtNjkiLz4mI3hhOyAgICAgIDx1c2UgeD0iODUuNzQyMTg4IiB4bGluazpocmVmPSIjRGVqYVZ1U2Fucy02ZCIvPiYjeGE7ICAgICAgPHVzZSB4PSIxODMuMTU0Mjk3IiB4bGluazpocmVmPSIjRGVqYVZ1U2Fucy02NSIvPiYjeGE7ICAgICAgPHVzZSB4PSIyNDQuNjc3NzM0IiB4bGluazpocmVmPSIjRGVqYVZ1U2Fucy0yMCIvPiYjeGE7ICAgICAgPHVzZSB4PSIyNzYuNDY0ODQ0IiB4bGluazpocmVmPSIjRGVqYVZ1U2Fucy01NCIvPiYjeGE7ICAgICAgPHVzZSB4PSIzMjEuMDQ4ODI4IiB4bGluazpocmVmPSIjRGVqYVZ1U2Fucy02MSIvPiYjeGE7ICAgICAgPHVzZSB4PSIzODIuMzI4MTI1IiB4bGluazpocmVmPSIjRGVqYVZ1U2Fucy02YiIvPiYjeGE7ICAgICAgPHVzZSB4PSI0MzYuNjEzMjgxIiB4bGluazpocmVmPSIjRGVqYVZ1U2Fucy02NSIvPiYjeGE7ICAgICAgPHVzZSB4PSI0OTguMTM2NzE5IiB4bGluazpocmVmPSIjRGVqYVZ1U2Fucy02ZSIvPiYjeGE7ICAgICAgPHVzZSB4PSI1NjEuNTE1NjI1IiB4bGluazpocmVmPSIjRGVqYVZ1U2Fucy0yMCIvPiYjeGE7ICAgICAgPHVzZSB4PSI1OTMuMzAyNzM0IiB4bGluazpocmVmPSIjRGVqYVZ1U2Fucy02NiIvPiYjeGE7ICAgICAgPHVzZSB4PSI2MjguNTA3ODEyIiB4bGluazpocmVmPSIjRGVqYVZ1U2Fucy02ZiIvPiYjeGE7ICAgICAgPHVzZSB4PSI2ODkuNjg5NDUzIiB4bGluazpocmVmPSIjRGVqYVZ1U2Fucy03MiIvPiYjeGE7ICAgICAgPHVzZSB4PSI3MzAuODAyNzM0IiB4bGluazpocmVmPSIjRGVqYVZ1U2Fucy0yMCIvPiYjeGE7ICAgICAgPHVzZSB4PSI3NjIuNTg5ODQ0IiB4bGluazpocmVmPSIjRGVqYVZ1U2Fucy00MyIvPiYjeGE7ICAgICAgPHVzZSB4PSI4MzIuNDE0MDYyIiB4bGluazpocmVmPSIjRGVqYVZ1U2Fucy02ZiIvPiYjeGE7ICAgICAgPHVzZSB4PSI4OTMuNTk1NzAzIiB4bGluazpocmVmPSIjRGVqYVZ1U2Fucy02ZSIvPiYjeGE7ICAgICAgPHVzZSB4PSI5NTYuOTc0NjA5IiB4bGluazpocmVmPSIjRGVqYVZ1U2Fucy03MyIvPiYjeGE7ICAgICAgPHVzZSB4PSIxMDA5LjA3NDIxOSIgeGxpbms6aHJlZj0iI0RlamFWdVNhbnMtNzQiLz4mI3hhOyAgICAgIDx1c2UgeD0iMTA0OC4yODMyMDMiIHhsaW5rOmhyZWY9IiNEZWphVnVTYW5zLTcyIi8+JiN4YTsgICAgICA8dXNlIHg9IjEwODkuMzk2NDg0IiB4bGluazpocmVmPSIjRGVqYVZ1U2Fucy03NSIvPiYjeGE7ICAgICAgPHVzZSB4PSIxMTUyLjc3NTM5MSIgeGxpbms6aHJlZj0iI0RlamFWdVNhbnMtNjMiLz4mI3hhOyAgICAgIDx1c2UgeD0iMTIwNy43NTU4NTkiIHhsaW5rOmhyZWY9IiNEZWphVnVTYW5zLTc0Ii8+JiN4YTsgICAgICA8dXNlIHg9IjEyNDYuOTY0ODQ0IiB4bGluazpocmVmPSIjRGVqYVZ1U2Fucy02OSIvPiYjeGE7ICAgICAgPHVzZSB4PSIxMjc0Ljc0ODA0NyIgeGxpbms6aHJlZj0iI0RlamFWdVNhbnMtNmYiLz4mI3hhOyAgICAgIDx1c2UgeD0iMTMzNS45Mjk2ODgiIHhsaW5rOmhyZWY9IiNEZWphVnVTYW5zLTZlIi8+JiN4YTsgICAgICA8dXNlIHg9IjEzOTkuMzA4NTk0IiB4bGluazpocmVmPSIjRGVqYVZ1U2Fucy0yMCIvPiYjeGE7ICAgICAgPHVzZSB4PSIxNDMxLjA5NTcwMyIgeGxpbms6aHJlZj0iI0RlamFWdVNhbnMtMjgiLz4mI3hhOyAgICAgIDx1c2UgeD0iMTQ3MC4xMDkzNzUiIHhsaW5rOmhyZWY9IiNEZWphVnVTYW5zLTczIi8+JiN4YTsgICAgICA8dXNlIHg9IjE1MjIuMjA4OTg0IiB4bGluazpocmVmPSIjRGVqYVZ1U2Fucy02NSIvPiYjeGE7ICAgICAgPHVzZSB4PSIxNTgzLjczMjQyMiIgeGxpbms6aHJlZj0iI0RlamFWdVNhbnMtNjMiLz4mI3hhOyAgICAgIDx1c2UgeD0iMTYzOC43MTI4OTEiIHhsaW5rOmhyZWY9IiNEZWphVnVTYW5zLTZmIi8+JiN4YTsgICAgICA8dXNlIHg9IjE2OTkuODk0NTMxIiB4bGluazpocmVmPSIjRGVqYVZ1U2Fucy02ZSIvPiYjeGE7ICAgICAgPHVzZSB4PSIxNzYzLjI3MzQzOCIgeGxpbms6aHJlZj0iI0RlamFWdVNhbnMtNjQiLz4mI3hhOyAgICAgIDx1c2UgeD0iMTgyNi43NSIgeGxpbms6aHJlZj0iI0RlamFWdVNhbnMtNzMiLz4mI3hhOyAgICAgIDx1c2UgeD0iMTg3OC44NDk2MDkiIHhsaW5rOmhyZWY9IiNEZWphVnVTYW5zLTI5Ii8+JiN4YTsgICAgIDwvZz4mI3hhOyAgICA8L2c+JiN4YTsgICA8L2c+JiN4YTsgICA8ZyBpZD0icGF0Y2hfOCI+JiN4YTsgICAgPHBhdGggc3R5bGU9ImZpbGw6IG5vbmU7IHN0cm9rZTogIzAwMDAwMDsgc3Ryb2tlLXdpZHRoOiAwLjg7IHN0cm9rZS1saW5lam9pbjogbWl0ZXI7IHN0cm9rZS1saW5lY2FwOiBzcXVhcmUiIGQ9Ik0gNTcuNiAzMDcuNTg0ICYjMTA7TCA1Ny42IDQxLjQ3MiIvPiYjeGE7ICAgPC9nPiYjeGE7ICAgPGcgaWQ9InBhdGNoXzkiPiYjeGE7ICAgIDxwYXRoIHN0eWxlPSJmaWxsOiBub25lOyBzdHJva2U6ICMwMDAwMDA7IHN0cm9rZS13aWR0aDogMC44OyBzdHJva2UtbGluZWpvaW46IG1pdGVyOyBzdHJva2UtbGluZWNhcDogc3F1YXJlIiBkPSJNIDQxNC43MiAzMDcuNTg0ICYjMTA7TCA0MTQuNzIgNDEuNDcyIi8+JiN4YTsgICA8L2c+JiN4YTsgICA8ZyBpZD0icGF0Y2hfMTAiPiYjeGE7ICAgIDxwYXRoIHN0eWxlPSJmaWxsOiBub25lOyBzdHJva2U6ICMwMDAwMDA7IHN0cm9rZS13aWR0aDogMC44OyBzdHJva2UtbGluZWpvaW46IG1pdGVyOyBzdHJva2UtbGluZWNhcDogc3F1YXJlIiBkPSJNIDU3LjYgMzA3LjU4NCAmIzEwO0wgNDE0LjcyIDMwNy41ODQiLz4mI3hhOyAgIDwvZz4mI3hhOyAgIDxnIGlkPSJwYXRjaF8xMSI+JiN4YTsgICAgPHBhdGggc3R5bGU9ImZpbGw6IG5vbmU7IHN0cm9rZTogIzAwMDAwMDsgc3Ryb2tlLXdpZHRoOiAwLjg7IHN0cm9rZS1saW5lam9pbjogbWl0ZXI7IHN0cm9rZS1saW5lY2FwOiBzcXVhcmUiIGQ9Ik0gNTcuNiA0MS40NzIgJiMxMDtMIDQxNC43MiA0MS40NzIiLz4mI3hhOyAgIDwvZz4mI3hhOyAgIDxnIGlkPSJsZWdlbmRfMSI+JiN4YTsgICAgPGcgaWQ9InBhdGNoXzEyIj4mI3hhOyAgICAgPHBhdGggc3R5bGU9ImZpbGw6ICNmZmZmZmY7IG9wYWNpdHk6IDAuODsgc3Ryb2tlOiAjY2NjY2NjOyBzdHJva2UtbGluZWpvaW46IG1pdGVyIiBkPSJNIDY2IDY4LjY4NTc1ICYjMTA7TCAxODAuNDk4NzUgNjguNjg1NzUgJiMxMDtRIDE4Mi44OTg3NSA2OC42ODU3NSAxODIuODk4NzUgNjYuMjg1NzUgJiMxMDtMIDE4Mi44OTg3NSA0OS44NzIgJiMxMDtRIDE4Mi44OTg3NSA0Ny40NzIgMTgwLjQ5ODc1IDQ3LjQ3MiAmIzEwO0wgNjYgNDcuNDcyICYjMTA7USA2My42IDQ3LjQ3MiA2My42IDQ5Ljg3MiAmIzEwO0wgNjMuNiA2Ni4yODU3NSAmIzEwO1EgNjMuNiA2OC42ODU3NSA2NiA2OC42ODU3NSAmIzEwO3oiLz4mI3hhOyAgICA8L2c+JiN4YTsgICAgPGcgaWQ9InBhdGNoXzEzIj4mI3hhOyAgICAgPHBhdGggc3R5bGU9ImZpbGw6ICNmYzhjNWEiIGQ9Ik0gNjguNCA2MS4zOTAxMjUgJiMxMDtMIDkyLjQgNjEuMzkwMTI1ICYjMTA7TCA5Mi40IDUyLjk5MDEyNSAmIzEwO0wgNjguNCA1Mi45OTAxMjUgJiMxMDt6Ii8+JiN4YTsgICAgPC9nPiYjeGE7ICAgIDxnIGlkPSJ0ZXh0XzEzIj4mI3hhOyAgICAgJiN4YTsgICAgIDxnIHRyYW5zZm9ybT0idHJhbnNsYXRlKDEwMiA2MS4zOTAxMjUpIHNjYWxlKDAuMTIgLTAuMTIpIj4mI3hhOyAgICAgIDxkZWZzPiYjeGE7ICAgICAgIDxwYXRoIHRyYW5zZm9ybT0ic2NhbGUoMC4wMTU2MjUpIiBkPSJNIDYyOCA0NjY2ICYjMTA7TCAzMzA5IDQ2NjYgJiMxMDtMIDMzMDkgNDEzNCAmIzEwO0wgMTI1OSA0MTM0ICYjMTA7TCAxMjU5IDI3NTkgJiMxMDtMIDMxMDkgMjc1OSAmIzEwO0wgMzEwOSAyMjI4ICYjMTA7TCAxMjU5IDIyMjggJiMxMDtMIDEyNTkgMCAmIzEwO0wgNjI4IDAgJiMxMDtMIDYyOCA0NjY2ICYjMTA7eiIgaWQ9IkRlamFWdVNhbnMtNDYiLz4mI3hhOyAgICAgICA8cGF0aCB0cmFuc2Zvcm09InNjYWxlKDAuMDE1NjI1KSIgZD0iTSA2MDMgNDg2MyAmIzEwO0wgMTE3OCA0ODYzICYjMTA7TCAxMTc4IDAgJiMxMDtMIDYwMyAwICYjMTA7TCA2MDMgNDg2MyAmIzEwO3oiIGlkPSJEZWphVnVTYW5zLTZjIi8+JiN4YTsgICAgICAgPHBhdGggdHJhbnNmb3JtPSJzY2FsZSgwLjAxNTYyNSkiIGQ9Ik0gMjA1OSAtMzI1ICYjMTA7USAxODE2IC05NTAgMTU4NCAtMTE0MCAmIzEwO1EgMTM1MyAtMTMzMSA5NjYgLTEzMzEgJiMxMDtMIDUwNiAtMTMzMSAmIzEwO0wgNTA2IC04NTAgJiMxMDtMIDg0NCAtODUwICYjMTA7USAxMDgxIC04NTAgMTIxMiAtNzM3ICYjMTA7USAxMzQ0IC02MjUgMTUwMyAtMjA2ICYjMTA7TCAxNjA2IDU2ICYjMTA7TCAxOTEgMzUwMCAmIzEwO0wgODAwIDM1MDAgJiMxMDtMIDE4OTQgNzYzICYjMTA7TCAyOTg4IDM1MDAgJiMxMDtMIDM1OTcgMzUwMCAmIzEwO0wgMjA1OSAtMzI1ICYjMTA7eiIgaWQ9IkRlamFWdVNhbnMtNzkiLz4mI3hhOyAgICAgICA8cGF0aCB0cmFuc2Zvcm09InNjYWxlKDAuMDE1NjI1KSIgZD0iTSAzNTEzIDIxMTMgJiMxMDtMIDM1MTMgMCAmIzEwO0wgMjkzOCAwICYjMTA7TCAyOTM4IDIwOTQgJiMxMDtRIDI5MzggMjU5MSAyNzQ0IDI4MzcgJiMxMDtRIDI1NTAgMzA4NCAyMTYzIDMwODQgJiMxMDtRIDE2OTcgMzA4NCAxNDI4IDI3ODcgJiMxMDtRIDExNTkgMjQ5MSAxMTU5IDE5NzggJiMxMDtMIDExNTkgMCAmIzEwO0wgNTgxIDAgJiMxMDtMIDU4MSA0ODYzICYjMTA7TCAxMTU5IDQ4NjMgJiMxMDtMIDExNTkgMjk1NiAmIzEwO1EgMTM2NiAzMjcyIDE2NDUgMzQyOCAmIzEwO1EgMTkyNSAzNTg0IDIyOTEgMzU4NCAmIzEwO1EgMjg5NCAzNTg0IDMyMDMgMzIxMSAmIzEwO1EgMzUxMyAyODM4IDM1MTMgMjExMyAmIzEwO3oiIGlkPSJEZWphVnVTYW5zLTY4Ii8+JiN4YTsgICAgICA8L2RlZnM+JiN4YTsgICAgICA8dXNlIHhsaW5rOmhyZWY9IiNEZWphVnVTYW5zLTQ2Ii8+JiN4YTsgICAgICA8dXNlIHg9IjUwLjI2OTUzMSIgeGxpbms6aHJlZj0iI0RlamFWdVNhbnMtNjkiLz4mI3hhOyAgICAgIDx1c2UgeD0iNzguMDUyNzM0IiB4bGluazpocmVmPSIjRGVqYVZ1U2Fucy03MiIvPiYjeGE7ICAgICAgPHVzZSB4PSIxMTYuOTE2MDE2IiB4bGluazpocmVmPSIjRGVqYVZ1U2Fucy02NSIvPiYjeGE7ICAgICAgPHVzZSB4PSIxNzguNDM5NDUzIiB4bGluazpocmVmPSIjRGVqYVZ1U2Fucy02NiIvPiYjeGE7ICAgICAgPHVzZSB4PSIyMTMuNjQ0NTMxIiB4bGluazpocmVmPSIjRGVqYVZ1U2Fucy02YyIvPiYjeGE7ICAgICAgPHVzZSB4PSIyNDEuNDI3NzM0IiB4bGluazpocmVmPSIjRGVqYVZ1U2Fucy03OSIvPiYjeGE7ICAgICAgPHVzZSB4PSIzMDAuNjA3NDIyIiB4bGluazpocmVmPSIjRGVqYVZ1U2Fucy0yMCIvPiYjeGE7ICAgICAgPHVzZSB4PSIzMzIuMzk0NTMxIiB4bGluazpocmVmPSIjRGVqYVZ1U2Fucy03MCIvPiYjeGE7ICAgICAgPHVzZSB4PSIzOTUuODcxMDk0IiB4bGluazpocmVmPSIjRGVqYVZ1U2Fucy02OCIvPiYjeGE7ICAgICAgPHVzZSB4PSI0NTkuMjUiIHhsaW5rOmhyZWY9IiNEZWphVnVTYW5zLTYxIi8+JiN4YTsgICAgICA8dXNlIHg9IjUyMC41MjkyOTciIHhsaW5rOmhyZWY9IiNEZWphVnVTYW5zLTczIi8+JiN4YTsgICAgICA8dXNlIHg9IjU3Mi42Mjg5MDYiIHhsaW5rOmhyZWY9IiNEZWphVnVTYW5zLTY1Ii8+JiN4YTsgICAgIDwvZz4mI3hhOyAgICA8L2c+JiN4YTsgICA8L2c+JiN4YTsgIDwvZz4mI3hhOyA8L2c+JiN4YTsgPGRlZnM+JiN4YTsgIDxjbGlwUGF0aCBpZD0icGYyZjE3ZTJjMjUiPiYjeGE7ICAgPHJlY3QgaGVpZ2h0PSIyNjYuMTEyIiB3aWR0aD0iMzU3LjEyIiB5PSI0MS40NzIiIHg9IjU3LjYiLz4mI3hhOyAgPC9jbGlwUGF0aD4mI3hhOyA8L2RlZnM+JiN4YTs8L3N2Zz4=;" parent="1" vertex="1">
          <mxGeometry x="456" y="40" width="461" height="346" as="geometry" />
        </mxCell>
      </root>
    </mxGraphModel>
  </diagram>
</mxfile>
